<?xml version="1.0" encoding="utf-8"?>
<!-- Generator: Adobe Illustrator 27.0.0, SVG Export Plug-In . SVG Version: 6.00 Build 0)  -->
<svg version="1.1" id="Layer_1" xmlns="http://www.w3.org/2000/svg" xmlns:xlink="http://www.w3.org/1999/xlink" x="0px" y="0px"
	 viewBox="0 0 841.89 595.28" style="enable-background:new 0 0 841.89 595.28;" xml:space="preserve">
<style type="text/css">
	.st0{opacity:0.5;fill:#FF9200;}
	.st1{font-family:'Montserrat-Bold';}
	.st2{font-size:34.144px;}
	.st3{font-family:'Montserrat-Medium';}
	.st4{font-size:26.1189px;}
	.st5{fill:#FFFFFF;}
	.st6{fill:#FFFFFF;stroke:#000000;stroke-width:4.557;stroke-miterlimit:10;}
	.st7{fill:url(#SVGID_1_);}
	.st8{fill:url(#SVGID_00000079468468805824395010000003015462644956055982_);}
	.st9{fill:#ADD962;}
	.st10{fill:url(#SVGID_00000065073593004889641770000011644240252510966443_);}
	.st11{fill:url(#SVGID_00000079472827570306379240000018073253539594719666_);}
	.st12{fill:#4B77A2;}
	.st13{fill:url(#SVGID_00000091724617685211961390000008025486815121165462_);}
	.st14{fill:url(#SVGID_00000024706225104341278100000002198876373350042019_);}
	.st15{fill:url(#SVGID_00000107568568172629894720000000552167708337590460_);}
	.st16{fill:url(#SVGID_00000037666088873349519930000016025247521947112349_);}
	.st17{fill:#07085F;}
	.st18{fill:url(#SVGID_00000145057342142948273810000006670889909726408844_);}
	.st19{fill:url(#SVGID_00000024702881829145909900000002370691249458224266_);}
	.st20{fill:#E8FDFB;}
	.st21{fill:#333333;}
	.st22{fill:url(#SVGID_00000121998818489540871280000009584128132131213708_);}
	.st23{fill:url(#SVGID_00000116202165895681941410000013824921603651786922_);}
	.st24{fill:url(#SVGID_00000009559645328258622230000018261563283371017624_);}
	.st25{fill:url(#SVGID_00000122704813179027587060000004678671354852501920_);}
	.st26{fill:url(#SVGID_00000054963842040596417100000011522067719126240678_);}
	.st27{fill:url(#SVGID_00000075147299035957604060000016716184283513530046_);}
	.st28{fill:url(#SVGID_00000183233548109017881140000014676485998497343121_);}
	.st29{fill:url(#SVGID_00000028301180321506387610000011962877111001690499_);}
	.st30{fill:#FFB01C;}
	.st31{fill:url(#SVGID_00000085241048058368855790000015094690978239784367_);}
	.st32{fill:url(#SVGID_00000077304093587480065560000016526636207623289263_);}
	.st33{fill:url(#SVGID_00000161610708265364057540000003245128835361303482_);}
	.st34{fill:url(#SVGID_00000098926875027316135210000008609042023364812723_);}
	.st35{fill:#D6EDA8;}
	.st36{fill:url(#SVGID_00000129909696624125250710000004939469352170119566_);}
	.st37{fill:url(#SVGID_00000177458921954557733730000004091937289398440860_);}
	.st38{fill:url(#SVGID_00000168090163898386210760000000974313796761926837_);}
	.st39{fill:url(#SVGID_00000152231222315188175820000018158033030455886509_);}
	.st40{fill:url(#SVGID_00000008860694040395984370000016697729316176992156_);}
	.st41{fill:url(#SVGID_00000114042021674062517050000006789432207764096908_);}
	.st42{fill:url(#SVGID_00000108279206651176234820000007094655070137600642_);}
	.st43{fill:url(#SVGID_00000065768294724681515560000001082168873008171648_);}
	.st44{fill:url(#SVGID_00000005946181302398218750000012306068103721413773_);}
	.st45{fill:url(#SVGID_00000111878767477648256980000004980944369754674600_);}
	.st46{fill:url(#SVGID_00000094598825721364377370000012758818348763227303_);}
	.st47{opacity:0.3;fill:#D4EEF7;}
	.st48{fill:#D4EEF7;}
	.st49{opacity:0.2;}
	.st50{fill:#FF9200;}
	.st51{fill:none;stroke:#1E333A;stroke-width:0.7089;stroke-miterlimit:10;}
	.st52{fill:#1E333A;}
	.st53{fill:#FFFFFF;stroke:#1E333A;stroke-width:0.7089;stroke-linecap:round;stroke-linejoin:round;stroke-miterlimit:10;}
	.st54{fill:#1E333A;stroke:#1E333A;stroke-width:0.7089;stroke-linecap:round;stroke-linejoin:round;stroke-miterlimit:10;}
	.st55{fill:none;stroke:#1E333A;stroke-width:0.7089;stroke-linecap:round;stroke-linejoin:round;stroke-miterlimit:10;}
	.st56{fill:none;stroke:#1E333A;stroke-width:2.1267;stroke-linecap:round;stroke-linejoin:round;stroke-miterlimit:10;}
	.st57{fill:#8A8A8A;}
	.st58{fill:#39EA9D;stroke:#1E333A;stroke-width:0.7089;stroke-linecap:round;stroke-linejoin:round;stroke-miterlimit:10;}
	.st59{fill:#FF9200;stroke:#000000;stroke-width:0.6055;stroke-miterlimit:10;}
	.st60{fill:#E5E5E5;stroke:#1E333A;stroke-width:0.7089;stroke-linecap:round;stroke-linejoin:round;stroke-miterlimit:10;}
	.st61{fill:#23CECA;}
	.st62{fill:#9BEBE2;}
	.st63{fill:none;stroke:#D1E2E8;stroke-width:2.4843;stroke-linecap:round;stroke-linejoin:round;}
	.st64{fill:none;stroke:#D1E2E8;stroke-width:2.4843;stroke-linecap:round;stroke-linejoin:round;stroke-dasharray:8.1577,8.1577;}
	.st65{fill:#FF3500;}
	.st66{fill:#FFA790;}
	.st67{fill:#FF696F;}
	.st68{fill:#002E3F;}
	.st69{fill:#005E70;}
	.st70{fill:#004253;}
	.st71{fill:#005060;}
	.st72{fill:#005E6E;}
	.st73{fill:#E0DFF0;}
	.st74{fill:#B6B6E6;}
	.st75{fill:#00B29D;}
	.st76{fill:#006570;}
	.st77{fill:#007881;}
	.st78{fill:#DC3D07;}
	.st79{fill:#FF7F77;}
	.st80{fill:#414042;}
	.st81{fill:#008790;}
	.st82{fill:#FFF000;}
	.st83{fill:#009B8D;}
	.st84{fill:#BBBDBF;}
	.st85{fill:#005D6B;}
	.st86{fill:#B8FFF6;}
	.st87{fill:#00AEB1;}
	.st88{fill:#00C4C2;}
	.st89{fill:#241F20;}
	.st90{fill:#003E43;}
</style>
<g>
	<path class="st0" d="M684.89,501.36H133.73c-6.52,0-11.81-5.29-11.81-11.81V105.73c0-6.52,5.29-11.81,11.81-11.81h551.16
		c6.52,0,11.81,5.29,11.81,11.81v383.82C696.7,496.07,691.41,501.36,684.89,501.36z"/>
	<g>
		<text transform="matrix(1 0 0 1 270.0251 359.9161)"><tspan x="0" y="0" class="st1 st2">Most Affortable</tspan><tspan x="-121.81" y="31.34" class="st3 st4">Our unique business model can reduce </tspan><tspan x="-87.33" y="62.69" class="st3 st4">fulfillment costs to be much more</tspan><tspan x="-89.72" y="94.03" class="st3 st4">affordable and mutually beneficial</tspan></text>
		<g id="a0QIcJ_00000148663403018715023520000007580813506020170431_">
			<g>
				<path class="st5" d="M352.94,233.62c-0.37-0.79-0.68-1.43-0.98-2.07c-2.23-4.77-6.2-6.24-11-4.04
					c-9.03,4.13-18.06,8.28-27.08,12.43c-4.81,2.22-6.22,6.1-4,10.97c1.62,3.57,3.25,7.13,4.89,10.7
					c7.28,15.85,14.55,31.71,21.84,47.55c2.17,4.72,6.08,6.14,10.83,4c1.49-0.67,2.97-1.37,4.45-2.05
					c7.55-3.45,15.1-6.89,22.64-10.35c4.78-2.2,6.28-6.2,4.14-10.98c-0.29-0.65-0.57-1.3-0.91-2.06c0.75-0.37,1.37-0.7,2.01-1
					c3.02-1.4,6.09-2.72,9.07-4.2c3.71-1.84,5.35-5.77,4.09-9.56c-0.26-0.79-0.59-1.56-0.95-2.5c2.22-0.86,4.3-1.77,6.45-2.48
					c7.75-2.59,15.46-3.03,23.15,0.36c3.64,1.61,7.36,3.05,11.09,4.46c6.38,2.41,12.8,2.5,19.11-0.22
					c6.42-2.76,12.79-5.64,19.18-8.48c2.26-1.01,3.06-2.52,2.34-4.24c-0.71-1.69-2.45-2.15-4.67-1.17
					c-6.16,2.71-12.33,5.4-18.46,8.17c-5.18,2.34-10.37,2.38-15.62,0.33c-3.77-1.47-7.56-2.91-11.28-4.5
					c-7.13-3.06-14.46-3.49-21.89-1.62c-4.03,1.01-7.93,2.5-12.06,3.83c-4.17-9.1-8.38-18.27-12.56-27.39
					c2.42-1.57,4.65-3.05,6.92-4.46c7.92-4.95,16.19-8.77,25.84-8.63c6.31,0.09,12.67-0.82,18.79,1.74
					c6.75,2.82,13.59,5.42,20.38,8.15c0.83,0.33,1.65,0.84,2.3,1.45c1.69,1.56,1.96,4.38,0.76,6.53c-1.03,1.84-2.42,2.32-5.07,1.68
					c-6.86-1.64-13.72-3.3-20.58-4.94c-2.09-0.5-3.64,0.23-4.11,1.91c-0.5,1.76,0.52,3.25,2.7,3.79c7.17,1.75,14.34,3.51,21.53,5.19
					c4.21,0.99,7.52-0.49,10.18-3.85c0.66-0.84,1.69-1.62,2.71-1.93c11.94-3.64,23.9-7.18,35.86-10.73
					c0.93-0.28,1.92-0.44,2.89-0.49c2.46-0.12,4.29,0.97,5.4,3.18c1.15,2.29,0.94,4.54-0.81,6.36c-1.2,1.24-2.67,2.33-4.23,3.07
					c-5.14,2.42-10.38,4.62-15.55,6.99c-0.83,0.38-1.88,1.08-2.09,1.84c-0.26,0.91-0.02,2.24,0.52,3.04
					c0.8,1.21,2.18,1.24,3.53,0.64c5.73-2.55,11.57-4.89,17.16-7.7c2.25-1.13,4.21-3.09,5.87-5.04c2.03-2.37,2.65-5.36,2.01-8.5
					c-1.58-7.79-8.37-11.47-16.55-9.02c-10.89,3.27-21.78,6.51-32.68,9.75c-0.65,0.19-1.33,0.32-2.11,0.5
					c-0.79-5.26-4.07-8-8.6-9.73c-5.31-2.02-10.6-4.12-15.82-6.35c-6.24-2.67-12.66-4.12-19.47-3.54
					c-5.33,0.45-10.77,0.4-15.97,1.47c-7.17,1.48-13.48,5.22-19.58,9.22c-1.5,0.99-3.04,1.91-4.51,2.84
					c-3.92-4.52-6.64-5.1-11.79-2.75C359.46,230.65,356.31,232.09,352.94,233.62z M461.64,119.06c0.83,0,1.18-0.01,1.54,0
					c8.69,0.17,16.57,2.77,23.63,7.83c0.53,0.38,1.04,0.82,1.61,1.11c1.43,0.7,2.73,0.4,3.66-0.85c0.93-1.25,0.82-2.59-0.24-3.76
					c-0.39-0.43-0.88-0.78-1.36-1.12c-11.49-8.18-24.14-10.84-37.97-8.04c-1.17,0.24-2.47,0.29-3.63,0.05
					c-6.29-1.32-12.56-1.44-18.9-0.38c-25.2,4.23-42.99,29.81-38.08,54.85c5.31,27.09,30.44,43.62,57.39,37.78
					c0.79-0.17,1.68-0.16,2.47,0.01c5.29,1.1,10.59,1.51,15.98,0.92c34.69-3.8,53.5-42.96,34.75-72.36
					c-0.42-0.66-0.84-1.35-1.41-1.87c-1.1-0.99-2.38-1.08-3.59-0.18c-1.17,0.87-1.61,2.05-1.01,3.45c0.26,0.59,0.63,1.14,0.98,1.69
					c15.07,23.74,2.7,55.23-24.52,62.34c-3.55,0.93-7.17,1.48-11.24,1.27c15.46-9.77,23.98-23.33,23.99-41.3
					C485.72,142.5,477.2,128.88,461.64,119.06z"/>
				<path d="M352.94,233.62c3.37-1.54,6.52-2.97,9.66-4.41c5.15-2.36,7.87-1.77,11.79,2.75c1.47-0.92,3.01-1.85,4.51-2.84
					c6.09-4,12.41-7.74,19.58-9.22c5.2-1.07,10.64-1.02,15.97-1.47c6.81-0.58,13.23,0.88,19.47,3.54
					c5.23,2.23,10.51,4.33,15.82,6.35c4.53,1.72,7.81,4.47,8.6,9.73c0.78-0.18,1.45-0.3,2.11-0.5c10.89-3.24,21.79-6.49,32.68-9.75
					c8.17-2.45,14.97,1.23,16.55,9.02c0.64,3.13,0.01,6.12-2.01,8.5c-1.66,1.95-3.63,3.91-5.87,5.04
					c-5.59,2.82-11.43,5.16-17.16,7.7c-1.35,0.6-2.73,0.57-3.53-0.64c-0.54-0.81-0.78-2.13-0.52-3.04c0.21-0.76,1.26-1.46,2.09-1.84
					c5.17-2.37,10.41-4.57,15.55-6.99c1.55-0.73,3.03-1.83,4.23-3.07c1.75-1.81,1.96-4.07,0.81-6.36c-1.11-2.21-2.94-3.3-5.4-3.18
					c-0.97,0.05-1.96,0.21-2.89,0.49c-11.96,3.54-23.92,7.09-35.86,10.73c-1.01,0.31-2.04,1.09-2.71,1.93
					c-2.65,3.36-5.97,4.84-10.18,3.85c-7.19-1.68-14.36-3.44-21.53-5.19c-2.18-0.53-3.2-2.02-2.7-3.79
					c0.47-1.67,2.01-2.41,4.11-1.91c6.86,1.64,13.72,3.3,20.58,4.94c2.64,0.63,4.04,0.16,5.07-1.68c1.2-2.15,0.93-4.97-0.76-6.53
					c-0.66-0.61-1.47-1.11-2.3-1.45c-6.79-2.74-13.63-5.33-20.38-8.15c-6.12-2.56-12.47-1.65-18.79-1.74
					c-9.65-0.14-17.93,3.68-25.84,8.63c-2.27,1.42-4.5,2.9-6.92,4.46c4.18,9.12,8.39,18.29,12.56,27.39
					c4.13-1.33,8.03-2.81,12.06-3.83c7.43-1.87,14.77-1.44,21.89,1.62c3.72,1.6,7.51,3.03,11.28,4.5
					c5.24,2.04,10.44,2.01,15.62-0.33c6.13-2.77,12.3-5.46,18.46-8.17c2.22-0.98,3.96-0.52,4.67,1.17c0.72,1.73-0.08,3.24-2.34,4.24
					c-6.39,2.85-12.76,5.72-19.18,8.48c-6.32,2.72-12.73,2.63-19.11,0.22c-3.73-1.41-7.45-2.85-11.09-4.46
					c-7.69-3.4-15.4-2.95-23.15-0.36c-2.15,0.72-4.23,1.62-6.45,2.48c0.36,0.94,0.69,1.71,0.95,2.5c1.26,3.78-0.38,7.72-4.09,9.56
					c-2.98,1.48-6.05,2.8-9.07,4.2c-0.64,0.3-1.26,0.63-2.01,1c0.34,0.76,0.62,1.41,0.91,2.06c2.14,4.77,0.64,8.78-4.14,10.98
					c-7.54,3.46-15.09,6.9-22.64,10.35c-1.49,0.68-2.96,1.38-4.45,2.05c-4.75,2.14-8.66,0.73-10.83-4
					c-7.29-15.84-14.57-31.7-21.84-47.55c-1.64-3.56-3.26-7.13-4.89-10.7c-2.22-4.87-0.81-8.76,4-10.97
					c9.02-4.16,18.05-8.3,27.08-12.43c4.8-2.2,8.77-0.72,11,4.04C352.26,232.19,352.57,232.84,352.94,233.62z M373.92,293.77
					c-0.39-0.92-0.63-1.53-0.89-2.11c-8.74-19.06-17.48-38.12-26.22-57.18c-1.06-2.31-1.47-2.48-3.72-1.45
					c-8.79,4.03-17.58,8.06-26.36,12.09c-2.21,1.01-2.35,1.4-1.36,3.58c4.35,9.5,8.72,19,13.07,28.5
					c4.47,9.74,8.94,19.47,13.39,29.21c0.61,1.33,1.24,2.28,2.96,1.48c9.19-4.25,18.41-8.43,27.6-12.69
					C372.99,294.92,373.42,294.24,373.92,293.77z M375.24,282.3c3.59-1.64,6.92-3.14,10.24-4.68c2.1-0.98,2.38-1.76,1.42-3.86
					c-2.19-4.81-4.41-9.62-6.62-14.42c-3.62-7.89-7.26-15.78-10.87-23.68c-0.52-1.15-1.23-2.34-2.59-1.78
					c-3.83,1.58-7.57,3.38-11.44,5.13C362.05,253.57,368.61,267.86,375.24,282.3z"/>
				<path d="M461.64,119.06c15.56,9.82,24.09,23.43,24.07,41.45c-0.02,17.96-8.53,31.52-23.99,41.3c4.06,0.2,7.69-0.34,11.24-1.27
					c27.22-7.1,39.59-38.6,24.52-62.34c-0.35-0.55-0.72-1.1-0.98-1.69c-0.61-1.4-0.16-2.59,1.01-3.45c1.2-0.89,2.49-0.81,3.59,0.18
					c0.57,0.51,0.99,1.21,1.41,1.87c18.76,29.41-0.06,68.56-34.75,72.36c-5.4,0.59-10.7,0.18-15.98-0.92
					c-0.79-0.17-1.68-0.18-2.47-0.01c-26.95,5.84-52.08-10.69-57.39-37.78c-4.91-25.04,12.88-50.62,38.08-54.85
					c6.34-1.06,12.61-0.95,18.9,0.38c1.16,0.24,2.46,0.19,3.63-0.05c13.83-2.8,26.48-0.14,37.97,8.04c0.48,0.34,0.97,0.69,1.36,1.12
					c1.06,1.17,1.17,2.51,0.24,3.76c-0.93,1.25-2.24,1.56-3.66,0.85c-0.58-0.29-1.08-0.73-1.61-1.11
					c-7.06-5.07-14.94-7.67-23.63-7.83C462.82,119.06,462.46,119.06,461.64,119.06z M479.91,160.53
					c0.07-22.67-18.52-41.37-41.23-41.47c-22.88-0.1-41.49,18.37-41.58,41.25c-0.09,22.88,18.41,41.51,41.26,41.57
					C461.18,201.92,479.84,183.36,479.91,160.53z"/>
				<path class="st5" d="M373.92,293.77c-0.49,0.47-0.93,1.15-1.54,1.44c-9.19,4.26-18.41,8.45-27.6,12.69
					c-1.71,0.79-2.35-0.16-2.96-1.48c-4.45-9.74-8.92-19.48-13.39-29.21c-4.36-9.5-8.72-18.99-13.07-28.5
					c-1-2.18-0.85-2.56,1.36-3.58c8.79-4.04,17.57-8.07,26.36-12.09c2.25-1.03,2.66-0.87,3.72,1.45
					c8.74,19.06,17.48,38.12,26.22,57.18C373.29,292.24,373.53,292.85,373.92,293.77z"/>
				<path class="st5" d="M375.24,282.3c-6.63-14.44-13.18-28.73-19.86-43.28c3.87-1.76,7.61-3.55,11.44-5.13
					c1.37-0.56,2.07,0.63,2.59,1.78c3.61,7.9,7.24,15.79,10.87,23.68c2.21,4.81,4.42,9.61,6.62,14.42c0.96,2.1,0.68,2.88-1.42,3.86
					C382.16,279.16,378.83,280.66,375.24,282.3z"/>
				<path class="st5" d="M479.91,160.53c-0.08,22.83-18.73,41.4-41.55,41.34c-22.85-0.06-41.34-18.69-41.26-41.57
					c0.09-22.88,18.7-41.34,41.58-41.25C461.39,119.15,479.99,137.86,479.91,160.53z M441.45,182.01c1.72-0.62,3.33-1.01,4.77-1.74
					c4.29-2.18,6.84-5.58,6.81-10.58c-0.03-5.06-2.51-8.53-7.04-10.59c-1.24-0.57-2.6-0.87-3.86-1.4c-2.58-1.08-5.3-1.95-7.66-3.4
					c-3.76-2.32-3.58-5.89,0.25-8.17c1.08-0.64,2.42-1.04,3.67-1.17c3.42-0.35,6.19,1.23,8.7,3.36c1.63,1.38,3.36,1.42,4.53,0.14
					c1.26-1.38,1.11-3.17-0.7-4.58c-1.69-1.32-3.45-2.83-5.43-3.42c-3.01-0.89-4.86-2.09-4.08-5.54c0.04-0.17-0.06-0.38-0.11-0.57
					c-0.42-1.53-1.47-2.37-3.01-2.27c-1.52,0.11-2.54,1.02-2.69,2.62c-0.09,0.97-0.12,1.97-0.04,2.94c0.11,1.22-0.34,1.74-1.49,2.29
					c-1.85,0.9-3.74,1.99-5.16,3.44c-4.37,4.46-4.15,10.44,0.59,14.49c1.9,1.63,4.21,2.86,6.49,3.94c2.11,1,4.45,1.51,6.66,2.31
					c3.28,1.19,4.55,2.91,4.47,5.88c-0.07,2.65-1.85,4.8-4.95,5.57c-5.04,1.26-9.45,0.24-12.85-3.97c-1.28-1.58-2.9-1.83-4.29-0.77
					c-1.37,1.04-1.55,2.72-0.37,4.34c1.9,2.6,4.32,4.75,7.42,5.52c2.88,0.72,3.88,2.03,3.53,4.94c-0.23,1.93,1.19,3.26,2.85,3.26
					c1.66,0,2.87-1.28,2.97-3.25C441.51,184.4,441.45,183.16,441.45,182.01z"/>
				<path d="M441.45,182.01c0,1.16,0.05,2.39-0.01,3.62c-0.1,1.97-1.31,3.25-2.97,3.25c-1.67,0-3.08-1.33-2.85-3.26
					c0.35-2.91-0.66-4.22-3.53-4.94c-3.1-0.77-5.52-2.93-7.42-5.52c-1.19-1.62-1-3.3,0.37-4.34c1.39-1.06,3.01-0.81,4.29,0.77
					c3.4,4.21,7.81,5.24,12.85,3.97c3.1-0.78,4.88-2.93,4.95-5.57c0.08-2.98-1.2-4.7-4.47-5.88c-2.21-0.8-4.55-1.31-6.66-2.31
					c-2.28-1.08-4.59-2.31-6.49-3.94c-4.73-4.05-4.96-10.03-0.59-14.49c1.42-1.45,3.31-2.54,5.16-3.44c1.15-0.56,1.6-1.08,1.49-2.29
					c-0.09-0.97-0.05-1.97,0.04-2.94c0.15-1.61,1.16-2.52,2.69-2.62c1.54-0.11,2.59,0.74,3.01,2.27c0.05,0.19,0.15,0.4,0.11,0.57
					c-0.77,3.44,1.07,4.65,4.08,5.54c1.98,0.58,3.74,2.1,5.43,3.42c1.81,1.42,1.97,3.2,0.7,4.58c-1.17,1.28-2.9,1.24-4.53-0.14
					c-2.52-2.14-5.28-3.71-8.7-3.36c-1.26,0.13-2.59,0.53-3.67,1.17c-3.83,2.28-4.01,5.85-0.25,8.17c2.35,1.45,5.08,2.32,7.66,3.4
					c1.26,0.53,2.62,0.83,3.86,1.4c4.52,2.06,7.01,5.53,7.04,10.59c0.03,5-2.52,8.39-6.81,10.58
					C444.79,181,443.18,181.39,441.45,182.01z"/>
			</g>
		</g>
	</g>
</g>
</svg>
