<?xml version="1.0" encoding="utf-8"?>
<!-- Generator: Adobe Illustrator 27.0.0, SVG Export Plug-In . SVG Version: 6.00 Build 0)  -->
<svg version="1.1" id="Layer_1" xmlns="http://www.w3.org/2000/svg" xmlns:xlink="http://www.w3.org/1999/xlink" x="0px" y="0px"
	 viewBox="0 0 841.89 595.28" style="enable-background:new 0 0 841.89 595.28;" xml:space="preserve">
<style type="text/css">
	.st0{opacity:0.5;fill:#FF9200;}
	.st1{fill:#FFFFFF;}
	.st2{font-family:'Montserrat-Bold';}
	.st3{font-size:34.144px;}
	.st4{font-family:'Montserrat-Medium';}
	.st5{font-size:26.1189px;}
	.st6{fill:#FFFFFF;stroke:#000000;stroke-width:4.557;stroke-miterlimit:10;}
	.st7{fill:url(#SVGID_1_);}
	.st8{fill:url(#SVGID_00000107551181472161431260000009278501414208867763_);}
	.st9{fill:#ADD962;}
	.st10{fill:url(#SVGID_00000176761593593878497040000000406662283980900743_);}
	.st11{fill:url(#SVGID_00000098938596322293906190000016625918251137908643_);}
	.st12{fill:#4B77A2;}
	.st13{fill:url(#SVGID_00000170993023456002938410000005153288337833124234_);}
	.st14{fill:url(#SVGID_00000083801895300692199690000016779386519336360581_);}
	.st15{fill:url(#SVGID_00000071535326722744374220000013986560080709347494_);}
	.st16{fill:url(#SVGID_00000101795132332527995470000008072081211733044630_);}
	.st17{fill:#07085F;}
	.st18{fill:url(#SVGID_00000078744659138061116750000015309175647748025258_);}
	.st19{fill:url(#SVGID_00000031189630129918562790000018370832248311556009_);}
	.st20{fill:#E8FDFB;}
	.st21{fill:#333333;}
	.st22{fill:url(#SVGID_00000093869553527877101360000015618184950411541383_);}
	.st23{fill:url(#SVGID_00000123399094616891861030000009864831811369682865_);}
	.st24{fill:url(#SVGID_00000125596921232782590020000000686033646133559689_);}
	.st25{fill:url(#SVGID_00000047045595399888443760000007169877606018349719_);}
	.st26{fill:url(#SVGID_00000034777400807736138180000012951344203936487562_);}
	.st27{fill:url(#SVGID_00000003825872565405797940000013419944138480072098_);}
	.st28{fill:url(#SVGID_00000130605900154071375210000012236158515234749883_);}
	.st29{fill:url(#SVGID_00000091717381032506185890000016019453521163782320_);}
	.st30{fill:#FFB01C;}
	.st31{fill:url(#SVGID_00000142875207368377134070000000188546105346585762_);}
	.st32{fill:url(#SVGID_00000067950767545498966660000015538966440250275994_);}
	.st33{fill:url(#SVGID_00000026843021935803581650000011063223463761529278_);}
	.st34{fill:url(#SVGID_00000129200614960873113210000014649287541902665361_);}
	.st35{fill:#D6EDA8;}
	.st36{fill:url(#SVGID_00000058590718321307433910000007773793637455820162_);}
	.st37{fill:url(#SVGID_00000017486220472357798240000008836504406933986961_);}
	.st38{fill:url(#SVGID_00000137126952405809643870000013819045182593552032_);}
	.st39{fill:url(#SVGID_00000134249224409654668650000012411500766122195085_);}
	.st40{fill:url(#SVGID_00000075132670358324394670000012134117812317614523_);}
	.st41{fill:url(#SVGID_00000151506316631991030920000009850274557743924359_);}
	.st42{fill:url(#SVGID_00000062178617373618390300000000668233949577355422_);}
	.st43{fill:url(#SVGID_00000091696905769607168850000011964854211704982417_);}
	.st44{fill:url(#SVGID_00000081635881587797892420000018393337812697766327_);}
	.st45{fill:url(#SVGID_00000153669312794783706480000016979156943632456861_);}
	.st46{fill:url(#SVGID_00000031198925937833406740000017560510439602732953_);}
	.st47{opacity:0.3;fill:#D4EEF7;}
	.st48{fill:#D4EEF7;}
	.st49{opacity:0.2;}
	.st50{fill:#FF9200;}
	.st51{fill:none;stroke:#1E333A;stroke-width:0.7089;stroke-miterlimit:10;}
	.st52{fill:#1E333A;}
	.st53{fill:#FFFFFF;stroke:#1E333A;stroke-width:0.7089;stroke-linecap:round;stroke-linejoin:round;stroke-miterlimit:10;}
	.st54{fill:#1E333A;stroke:#1E333A;stroke-width:0.7089;stroke-linecap:round;stroke-linejoin:round;stroke-miterlimit:10;}
	.st55{fill:none;stroke:#1E333A;stroke-width:0.7089;stroke-linecap:round;stroke-linejoin:round;stroke-miterlimit:10;}
	.st56{fill:none;stroke:#1E333A;stroke-width:2.1267;stroke-linecap:round;stroke-linejoin:round;stroke-miterlimit:10;}
	.st57{fill:#8A8A8A;}
	.st58{fill:#39EA9D;stroke:#1E333A;stroke-width:0.7089;stroke-linecap:round;stroke-linejoin:round;stroke-miterlimit:10;}
	.st59{fill:#FF9200;stroke:#000000;stroke-width:0.6055;stroke-miterlimit:10;}
	.st60{fill:#E5E5E5;stroke:#1E333A;stroke-width:0.7089;stroke-linecap:round;stroke-linejoin:round;stroke-miterlimit:10;}
	.st61{fill:#23CECA;}
	.st62{fill:#9BEBE2;}
	.st63{fill:none;stroke:#D1E2E8;stroke-width:2.4843;stroke-linecap:round;stroke-linejoin:round;}
	.st64{fill:none;stroke:#D1E2E8;stroke-width:2.4843;stroke-linecap:round;stroke-linejoin:round;stroke-dasharray:8.1577,8.1577;}
	.st65{fill:#FF3500;}
	.st66{fill:#FFA790;}
	.st67{fill:#FF696F;}
	.st68{fill:#002E3F;}
	.st69{fill:#005E70;}
	.st70{fill:#004253;}
	.st71{fill:#005060;}
	.st72{fill:#005E6E;}
	.st73{fill:#E0DFF0;}
	.st74{fill:#B6B6E6;}
	.st75{fill:#00B29D;}
	.st76{fill:#006570;}
	.st77{fill:#007881;}
	.st78{fill:#DC3D07;}
	.st79{fill:#FF7F77;}
	.st80{fill:#414042;}
	.st81{fill:#008790;}
	.st82{fill:#FFF000;}
	.st83{fill:#009B8D;}
	.st84{fill:#BBBDBF;}
	.st85{fill:#005D6B;}
	.st86{fill:#B8FFF6;}
	.st87{fill:#00AEB1;}
	.st88{fill:#00C4C2;}
	.st89{fill:#241F20;}
	.st90{fill:#003E43;}
</style>
<g>
	<path class="st0" d="M698.48,501.36H147.32c-6.52,0-11.81-5.29-11.81-11.81V105.73c0-6.52,5.29-11.81,11.81-11.81h551.16
		c6.52,0,11.81,5.29,11.81,11.81v383.82C710.29,496.07,705,501.36,698.48,501.36z"/>
	<g>
		<text transform="matrix(1 0 0 1 243.0978 359.9161)"><tspan x="0" y="0" class="st2 st3">Best Service Quality</tspan><tspan x="-18.31" y="31.34" class="st4 st5">The combination of advanced</tspan><tspan x="-62.42" y="62.69" class="st4 st5">technology &amp; professional workers is </tspan><tspan x="-91.06" y="94.03" class="st4 st5">ready to produce the best quality service</tspan></text>
		<g id="OmTTn3_00000121273510544222764050000000133384659996510883_">
			<g>
				<path class="st1" d="M383.76,294.15c2.7-2.29,5.32-3.02,8.92-1.96c11.7,3.43,23.55,6.36,35.31,9.57c7.33,2,14.1,0.95,20.53-3.03
					c18.39-11.37,36.81-22.69,55.22-34.03c5.12-3.15,7.34-8.85,5.75-14.64c-1.84-6.7-8.23-10.17-15.89-8.68
					c-4.53,0.88-8.61,2.83-12.55,5.13c-10.04,5.85-20.08,11.71-30.13,17.53c-1.31,0.76-2.71,1.34-4.52,2.23
					c0.4-1.11,0.61-1.64,0.78-2.17c2.09-6.54-1.83-13.96-8.54-15.35c-9.64-2-18.95-5.04-28.05-8.66
					c-8.14-3.24-15.73-2.42-23.16,1.81c-2.88,1.64-5.75,3.28-8.62,4.93c-5.44,3.14-10.88,6.29-16.45,9.52
					c-0.71-1.23-1.33-2.35-2-3.45c-2.35-3.87-6.66-5.12-10.62-2.99c-2.97,1.6-5.91,3.26-8.81,5c-3.78,2.27-4.92,6.55-2.85,10.49
					c0.72,1.38,1.53,2.72,2.29,4.07c7.74,13.67,15.46,27.35,23.21,41.01c2.52,4.44,6.83,5.66,11.28,3.2
					c2.84-1.57,5.69-3.13,8.46-4.82c3.71-2.27,4.82-6.47,2.83-10.34C385.4,297.02,384.55,295.58,383.76,294.15z M413.01,198.07
					c-0.16,0.4-0.26,0.7-0.39,0.99c-3.61,7.77-7.29,15.51-10.78,23.33c-0.47,1.06-0.43,2.84,0.19,3.73
					c0.55,0.78,2.27,1.18,3.39,1.05c3.61-0.42,7.18-1.12,10.75-1.82c1.08-0.21,1.65,0.05,2.18,1c1.68,3.01,3.46,5.95,5.16,8.94
					c0.81,1.42,1.69,2.65,3.57,2.51c1.78-0.13,2.45-1.45,3.1-2.85c3.46-7.48,6.93-14.96,10.48-22.39c0.35-0.74,1.22-1.42,2-1.75
					c2.62-1.11,5.12-0.01,7.55,0.83c0.84,0.29,1.76,1.09,2.12,1.9c2.56,5.68,4.99,11.41,7.43,17.15c0.58,1.35,1.39,2.38,2.94,2.49
					c1.55,0.11,2.52-0.8,3.28-2.04c1.8-2.94,3.7-5.81,5.4-8.8c0.76-1.32,1.58-1.56,2.99-1.22c3.22,0.78,6.47,1.39,9.72,2.05
					c1.44,0.29,2.88,0.42,3.96-0.87c1.12-1.35,0.75-2.77,0.13-4.21c-2.76-6.37-5.5-12.75-8.24-19.13c-0.25-0.57-0.46-1.16-0.67-1.71
					c6.42-3.85,8.8-7.39,7.68-13.62c-1.04-5.81-0.05-10.83,2.96-15.77c1.72-2.83,1.85-6.02,0.85-9.23
					c-0.85-2.72-2.55-4.84-4.72-6.53c-3.68-2.85-5.92-6.45-6.42-11.11c-0.1-0.96-0.42-1.9-0.71-2.83
					c-1.53-4.93-5.81-8.16-10.96-8.55c-10.13-0.76-7.05,0.6-15.26-5.42c-5.06-3.71-10.44-3.67-15.47,0.09
					c-1.51,1.13-2.93,2.42-4.57,3.32c-1.43,0.79-3.08,1.29-4.69,1.62c-1.58,0.32-3.23,0.27-4.85,0.36
					c-6.98,0.39-11.11,3.72-12.44,10.62c-0.93,4.85-2.91,8.76-6.74,12.06c-6.06,5.22-6.86,10.12-3.03,17.13
					c2.22,4.06,3.39,8.09,2.29,12.65c-0.12,0.5-0.17,1.03-0.24,1.54c-0.79,5.86,1.96,10.84,7.34,13.28
					C411.18,197.26,412.07,197.65,413.01,198.07z"/>
				<path d="M383.76,294.15c0.79,1.42,1.64,2.87,2.41,4.36c1.99,3.87,0.87,8.07-2.83,10.34c-2.77,1.69-5.62,3.25-8.46,4.82
					c-4.45,2.45-8.76,1.24-11.28-3.2c-7.75-13.66-15.48-27.34-23.21-41.01c-0.77-1.36-1.57-2.69-2.29-4.07
					c-2.06-3.93-0.92-8.22,2.85-10.49c2.89-1.74,5.83-3.4,8.81-5c3.96-2.13,8.27-0.88,10.62,2.99c0.67,1.1,1.29,2.23,2,3.45
					c5.57-3.23,11.01-6.38,16.45-9.52c2.87-1.65,5.74-3.3,8.62-4.93c7.44-4.23,15.02-5.05,23.16-1.81
					c9.1,3.62,18.41,6.66,28.05,8.66c6.71,1.39,10.64,8.81,8.54,15.35c-0.17,0.54-0.38,1.07-0.78,2.17
					c1.81-0.88,3.22-1.47,4.52-2.23c10.06-5.83,20.1-11.68,30.13-17.53c3.94-2.3,8.02-4.25,12.55-5.13
					c7.66-1.49,14.04,1.98,15.89,8.68c1.59,5.78-0.63,11.48-5.75,14.64c-18.4,11.35-36.83,22.66-55.22,34.03
					c-6.44,3.98-13.21,5.03-20.53,3.03c-11.77-3.22-23.61-6.14-35.31-9.57C389.08,291.14,386.46,291.86,383.76,294.15z
					 M380.57,288.56c1.72-0.99,3.24-1.76,4.64-2.69c1.65-1.1,3.26-1.2,5.17-0.68c12.9,3.51,25.84,6.87,38.73,10.42
					c5.73,1.58,10.99,0.99,16.06-2.14c18.45-11.41,36.94-22.76,55.4-34.15c2.73-1.68,3.75-4.52,2.86-7.77
					c-0.74-2.7-2.96-4.23-6.27-4.18c-1.09,0.01-2.27,0.03-3.26,0.42c-3.3,1.31-6.69,2.52-9.77,4.25
					c-10.01,5.65-19.93,11.47-29.82,17.33c-5.51,3.27-11.38,4.51-17.59,3.11c-8.03-1.8-16-3.91-23.98-5.96
					c-2.02-0.52-2.94-2.24-2.4-4.01c0.51-1.65,2.16-2.5,4.08-1.98c4.2,1.14,8.36,2.39,12.57,3.47c2.82,0.73,5.67,1.5,8.55,1.79
					c3.26,0.33,5.42-1.52,5.89-4.42c0.47-2.92-1.31-5.7-4.29-6.55c-1.37-0.39-2.82-0.52-4.18-0.95c-8.96-2.85-17.93-5.69-26.85-8.66
					c-3.68-1.22-7.28-1.33-10.86,0.04c-2.05,0.78-4.08,1.7-5.99,2.79c-7.62,4.33-15.2,8.75-22.78,13.14
					c-0.32,0.19-0.6,0.44-0.99,0.73C370.52,270.81,375.5,279.6,380.57,288.56z M381.04,302.44c-0.33-0.73-0.52-1.22-0.77-1.66
					c-8.33-14.73-16.68-29.46-24.99-44.2c-0.83-1.47-1.76-1.7-3.16-0.87c-2.4,1.42-4.81,2.83-7.28,4.12
					c-1.59,0.84-1.76,1.81-0.89,3.3c2.38,4.09,4.69,8.23,7.02,12.35c5.94,10.5,11.88,20.99,17.83,31.49c1.13,2,1.49,2.09,3.51,0.96
					c2.38-1.33,4.76-2.64,7.11-4.03C380.04,303.53,380.51,302.93,381.04,302.44z"/>
				<path d="M413.01,198.07c-0.94-0.42-1.82-0.8-2.7-1.2c-5.38-2.44-8.14-7.42-7.34-13.28c0.07-0.51,0.12-1.04,0.24-1.54
					c1.1-4.56-0.08-8.6-2.29-12.65c-3.83-7.01-3.02-11.91,3.03-17.13c3.83-3.3,5.8-7.21,6.74-12.06c1.33-6.9,5.46-10.23,12.44-10.62
					c1.62-0.09,3.28-0.04,4.85-0.36c1.61-0.33,3.26-0.83,4.69-1.62c1.64-0.9,3.06-2.19,4.57-3.32c5.03-3.75,10.42-3.8,15.47-0.09
					c8.2,6.02,5.13,4.66,15.26,5.42c5.15,0.39,9.42,3.62,10.96,8.55c0.29,0.93,0.61,1.87,0.71,2.83c0.5,4.67,2.74,8.26,6.42,11.11
					c2.18,1.69,3.88,3.81,4.72,6.53c1,3.21,0.87,6.4-0.85,9.23c-3,4.94-3.99,9.96-2.96,15.77c1.11,6.23-1.26,9.77-7.68,13.62
					c0.21,0.55,0.42,1.14,0.67,1.71c2.74,6.38,5.48,12.76,8.24,19.13c0.62,1.44,0.99,2.86-0.13,4.21c-1.08,1.29-2.52,1.16-3.96,0.87
					c-3.24-0.66-6.5-1.27-9.72-2.05c-1.42-0.34-2.23-0.11-2.99,1.22c-1.71,2.99-3.61,5.86-5.4,8.8c-0.76,1.24-1.72,2.16-3.28,2.04
					c-1.55-0.11-2.36-1.14-2.94-2.49c-2.44-5.73-4.88-11.47-7.43-17.15c-0.36-0.8-1.28-1.61-2.12-1.9
					c-2.43-0.84-4.93-1.94-7.55-0.83c-0.78,0.33-1.65,1.01-2,1.75c-3.55,7.44-7.02,14.92-10.48,22.39c-0.65,1.4-1.33,2.72-3.1,2.85
					c-1.87,0.14-2.76-1.09-3.57-2.51c-1.7-2.99-3.48-5.94-5.16-8.94c-0.53-0.95-1.1-1.21-2.18-1c-3.57,0.69-7.14,1.39-10.75,1.82
					c-1.12,0.13-2.84-0.27-3.39-1.05c-0.62-0.88-0.66-2.67-0.19-3.73c3.49-7.82,7.16-15.56,10.78-23.33
					C412.75,198.77,412.85,198.47,413.01,198.07z M409.08,185.35c0.01,2.62,1.05,4.81,3.49,5.6c7.12,2.3,12.27,6.69,15.8,13.27
					c1.24,2.3,3.64,3.04,6.27,2.34c1.63-0.43,3.26-0.87,4.85-1.43c3.7-1.29,7.37-1.29,11.07,0.02c1.22,0.43,2.48,0.76,3.72,1.13
					c3.73,1.11,5.88,0.34,8-2.87c0.9-1.35,1.79-2.71,2.66-4.08c1.73-2.71,4.04-4.72,7.03-5.94c1.38-0.56,2.74-1.18,4.11-1.76
					c4.14-1.76,5.49-3.77,4.6-8.23c-1.21-6.04-0.43-11.6,2.89-16.8c0.28-0.44,0.5-0.91,0.72-1.38c1.35-2.89,1.15-5.45-1.35-7.4
					c-5.7-4.44-9.01-10.1-9.87-17.23c-0.01-0.06-0.02-0.13-0.04-0.19c-0.8-2.81-2.69-4.34-5.63-4.54c-2.33-0.16-4.67-0.28-7-0.48
					c-4.35-0.36-7.43-3.18-10.7-5.62c-3.72-2.78-5.83-2.94-9.4,0.07c-4.56,3.84-9.55,6.18-15.61,5.91
					c-0.84-0.04-1.69,0.05-2.53,0.15c-2.41,0.27-4.11,1.52-4.95,3.82c-0.31,0.85-0.58,1.74-0.7,2.63
					c-0.79,5.89-3.51,10.66-8.24,14.28c-0.41,0.31-0.77,0.69-1.15,1.06c-2.36,2.29-2.8,4.65-1.39,7.59
					c0.62,1.29,1.23,2.58,1.94,3.82c2.1,3.65,2.66,7.53,1.93,11.65C409.35,182.27,409.25,183.84,409.08,185.35z M418.64,200.97
					c-3.05,6.55-5.92,12.73-8.92,19.19c2.94-0.51,5.49-0.95,8.03-1.41c2.49-0.45,3.33-0.08,4.63,2.14c1.33,2.27,2.65,4.54,4.14,7.08
					c2.36-5.08,4.59-9.87,6.93-14.92C425.2,213.1,422.51,206.64,418.64,200.97z M463.44,223.33c1.45-2.32,2.75-4.41,4.05-6.5
					c1.68-2.7,2.37-3,5.42-2.36c2.39,0.5,4.79,0.97,7.53,1.52c-2.42-5.63-4.7-10.9-7.25-16.82c-1.51,1.92-2.86,3.36-3.89,5.01
					c-2.52,4.01-5.11,7.86-10.39,8.7C460.47,216.46,461.91,219.78,463.44,223.33z"/>
				<path class="st1" d="M380.57,288.56c-5.07-8.96-10.05-17.75-15.08-26.63c0.39-0.29,0.67-0.54,0.99-0.73
					c7.59-4.39,15.16-8.81,22.78-13.14c1.91-1.08,3.94-2,5.99-2.79c3.59-1.37,7.19-1.27,10.86-0.04c8.92,2.97,17.89,5.81,26.85,8.66
					c1.36,0.43,2.8,0.56,4.18,0.95c2.98,0.85,4.76,3.62,4.29,6.55c-0.47,2.9-2.63,4.75-5.89,4.42c-2.88-0.29-5.73-1.06-8.55-1.79
					c-4.21-1.08-8.38-2.33-12.57-3.47c-1.92-0.52-3.57,0.33-4.08,1.98c-0.54,1.77,0.38,3.49,2.4,4.01
					c7.98,2.05,15.94,4.16,23.98,5.96c6.21,1.39,12.08,0.15,17.59-3.11c9.89-5.86,19.81-11.67,29.82-17.33
					c3.08-1.74,6.47-2.95,9.77-4.25c0.99-0.39,2.17-0.4,3.26-0.42c3.3-0.04,5.53,1.48,6.27,4.18c0.89,3.25-0.14,6.09-2.86,7.77
					c-18.47,11.38-36.95,22.73-55.4,34.15c-5.07,3.14-10.34,3.72-16.06,2.14c-12.89-3.55-25.83-6.91-38.73-10.42
					c-1.9-0.52-3.52-0.43-5.17,0.68C383.81,286.8,382.29,287.57,380.57,288.56z"/>
				<path class="st1" d="M381.04,302.44c-0.53,0.49-1.01,1.09-1.62,1.46c-2.34,1.39-4.73,2.7-7.11,4.03
					c-2.02,1.13-2.38,1.04-3.51-0.96c-5.95-10.49-11.89-20.99-17.83-31.49c-2.33-4.12-4.64-8.25-7.02-12.35
					c-0.86-1.49-0.7-2.46,0.89-3.3c2.47-1.3,4.88-2.71,7.28-4.12c1.41-0.83,2.33-0.6,3.16,0.87c8.31,14.75,16.66,29.47,24.99,44.2
					C380.53,301.22,380.71,301.71,381.04,302.44z M352.13,267.37c1.72-0.01,3.1-1.36,3.12-3.06c0.02-1.74-1.5-3.24-3.23-3.18
					c-1.69,0.06-3.04,1.5-3.01,3.19C349.04,266.04,350.41,267.37,352.13,267.37z"/>
				<path class="st1" d="M409.08,185.35c0.17-1.52,0.27-3.08,0.54-4.61c0.73-4.12,0.17-8-1.93-11.65c-0.71-1.24-1.32-2.53-1.94-3.82
					c-1.41-2.94-0.96-5.3,1.39-7.59c0.37-0.36,0.74-0.74,1.15-1.06c4.73-3.61,7.45-8.38,8.24-14.28c0.12-0.89,0.38-1.78,0.7-2.63
					c0.84-2.29,2.54-3.54,4.95-3.82c0.84-0.09,1.69-0.19,2.53-0.15c6.06,0.27,11.05-2.07,15.61-5.91c3.57-3.01,5.68-2.85,9.4-0.07
					c3.27,2.44,6.35,5.25,10.7,5.62c2.33,0.2,4.67,0.32,7,0.48c2.94,0.2,4.83,1.73,5.63,4.54c0.02,0.06,0.03,0.13,0.04,0.19
					c0.87,7.13,4.18,12.79,9.87,17.23c2.5,1.95,2.7,4.51,1.35,7.4c-0.22,0.47-0.44,0.95-0.72,1.38c-3.32,5.2-4.1,10.75-2.89,16.8
					c0.89,4.46-0.45,6.47-4.6,8.23c-1.37,0.58-2.73,1.2-4.11,1.76c-2.99,1.22-5.3,3.22-7.03,5.94c-0.87,1.37-1.77,2.72-2.66,4.08
					c-2.12,3.21-4.28,3.98-8,2.87c-1.24-0.37-2.5-0.7-3.72-1.13c-3.69-1.31-7.37-1.31-11.07-0.02c-1.59,0.56-3.22,0.99-4.85,1.43
					c-2.63,0.7-5.04-0.04-6.27-2.34c-3.53-6.58-8.69-10.97-15.8-13.27C410.13,190.16,409.09,187.97,409.08,185.35z M473.62,167.31
					c0.05-15.71-12.71-28.6-28.4-28.67c-15.84-0.08-28.72,12.66-28.78,28.47c-0.06,15.83,12.7,28.74,28.48,28.8
					C460.69,195.96,473.57,183.13,473.62,167.31z"/>
				<path class="st1" d="M418.64,200.97c3.87,5.67,6.56,12.13,14.82,12.08c-2.35,5.05-4.57,9.84-6.93,14.92
					c-1.48-2.54-2.8-4.81-4.14-7.08c-1.31-2.22-2.15-2.59-4.63-2.14c-2.55,0.46-5.09,0.89-8.03,1.41
					C412.72,213.7,415.59,207.52,418.64,200.97z"/>
				<path class="st1" d="M463.44,223.33c-1.54-3.55-2.97-6.87-4.52-10.45c5.28-0.84,7.88-4.69,10.39-8.7
					c1.03-1.64,2.38-3.08,3.89-5.01c2.55,5.92,4.82,11.19,7.25,16.82c-2.75-0.55-5.14-1.02-7.53-1.52
					c-3.05-0.64-3.74-0.34-5.42,2.36C466.2,218.92,464.89,221,463.44,223.33z"/>
				<path d="M352.13,267.37c-1.73,0.01-3.09-1.33-3.12-3.04c-0.03-1.7,1.32-3.13,3.01-3.19c1.73-0.06,3.26,1.43,3.23,3.18
					C355.23,266.01,353.85,267.36,352.13,267.37z"/>
				<path d="M473.62,167.31c-0.05,15.81-12.93,28.64-28.7,28.59c-15.77-0.06-28.53-12.96-28.48-28.8
					c0.06-15.8,12.94-28.54,28.78-28.47C460.91,138.72,473.67,151.6,473.62,167.31z M467.36,167.28
					c0.02-12.28-9.99-22.34-22.27-22.38c-12.29-0.04-22.33,9.93-22.39,22.24c-0.06,12.39,10,22.52,22.34,22.5
					C457.32,189.63,467.34,179.58,467.36,167.28z"/>
				<path class="st1" d="M467.36,167.28c-0.02,12.3-10.04,22.34-22.31,22.36c-12.34,0.02-22.41-10.11-22.34-22.5
					c0.06-12.31,10.1-22.29,22.39-22.24C457.37,144.94,467.38,155,467.36,167.28z M439.24,171.92c-1.87-1.96-3.62-3.86-5.44-5.69
					c-1.52-1.53-3.35-1.64-4.66-0.41c-1.38,1.3-1.31,3.19,0.25,4.79c2.27,2.32,4.58,4.6,6.88,6.89c2.32,2.31,3.52,2.36,5.95,0.16
					c6.02-5.44,12.02-10.89,18.03-16.35c0.29-0.26,0.58-0.52,0.83-0.82c1.08-1.31,1.07-3.12-0.08-4.24
					c-1.24-1.21-2.65-1.27-4.07-0.33c-0.54,0.36-0.99,0.84-1.47,1.27C450.13,162.04,444.8,166.88,439.24,171.92z"/>
				<path d="M439.24,171.92c5.56-5.04,10.89-9.88,16.23-14.71c0.48-0.44,0.93-0.92,1.47-1.27c1.42-0.94,2.83-0.88,4.07,0.33
					c1.15,1.11,1.16,2.93,0.08,4.24c-0.25,0.3-0.54,0.56-0.83,0.82c-6.01,5.45-12.01,10.91-18.03,16.35
					c-2.44,2.2-3.63,2.15-5.95-0.16c-2.3-2.29-4.61-4.57-6.88-6.89c-1.57-1.6-1.64-3.49-0.25-4.79c1.31-1.23,3.14-1.12,4.66,0.41
					C435.62,168.06,437.37,169.97,439.24,171.92z"/>
			</g>
		</g>
	</g>
</g>
</svg>
