<?xml version="1.0" encoding="utf-8"?>
<!-- Generator: Adobe Illustrator 27.0.0, SVG Export Plug-In . SVG Version: 6.00 Build 0)  -->
<svg version="1.1" id="Layer_1" xmlns="http://www.w3.org/2000/svg" xmlns:xlink="http://www.w3.org/1999/xlink" x="0px" y="0px"
	 viewBox="0 0 841.89 595.28" style="enable-background:new 0 0 841.89 595.28;" xml:space="preserve">
<style type="text/css">
	.st0{opacity:0.5;fill:#FF9200;}
	.st1{fill:#FFFFFF;}
	.st2{fill:#FFFFFF;stroke:#000000;stroke-width:4.557;stroke-miterlimit:10;}
	.st3{fill:url(#SVGID_1_);}
	.st4{fill:url(#SVGID_00000076600502709503869990000006540847608948289436_);}
	.st5{fill:#ADD962;}
	.st6{fill:url(#SVGID_00000114792951196470979660000016305024619859942563_);}
	.st7{fill:url(#SVGID_00000129190132277126992250000015520754617758942603_);}
	.st8{fill:#4B77A2;}
	.st9{fill:url(#SVGID_00000005266728231706377500000005315014277585941392_);}
	.st10{fill:url(#SVGID_00000109018099108963413500000009769969858516641958_);}
	.st11{fill:url(#SVGID_00000077305613198653822960000008503982604189266082_);}
	.st12{fill:url(#SVGID_00000109029441552615085620000000397686646705513898_);}
	.st13{fill:#07085F;}
	.st14{fill:url(#SVGID_00000012456887224247301520000017146857486698251678_);}
	.st15{fill:url(#SVGID_00000047049643234784545220000009410978804153526430_);}
	.st16{fill:#E8FDFB;}
	.st17{fill:#333333;}
	.st18{fill:url(#SVGID_00000008871799972999116670000003859623673875641480_);}
	.st19{fill:url(#SVGID_00000066516649848309677300000005786609520173865889_);}
	.st20{fill:url(#SVGID_00000119117678932744784590000002831050097885380777_);}
	.st21{fill:url(#SVGID_00000180334743440600388410000001752341585530527400_);}
	.st22{fill:url(#SVGID_00000183958505328709522900000009307511986269833406_);}
	.st23{fill:url(#SVGID_00000152262099187775036920000000516742262679130806_);}
	.st24{fill:url(#SVGID_00000052809586539161839630000007917109966818058428_);}
	.st25{fill:url(#SVGID_00000034776652131728279920000016410905708407762109_);}
	.st26{fill:#FFB01C;}
	.st27{fill:url(#SVGID_00000134241703762516594070000012119943730831174077_);}
	.st28{fill:url(#SVGID_00000086675485801894625800000000764138428086794412_);}
	.st29{fill:url(#SVGID_00000121280234951603955640000005527552785467717561_);}
	.st30{fill:url(#SVGID_00000038414345253936584670000006919268755062826930_);}
	.st31{fill:#D6EDA8;}
	.st32{fill:url(#SVGID_00000152226460423845082620000012199402476463571639_);}
	.st33{fill:url(#SVGID_00000155839594425526108520000008244340345178001554_);}
	.st34{fill:url(#SVGID_00000160182943554126018310000013275678788127414432_);}
	.st35{fill:url(#SVGID_00000093885681635638703360000004038216628058610075_);}
	.st36{fill:url(#SVGID_00000146490982956085434090000006548874355714323637_);}
	.st37{fill:url(#SVGID_00000173848509930932327750000010370086501922097826_);}
	.st38{fill:url(#SVGID_00000105394289937925559250000016268181494672157349_);}
	.st39{fill:url(#SVGID_00000179614555112376963150000003451119864176913065_);}
	.st40{fill:url(#SVGID_00000129913754919082913680000005002089004011999884_);}
	.st41{fill:url(#SVGID_00000062191858456991931760000010830380046420906396_);}
	.st42{fill:url(#SVGID_00000013160640584252972820000012960683531802812058_);}
	.st43{opacity:0.3;fill:#D4EEF7;}
	.st44{fill:#D4EEF7;}
	.st45{opacity:0.2;}
	.st46{fill:#FF9200;}
	.st47{fill:none;stroke:#1E333A;stroke-width:0.7089;stroke-miterlimit:10;}
	.st48{fill:#1E333A;}
	.st49{fill:#FFFFFF;stroke:#1E333A;stroke-width:0.7089;stroke-linecap:round;stroke-linejoin:round;stroke-miterlimit:10;}
	.st50{fill:#1E333A;stroke:#1E333A;stroke-width:0.7089;stroke-linecap:round;stroke-linejoin:round;stroke-miterlimit:10;}
	.st51{fill:none;stroke:#1E333A;stroke-width:0.7089;stroke-linecap:round;stroke-linejoin:round;stroke-miterlimit:10;}
	.st52{fill:none;stroke:#1E333A;stroke-width:2.1267;stroke-linecap:round;stroke-linejoin:round;stroke-miterlimit:10;}
	.st53{fill:#8A8A8A;}
	.st54{fill:#39EA9D;stroke:#1E333A;stroke-width:0.7089;stroke-linecap:round;stroke-linejoin:round;stroke-miterlimit:10;}
	.st55{fill:#FF9200;stroke:#000000;stroke-width:0.6055;stroke-miterlimit:10;}
	.st56{fill:#E5E5E5;stroke:#1E333A;stroke-width:0.7089;stroke-linecap:round;stroke-linejoin:round;stroke-miterlimit:10;}
	.st57{fill:#23CECA;}
	.st58{fill:#9BEBE2;}
	.st59{fill:none;stroke:#D1E2E8;stroke-width:2.4843;stroke-linecap:round;stroke-linejoin:round;}
	.st60{fill:none;stroke:#D1E2E8;stroke-width:2.4843;stroke-linecap:round;stroke-linejoin:round;stroke-dasharray:8.1577,8.1577;}
	.st61{fill:#FF3500;}
	.st62{fill:#FFA790;}
	.st63{fill:#FF696F;}
	.st64{fill:#002E3F;}
	.st65{fill:#005E70;}
	.st66{fill:#004253;}
	.st67{fill:#005060;}
	.st68{fill:#005E6E;}
	.st69{fill:#E0DFF0;}
	.st70{fill:#B6B6E6;}
	.st71{fill:#00B29D;}
	.st72{fill:#006570;}
	.st73{fill:#007881;}
	.st74{fill:#DC3D07;}
	.st75{fill:#FF7F77;}
	.st76{fill:#414042;}
	.st77{fill:#008790;}
	.st78{fill:#FFF000;}
	.st79{fill:#009B8D;}
	.st80{fill:#BBBDBF;}
	.st81{fill:#005D6B;}
	.st82{fill:#B8FFF6;}
	.st83{fill:#00AEB1;}
	.st84{fill:#00C4C2;}
	.st85{fill:#241F20;}
	.st86{fill:#003E43;}
</style>
<g>
	<g>
		<g>
			<g>
				<g>
					<path class="st57" d="M555.36,289.88c-0.35,0-0.65,0.18-0.83,0.44l-1.93-0.17c-0.06-0.37-0.2-0.71-0.39-1.01l0.8-0.7
						c0.05,0.01,0.11,0.02,0.16,0.02c0.44,0,0.8-0.36,0.8-0.8c0-0.44-0.36-0.8-0.8-0.8c-0.44,0-0.8,0.36-0.8,0.8
						c0,0.02,0,0.03,0,0.05l-0.82,0.71c-0.31-0.24-0.67-0.42-1.06-0.52l-0.03-2.06c0.35-0.16,0.6-0.51,0.6-0.92
						c0-0.56-0.45-1.01-1.01-1.01c-0.56,0-1.01,0.45-1.01,1.01c0,0.34,0.17,0.65,0.44,0.83l0.03,2.07c-0.36,0.04-0.71,0.14-1.02,0.3
						l-0.56-0.64c0.01-0.05,0.02-0.11,0.02-0.16c0-0.56-0.45-1.01-1.01-1.01c-0.56,0-1.01,0.45-1.01,1.01s0.45,1.01,1.01,1.01
						c0.13,0,0.26-0.03,0.37-0.07l0.4,0.46c-0.26,0.27-0.46,0.6-0.59,0.96l-1.76-0.16c-0.18-0.34-0.54-0.58-0.96-0.58
						c-0.6,0-1.09,0.49-1.09,1.09c0,0.6,0.49,1.09,1.09,1.09c0.43,0,0.81-0.26,0.98-0.62l1.56,0.14c0,0.01,0,0.02,0,0.03
						c0,0.52,0.14,1.01,0.39,1.43l-0.53,0.47c-0.11-0.04-0.22-0.06-0.34-0.06c-0.56,0-1.01,0.45-1.01,1.01s0.45,1.01,1.01,1.01
						c0.56,0,1.01-0.45,1.01-1.01c0-0.07-0.01-0.14-0.02-0.21l0.52-0.45c0.45,0.38,1.01,0.61,1.63,0.66l0.02,1.66
						c-0.3,0.17-0.51,0.5-0.51,0.87c0,0.56,0.45,1.01,1.01,1.01c0.56,0,1.01-0.45,1.01-1.01c0-0.38-0.22-0.71-0.53-0.88l-0.03-1.75
						c0.32-0.09,0.61-0.23,0.87-0.42l0.74,0.84c-0.01,0.05-0.02,0.1-0.02,0.16c0,0.44,0.36,0.8,0.8,0.8s0.8-0.36,0.8-0.8
						s-0.36-0.8-0.8-0.8c-0.02,0-0.03,0-0.05,0l-0.79-0.9c0.23-0.33,0.39-0.72,0.47-1.14l1.84,0.17c0.16,0.35,0.51,0.6,0.92,0.6
						c0.56,0,1.01-0.45,1.01-1.01S555.92,289.88,555.36,289.88z"/>
					<path class="st57" d="M253.53,164.34c-0.35,0-0.65,0.18-0.83,0.44l-1.93-0.17c-0.06-0.37-0.2-0.71-0.39-1.01l0.8-0.7
						c0.05,0.01,0.11,0.02,0.16,0.02c0.44,0,0.8-0.36,0.8-0.8c0-0.44-0.36-0.8-0.8-0.8c-0.44,0-0.8,0.36-0.8,0.8
						c0,0.02,0,0.03,0,0.05l-0.82,0.71c-0.31-0.24-0.67-0.42-1.06-0.52l-0.03-2.06c0.35-0.16,0.6-0.51,0.6-0.92
						c0-0.56-0.45-1.01-1.01-1.01c-0.56,0-1.01,0.45-1.01,1.01c0,0.34,0.17,0.65,0.44,0.83l0.03,2.07c-0.36,0.04-0.71,0.14-1.02,0.3
						l-0.56-0.64c0.01-0.05,0.02-0.11,0.02-0.16c0-0.56-0.45-1.01-1.01-1.01s-1.01,0.45-1.01,1.01s0.45,1.01,1.01,1.01
						c0.13,0,0.26-0.03,0.37-0.07l0.4,0.46c-0.26,0.27-0.46,0.6-0.59,0.96l-1.76-0.16c-0.18-0.34-0.54-0.58-0.96-0.58
						c-0.6,0-1.09,0.49-1.09,1.09s0.49,1.09,1.09,1.09c0.43,0,0.81-0.26,0.98-0.62l1.56,0.14c0,0.01,0,0.02,0,0.03
						c0,0.52,0.14,1.01,0.39,1.43l-0.53,0.47c-0.11-0.04-0.22-0.06-0.34-0.06c-0.56,0-1.01,0.45-1.01,1.01s0.45,1.01,1.01,1.01
						s1.01-0.45,1.01-1.01c0-0.07-0.01-0.14-0.02-0.21l0.52-0.45c0.45,0.38,1.01,0.61,1.63,0.66l0.02,1.66
						c-0.3,0.17-0.51,0.5-0.51,0.87c0,0.56,0.45,1.01,1.01,1.01c0.56,0,1.01-0.45,1.01-1.01c0-0.38-0.22-0.71-0.53-0.88l-0.03-1.75
						c0.32-0.09,0.61-0.23,0.87-0.42l0.74,0.84c-0.01,0.05-0.02,0.1-0.02,0.16c0,0.44,0.36,0.8,0.8,0.8s0.8-0.36,0.8-0.8
						s-0.36-0.8-0.8-0.8c-0.02,0-0.03,0-0.05,0l-0.79-0.9c0.23-0.33,0.39-0.72,0.47-1.14l1.84,0.17c0.16,0.35,0.51,0.6,0.92,0.6
						c0.56,0,1.01-0.45,1.01-1.01S254.09,164.34,253.53,164.34z"/>
					<path class="st57" d="M179.39,271.56c-0.35,0-0.65,0.18-0.83,0.44l-1.93-0.17c-0.06-0.37-0.2-0.71-0.39-1.01l0.8-0.7
						c0.05,0.01,0.11,0.02,0.16,0.02c0.44,0,0.8-0.36,0.8-0.8c0-0.44-0.36-0.8-0.8-0.8c-0.44,0-0.8,0.36-0.8,0.8
						c0,0.02,0,0.03,0,0.05l-0.82,0.71c-0.31-0.24-0.67-0.42-1.06-0.52l-0.03-2.06c0.35-0.16,0.6-0.51,0.6-0.92
						c0-0.56-0.45-1.01-1.01-1.01c-0.56,0-1.01,0.45-1.01,1.01c0,0.35,0.17,0.65,0.44,0.83l0.03,2.07c-0.36,0.04-0.71,0.14-1.02,0.3
						l-0.56-0.64c0.01-0.05,0.02-0.11,0.02-0.16c0-0.56-0.45-1.01-1.01-1.01s-1.01,0.45-1.01,1.01c0,0.56,0.45,1.01,1.01,1.01
						c0.13,0,0.26-0.03,0.37-0.07l0.4,0.46c-0.26,0.27-0.46,0.6-0.59,0.96l-1.76-0.16c-0.18-0.34-0.54-0.58-0.96-0.58
						c-0.6,0-1.09,0.49-1.09,1.09c0,0.6,0.49,1.09,1.09,1.09c0.43,0,0.81-0.26,0.98-0.62l1.56,0.14c0,0.01,0,0.02,0,0.03
						c0,0.52,0.14,1.01,0.39,1.43l-0.53,0.47c-0.11-0.04-0.22-0.06-0.34-0.06c-0.56,0-1.01,0.45-1.01,1.01s0.45,1.01,1.01,1.01
						c0.56,0,1.01-0.45,1.01-1.01c0-0.07-0.01-0.14-0.02-0.21l0.52-0.45c0.45,0.38,1.01,0.61,1.63,0.66l0.02,1.66
						c-0.3,0.17-0.51,0.5-0.51,0.87c0,0.56,0.45,1.01,1.01,1.01c0.56,0,1.01-0.45,1.01-1.01c0-0.38-0.22-0.71-0.53-0.88l-0.03-1.75
						c0.32-0.09,0.61-0.23,0.87-0.42l0.74,0.84c-0.01,0.05-0.02,0.1-0.02,0.16c0,0.44,0.36,0.8,0.8,0.8s0.8-0.36,0.8-0.8
						c0-0.44-0.36-0.8-0.8-0.8c-0.02,0-0.03,0-0.05,0l-0.79-0.9c0.23-0.33,0.39-0.72,0.47-1.14l1.84,0.17
						c0.16,0.35,0.51,0.6,0.92,0.6c0.56,0,1.01-0.45,1.01-1.01S179.94,271.56,179.39,271.56z"/>
					<path class="st57" d="M454.52,164.6c-0.66,0-1.25,0.34-1.59,0.85l-3.67-0.33c-0.12-0.7-0.38-1.35-0.74-1.93l1.53-1.33
						c0.1,0.02,0.2,0.03,0.31,0.03c0.84,0,1.53-0.68,1.53-1.52c0-0.84-0.68-1.53-1.53-1.53c-0.84,0-1.52,0.68-1.52,1.53
						c0,0.03,0.01,0.06,0.01,0.09l-1.56,1.36c-0.59-0.46-1.27-0.8-2.02-0.99l-0.06-3.92c0.67-0.3,1.15-0.97,1.15-1.75
						c0-1.06-0.86-1.92-1.92-1.92c-1.06,0-1.92,0.86-1.92,1.92c0,0.66,0.33,1.24,0.84,1.58l0.06,3.95
						c-0.69,0.07-1.34,0.27-1.94,0.57l-1.07-1.22c0.02-0.1,0.03-0.2,0.03-0.31c0-1.06-0.86-1.92-1.92-1.92
						c-1.06,0-1.92,0.86-1.92,1.92s0.86,1.92,1.92,1.92c0.25,0,0.49-0.05,0.71-0.14l0.76,0.87c-0.49,0.52-0.88,1.14-1.13,1.82
						l-3.36-0.3c-0.35-0.65-1.03-1.1-1.82-1.1c-1.15,0-2.08,0.93-2.08,2.08c0,1.15,0.93,2.08,2.08,2.08c0.83,0,1.53-0.49,1.87-1.19
						l2.98,0.27c0,0.02,0,0.03,0,0.05c0,1,0.27,1.93,0.75,2.73l-1.02,0.89c-0.2-0.07-0.42-0.12-0.65-0.12
						c-1.06,0-1.92,0.86-1.92,1.92s0.86,1.92,1.92,1.92c1.06,0,1.92-0.86,1.92-1.92c0-0.14-0.02-0.27-0.04-0.4l0.99-0.86
						c0.85,0.72,1.93,1.17,3.11,1.25l0.05,3.17c-0.58,0.33-0.97,0.95-0.97,1.66c0,1.06,0.86,1.92,1.92,1.92s1.92-0.86,1.92-1.92
						c0-0.73-0.41-1.36-1.02-1.68l-0.05-3.33c0.6-0.17,1.16-0.44,1.66-0.8l1.4,1.61c-0.02,0.1-0.03,0.2-0.03,0.3
						c0,0.84,0.68,1.52,1.52,1.52c0.84,0,1.52-0.68,1.52-1.52c0-0.84-0.68-1.52-1.52-1.52c-0.03,0-0.06,0.01-0.09,0.01l-1.5-1.72
						c0.44-0.64,0.75-1.38,0.89-2.17l3.5,0.32c0.3,0.67,0.97,1.15,1.75,1.15c1.06,0,1.92-0.86,1.92-1.92
						C456.44,165.46,455.58,164.6,454.52,164.6z"/>
					<path class="st57" d="M566.56,222.47c-0.64,0-1.21,0.33-1.54,0.82l-3.56-0.32c-0.12-0.68-0.37-1.31-0.72-1.87l1.48-1.29
						c0.1,0.02,0.19,0.03,0.3,0.03c0.82,0,1.48-0.66,1.48-1.48c0-0.82-0.66-1.48-1.48-1.48c-0.82,0-1.48,0.66-1.48,1.48
						c0,0.03,0.01,0.06,0.01,0.09l-1.51,1.32c-0.57-0.45-1.23-0.78-1.96-0.96l-0.06-3.8c0.65-0.29,1.11-0.94,1.11-1.7
						c0-1.03-0.83-1.86-1.86-1.86s-1.86,0.83-1.86,1.86c0,0.64,0.32,1.2,0.81,1.53l0.06,3.83c-0.67,0.06-1.3,0.26-1.88,0.55
						l-1.04-1.19c0.02-0.1,0.03-0.2,0.03-0.3c0-1.03-0.83-1.86-1.86-1.86c-1.03,0-1.86,0.83-1.86,1.86s0.83,1.86,1.86,1.86
						c0.24,0,0.48-0.05,0.69-0.14l0.74,0.84c-0.47,0.51-0.85,1.1-1.1,1.77l-3.26-0.29c-0.34-0.63-1-1.07-1.77-1.07
						c-1.11,0-2.01,0.9-2.01,2.01c0,1.11,0.9,2.01,2.01,2.01c0.8,0,1.49-0.47,1.81-1.15l2.89,0.26c0,0.02,0,0.03,0,0.05
						c0,0.97,0.27,1.87,0.72,2.65l-0.99,0.86c-0.2-0.07-0.41-0.12-0.63-0.12c-1.03,0-1.86,0.83-1.86,1.86
						c0,1.03,0.83,1.86,1.86,1.86s1.86-0.83,1.86-1.86c0-0.13-0.02-0.27-0.04-0.39l0.96-0.84c0.83,0.69,1.87,1.13,3.02,1.21
						l0.04,3.07c-0.56,0.32-0.94,0.92-0.94,1.61c0,1.03,0.83,1.86,1.86,1.86s1.86-0.83,1.86-1.86c0-0.71-0.4-1.32-0.99-1.63
						l-0.05-3.23c0.58-0.17,1.13-0.43,1.61-0.77l1.36,1.56c-0.02,0.1-0.03,0.19-0.03,0.29c0,0.82,0.66,1.48,1.48,1.48
						c0.82,0,1.48-0.66,1.48-1.48s-0.66-1.48-1.48-1.48c-0.03,0-0.06,0.01-0.09,0.01l-1.45-1.66c0.43-0.62,0.73-1.33,0.86-2.11
						l3.4,0.31c0.29,0.65,0.94,1.11,1.7,1.11c1.03,0,1.86-0.83,1.86-1.86S567.58,222.47,566.56,222.47z"/>
					<path class="st57" d="M687.47,202.88c-0.45,0-0.84,0.23-1.07,0.57l-2.48-0.22c-0.08-0.47-0.26-0.91-0.5-1.3l1.03-0.9
						c0.07,0.01,0.14,0.02,0.21,0.02c0.57,0,1.03-0.46,1.03-1.03c0-0.57-0.46-1.03-1.03-1.03s-1.03,0.46-1.03,1.03
						c0,0.02,0,0.04,0.01,0.06l-1.05,0.92c-0.4-0.31-0.86-0.54-1.36-0.67l-0.04-2.65c0.46-0.2,0.77-0.65,0.77-1.18
						c0-0.72-0.58-1.29-1.29-1.29s-1.29,0.58-1.29,1.29c0,0.44,0.22,0.83,0.56,1.07l0.04,2.67c-0.47,0.05-0.91,0.18-1.31,0.38
						l-0.72-0.83c0.01-0.07,0.02-0.14,0.02-0.21c0-0.72-0.58-1.29-1.29-1.29s-1.29,0.58-1.29,1.29s0.58,1.29,1.29,1.29
						c0.17,0,0.33-0.03,0.48-0.09l0.51,0.59c-0.33,0.35-0.59,0.77-0.76,1.23l-2.27-0.2c-0.24-0.44-0.7-0.75-1.23-0.75
						c-0.77,0-1.4,0.63-1.4,1.4c0,0.77,0.63,1.4,1.4,1.4c0.56,0,1.04-0.33,1.26-0.8l2.01,0.18c0,0.01,0,0.02,0,0.04
						c0,0.67,0.19,1.3,0.5,1.84l-0.69,0.6c-0.14-0.05-0.29-0.08-0.44-0.08c-0.72,0-1.29,0.58-1.29,1.29s0.58,1.29,1.29,1.29
						s1.29-0.58,1.29-1.29c0-0.09-0.01-0.18-0.03-0.27l0.67-0.58c0.58,0.48,1.3,0.79,2.1,0.84l0.03,2.14
						c-0.39,0.22-0.65,0.64-0.65,1.12c0,0.72,0.58,1.29,1.29,1.29s1.29-0.58,1.29-1.29c0-0.49-0.28-0.92-0.69-1.14l-0.03-2.25
						c0.41-0.12,0.78-0.3,1.12-0.54l0.95,1.09c-0.01,0.07-0.02,0.13-0.02,0.2c0,0.57,0.46,1.03,1.03,1.03s1.03-0.46,1.03-1.03
						c0-0.57-0.46-1.03-1.03-1.03c-0.02,0-0.04,0.01-0.06,0.01l-1.01-1.16c0.3-0.43,0.51-0.93,0.6-1.47l2.37,0.21
						c0.2,0.46,0.65,0.77,1.18,0.77c0.72,0,1.29-0.58,1.29-1.29C688.77,203.46,688.19,202.88,687.47,202.88z"/>
					<path class="st57" d="M346.92,186.4c-0.64,0-1.21,0.33-1.54,0.82l-3.56-0.32c-0.12-0.68-0.37-1.31-0.72-1.87l1.48-1.29
						c0.1,0.02,0.19,0.03,0.3,0.03c0.82,0,1.48-0.66,1.48-1.48c0-0.82-0.66-1.48-1.48-1.48c-0.82,0-1.48,0.66-1.48,1.48
						c0,0.03,0.01,0.06,0.01,0.09l-1.51,1.32c-0.57-0.45-1.23-0.78-1.96-0.96l-0.06-3.8c0.65-0.29,1.11-0.94,1.11-1.7
						c0-1.03-0.83-1.86-1.86-1.86c-1.03,0-1.86,0.83-1.86,1.86c0,0.64,0.32,1.2,0.81,1.53l0.06,3.83c-0.67,0.06-1.3,0.26-1.88,0.55
						l-1.04-1.19c0.02-0.1,0.03-0.2,0.03-0.3c0-1.03-0.83-1.86-1.86-1.86s-1.86,0.83-1.86,1.86c0,1.03,0.83,1.86,1.86,1.86
						c0.24,0,0.48-0.05,0.69-0.14l0.74,0.84c-0.47,0.51-0.85,1.1-1.1,1.77l-3.26-0.29c-0.34-0.63-1-1.07-1.77-1.07
						c-1.11,0-2.01,0.9-2.01,2.01c0,1.11,0.9,2.01,2.01,2.01c0.8,0,1.49-0.47,1.81-1.15l2.89,0.26c0,0.02,0,0.03,0,0.05
						c0,0.97,0.27,1.87,0.72,2.65l-0.99,0.86c-0.2-0.07-0.41-0.12-0.63-0.12c-1.03,0-1.86,0.83-1.86,1.86s0.83,1.86,1.86,1.86
						c1.03,0,1.86-0.83,1.86-1.86c0-0.13-0.02-0.27-0.04-0.39l0.96-0.84c0.83,0.69,1.87,1.13,3.02,1.21l0.04,3.07
						c-0.56,0.32-0.94,0.92-0.94,1.61c0,1.03,0.83,1.86,1.86,1.86s1.86-0.83,1.86-1.86c0-0.71-0.4-1.32-0.99-1.63l-0.05-3.23
						c0.58-0.17,1.13-0.43,1.61-0.77l1.36,1.56c-0.02,0.1-0.03,0.19-0.03,0.29c0,0.82,0.66,1.48,1.48,1.48
						c0.82,0,1.48-0.66,1.48-1.48c0-0.82-0.66-1.48-1.48-1.48c-0.03,0-0.06,0.01-0.09,0.01l-1.45-1.66
						c0.43-0.62,0.73-1.33,0.86-2.11l3.4,0.31c0.29,0.65,0.94,1.11,1.7,1.11c1.03,0,1.86-0.83,1.86-1.86
						C348.78,187.23,347.95,186.4,346.92,186.4z"/>
					<path class="st57" d="M673.46,264.71c-0.35,0-0.65,0.18-0.83,0.44l-1.93-0.17c-0.06-0.37-0.2-0.71-0.39-1.01l0.8-0.7
						c0.05,0.01,0.11,0.02,0.16,0.02c0.44,0,0.8-0.36,0.8-0.8s-0.36-0.8-0.8-0.8s-0.8,0.36-0.8,0.8c0,0.02,0,0.03,0,0.05l-0.82,0.71
						c-0.31-0.24-0.67-0.42-1.06-0.52l-0.03-2.06c0.35-0.16,0.6-0.51,0.6-0.92c0-0.56-0.45-1.01-1.01-1.01
						c-0.56,0-1.01,0.45-1.01,1.01c0,0.34,0.17,0.65,0.44,0.83l0.03,2.07c-0.36,0.04-0.71,0.14-1.02,0.3l-0.56-0.64
						c0.01-0.05,0.02-0.11,0.02-0.16c0-0.56-0.45-1.01-1.01-1.01c-0.56,0-1.01,0.45-1.01,1.01s0.45,1.01,1.01,1.01
						c0.13,0,0.26-0.03,0.37-0.07l0.4,0.46c-0.26,0.27-0.46,0.6-0.59,0.96l-1.77-0.16c-0.18-0.34-0.54-0.58-0.96-0.58
						c-0.6,0-1.09,0.49-1.09,1.09c0,0.6,0.49,1.09,1.09,1.09c0.43,0,0.81-0.26,0.98-0.62l1.56,0.14c0,0.01,0,0.02,0,0.03
						c0,0.52,0.14,1.01,0.39,1.43l-0.53,0.47c-0.11-0.04-0.22-0.06-0.34-0.06c-0.56,0-1.01,0.45-1.01,1.01
						c0,0.56,0.45,1.01,1.01,1.01c0.56,0,1.01-0.45,1.01-1.01c0-0.07-0.01-0.14-0.02-0.21l0.52-0.45c0.45,0.38,1.01,0.61,1.63,0.66
						l0.02,1.66c-0.3,0.17-0.51,0.5-0.51,0.87c0,0.56,0.45,1.01,1.01,1.01c0.56,0,1.01-0.45,1.01-1.01c0-0.38-0.22-0.71-0.53-0.88
						l-0.03-1.75c0.32-0.09,0.61-0.23,0.87-0.42l0.74,0.84c-0.01,0.05-0.02,0.1-0.02,0.16c0,0.44,0.36,0.8,0.8,0.8s0.8-0.36,0.8-0.8
						c0-0.44-0.36-0.8-0.8-0.8c-0.02,0-0.03,0-0.05,0l-0.79-0.9c0.23-0.33,0.39-0.72,0.47-1.14l1.84,0.17
						c0.16,0.35,0.51,0.6,0.92,0.6c0.56,0,1.01-0.45,1.01-1.01S674.02,264.71,673.46,264.71z"/>
				</g>
				<g>
					<circle class="st58" cx="516.55" cy="174.15" r="4.44"/>
					<circle class="st58" cx="657.03" cy="131.15" r="4.44"/>
					<circle class="st58" cx="344.86" cy="129.86" r="4.44"/>
					<circle class="st58" cx="220.93" cy="135.59" r="4.44"/>
					<circle class="st58" cx="678.95" cy="334.52" r="4.44"/>
					<circle class="st58" cx="172.51" cy="192.82" r="4.44"/>
				</g>
			</g>
			<g>
				<g>
					<g>
						<line class="st59" x1="214.49" y1="219.5" x2="218.19" y2="217.64"/>
						<polyline class="st60" points="225.47,213.96 419,116.37 601.21,158.69 						"/>
						<line class="st59" x1="605.19" y1="159.61" x2="609.22" y2="160.55"/>
					</g>
				</g>
				<g>
					<g>
						<path class="st61" d="M431.77,108.91c0.01-0.24,0.01-0.38,0.01-0.43c0-0.01,0-0.01,0-0.02c0-6.29-5.72-11.38-12.78-11.38
							s-12.78,5.1-12.78,11.38c0,0-0.01,0.16,0.01,0.48c0.03,0.62,0.12,1.22,0.25,1.82c1.43,6.88,6.3,14.45,9.53,18.9
							c1.43,1.97,4.54,1.98,5.98,0.02c6.83-9.28,8.9-15.72,9.52-18.91C431.66,110.17,431.74,109.55,431.77,108.91z"/>
						<circle class="st1" cx="419" cy="108.55" r="7.82"/>
					</g>
					<g>
						<path class="st61" d="M632.13,158.04c0.02-0.31,0.02-0.51,0.02-0.57c0-0.01,0-0.02,0-0.03c0-8.32-7.57-15.06-16.92-15.06
							c-9.34,0-16.92,6.74-16.92,15.06c0,0-0.01,0.22,0.02,0.64c0.04,0.82,0.16,1.62,0.33,2.4c1.89,9.11,8.34,19.13,12.61,25.02
							c1.89,2.61,6.01,2.63,7.92,0.03c9.05-12.28,11.78-20.8,12.6-25.03C631.98,159.7,632.1,158.88,632.13,158.04z"/>
						<circle class="st1" cx="615.23" cy="157.56" r="10.35"/>
					</g>
					<g>
						<path class="st61" d="M217.78,219.74c0.01-0.16,0.01-0.25,0.01-0.29c0,0,0-0.01,0-0.01c0-4.17-3.8-7.55-8.48-7.55
							c-4.68,0-8.48,3.38-8.48,7.55c0,0,0,0.11,0.01,0.32c0.02,0.41,0.08,0.81,0.16,1.2c0.95,4.57,4.18,9.59,6.32,12.54
							c0.95,1.31,3.01,1.32,3.97,0.02c4.53-6.16,5.9-10.43,6.32-12.55C217.7,220.58,217.76,220.16,217.78,219.74z"/>
						<circle class="st1" cx="209.31" cy="219.5" r="5.19"/>
					</g>
				</g>
			</g>
		</g>
		<g>
			<g>
				<g>
					<rect x="607.31" y="266.69" class="st62" width="9.35" height="11.44"/>
					<path class="st63" d="M616.66,267.86l-9.35-0.77v5.65C607.31,272.74,613.41,273,616.66,267.86z"/>
				</g>
				<g>
					<g>
						<g>
							<g>
								<g>
									<path class="st62" d="M622.39,255.6c0.04-0.11,1.27-2.08,2.56-0.68s1.75,8.09-3.52,7.52
										C621.43,262.44,620.93,260.05,622.39,255.6z"/>
									<path class="st62" d="M602.18,255.57c-0.04-0.11-1.27-2.08-2.56-0.68c-1.3,1.4-1.75,8.09,3.52,7.52
										C603.13,262.41,603.64,260.02,602.18,255.57z"/>
									<path class="st62" d="M612.21,238.83c-6.91,0.29-11.39,6.91-11.39,10.84c0,3.93,0.54,5.08,1.31,7.71
										c0.78,2.63,0.34,2.82,0.78,4.72s1.22,3.26,3.75,5.06c1.2,0.85,2.51,1.38,3.56,1.69c1.3,0.39,2.69,0.39,3.99,0
										c1.05-0.31,2.36-0.83,3.56-1.69c2.53-1.8,3.31-3.17,3.75-5.06s0-2.09,0.78-4.72c0.78-2.63,1.31-3.78,1.31-7.71
										C623.6,245.75,619.12,239.13,612.21,238.83z"/>
								</g>
								<g>
									<path class="st63" d="M622.63,257.95c0,0,0.5-1.71,1.23-1.34c0.73,0.38,0.27,2.86-0.67,3.1c-0.94,0.24-0.26-0.26-0.24-1.04
										S622.63,257.95,622.63,257.95z"/>
									<path class="st63" d="M601.78,257.64c0,0-0.5-1.71-1.23-1.34c-0.73,0.38-0.27,2.86,0.67,3.1c0.94,0.24,0.26-0.26,0.24-1.04
										C601.45,257.58,601.78,257.64,601.78,257.64z"/>
								</g>
							</g>
							<g>
								<g>
									<path class="st64" d="M608.28,253.41c0,0-1.24-0.02-2.38,0.34c-1.14,0.37-1.5-0.24-1.23-0.98
										c0.27-0.74,2.27-1.02,3.42-0.65C609.25,252.48,609.36,253.34,608.28,253.41z"/>
									<g>
										<g>
											<path class="st64" d="M609.97,256.23c0,0-1.06-1.3-2.68-1.39c-1.62-0.09-2.41,0.38-2.81,0.24
												c-0.4-0.14-0.32,0.63,0.66,0.75C606.12,255.95,607.82,255.34,609.97,256.23z"/>
										</g>
										<ellipse class="st64" cx="607.18" cy="256.08" rx="0.86" ry="0.99"/>
									</g>
								</g>
								<g>
									<path class="st64" d="M615.98,253.32c0,0,1.24-0.02,2.38,0.34s1.5-0.24,1.23-0.98c-0.27-0.74-2.27-1.02-3.42-0.65
										S614.9,253.25,615.98,253.32z"/>
									<g>
										<g>
											<path class="st64" d="M614.29,256.14c0,0,1.06-1.3,2.68-1.39c1.62-0.09,2.41,0.38,2.81,0.24
												c0.4-0.14,0.32,0.63-0.66,0.75C618.14,255.86,616.44,255.25,614.29,256.14z"/>
										</g>
										<ellipse class="st64" cx="617.08" cy="255.99" rx="0.86" ry="0.99"/>
									</g>
								</g>
							</g>
						</g>
						<g>
							<path class="st64" d="M601.65,262.33c0.44,1.06,1.13,1.97,2.5,2.8c0.08,0.05,0.16,0.05,0.24,0.04
								c-0.74-0.88-1.14-1.75-1.4-2.76C602.48,262.45,602.05,262.41,601.65,262.33z"/>
							<path class="st64" d="M623.77,248.9c-0.1-2.6-0.52-6.71-2.24-7.42c-1.77-0.73-6.36-2.84-8.68-3.34
								c-0.05-0.04-0.1-0.06-0.15-0.08c-0.12-0.03-0.3-0.03-0.49-0.02c-0.19-0.01-0.37-0.01-0.49,0.02
								c-0.05,0.01-0.1,0.04-0.15,0.08c-2.32,0.5-6.91,2.61-8.68,3.34c-1.79,0.74-2.12,6.06-2.27,8.48l-0.35,0.08
								c0,0,0.04,2.07,0.15,4.36c0.31-0.05,0.6,0.05,0.86,0.21c0.25,1,0.89,3.28,1.49,3.52c0.78,0.31,0.72-1.89,0.44-3.87
								c-0.28-1.98-0.51-5.73,1.4-6.23c1.68-0.44,4.45,1.22,7.59,0.98c3.14,0.24,5.91-1.42,7.59-0.98c1.91,0.5,1.67,4.25,1.4,6.23
								c-0.28,1.98-0.33,4.18,0.44,3.87c0.57-0.23,1.18-2.3,1.45-3.36c0.2-0.16,0.44-0.29,0.7-0.33c0.25-2.84,0.42-5.52,0.42-5.52
								L623.77,248.9z"/>
							<path class="st64" d="M621.43,262.44c0,0,0-0.01,0-0.01c-0.31,1.2-0.82,2.2-1.88,3.27c1.87-0.96,2.51-1.98,2.93-3.25
								C622.15,262.47,621.81,262.48,621.43,262.44z"/>
						</g>
					</g>
					<g>
						<g>
							<path d="M600.17,249.94c0.05-0.48-0.85-11.26,10.01-14.24c1.44-0.39,2.96-0.39,4.4,0.03c3.69,1.08,10.58,4.31,9.69,13.25
								L600.17,249.94z"/>
							<path class="st65" d="M601.6,247.82c-0.03,0-0.07,0-0.11-0.01c-0.34-0.06-0.57-0.38-0.51-0.72c0.03-0.19,0.83-4.75,3.91-7.66
								c3.09-2.93,6.93-3.2,7.09-3.21c0.33-0.03,0.64,0.24,0.66,0.58c0.02,0.34-0.24,0.64-0.58,0.66c-0.03,0-3.57,0.26-6.32,2.87
								c-2.77,2.62-3.53,6.93-3.54,6.97C602.16,247.6,601.89,247.82,601.6,247.82z"/>
						</g>
						<g>
							<g>
								<path class="st66" d="M600.17,250c0,0,3.15,2.25,11.02,2.23s13.07-3.24,13.07-3.24l0.03-0.36
									c-1.56-0.58-6.8-1.65-10.87-1.89c-4.71-0.28-11.16,1.18-13.26,2.86V250z"/>
								<path class="st67" d="M600.17,249.6c0,0,3.2,1.93,11.08,1.91c7.87-0.02,13.05-2.88,13.05-2.88s-5.84-2.32-10.81-2.61
									C608.5,245.72,601.87,247.84,600.17,249.6z"/>
							</g>
							<path class="st68" d="M602.4,250.08c-0.24,0-0.47-0.14-0.57-0.38c-0.13-0.32,0.02-0.68,0.33-0.81
								c0.24-0.1,5.8-2.39,10.06-2.31c4.21,0.09,9.35,1.66,9.56,1.72c0.33,0.1,0.51,0.45,0.41,0.78c-0.1,0.33-0.45,0.51-0.78,0.41
								c-0.05-0.02-5.2-1.58-9.23-1.67c-0.08,0-0.15,0-0.23,0c-3.97,0-9.27,2.2-9.32,2.22C602.57,250.07,602.48,250.08,602.4,250.08
								z"/>
						</g>
					</g>
					<g>
						<g>
							<g>
								<path class="st69" d="M603.94,260.37c0,0-0.46,3.6,1.11,5.5c1.07,1.29,3.85,3.08,7.16,3.28s7.41-2.8,8.09-4.12
									c0.68-1.32,0.65-4.91,0.12-5.25c-0.53-0.34-6.82-3.19-8.21-3.22S605.21,259.21,603.94,260.37z"/>
							</g>
							<path class="st70" d="M620.67,260.31c-0.03,1.04-0.19,2.14-0.51,2.75c-0.68,1.32-4.78,4.31-8.09,4.12
								c-3.31-0.19-6.09-1.98-7.16-3.28c-0.58-0.7-0.88-1.63-1.03-2.53c-0.02,1.21,0.12,3.23,1.17,4.5
								c1.07,1.29,3.85,3.08,7.16,3.28s7.41-2.8,8.09-4.12C620.85,263.97,620.93,261.44,620.67,260.31z"/>
						</g>
						<path class="st69" d="M622.5,256.72c0,0-1.4,2.78-2,3.57c-0.34,0.45,0-0.18,0-0.18l-1.25-0.77
							C619.25,259.35,621.14,257.62,622.5,256.72z"/>
						<path class="st69" d="M602.13,257.39c0.45,0.68,1.83,3.18,1.9,3.4c0.18,0.53-0.02-0.18-0.02-0.18l1.14-0.93
							c0,0-0.91-0.79-1.95-1.51L602.13,257.39z"/>
					</g>
				</g>
			</g>
			<g>
				<g>
					<g>
						<path class="st66" d="M633.08,409.13c-1.06-10.78-2.44-29.13-2.1-39.6c0.41-12.69-4.92-36.97-6.18-42.53
							c-16.32,4.25-29.5,0.59-32.52-0.39c-0.28,2.63-0.45,5.1-0.54,7.19c0,0,0,0,0,0c0,0-2.2,24.8,0.33,39.05
							c1.72,9.64,2.94,26.18,3.51,37.14c-0.01,0.05-0.01,0.1-0.01,0.16c0.09,2.86-0.85,13.7-0.01,14.3c0.84,0.61,3.1-0.06,5.28-0.41
							c0.76-0.12,1.55-2.36,2.27-5.23c2.45-7.43,5.04-24.88,4.35-27.29c-0.88-3.05-1.92-14.06-1.87-15.33
							c0.02-0.53,0.55-6.82,1.2-14.41v0l3.41-15.1l6.3,20.34c0.88,4,1.49,6.81,1.55,7.16c0.23,1.26,0.78,12.29,0.35,15.41
							c-0.22,1.59,1.84,9.33,4.27,16.51h0c0,0,4.71,17.38,6.92,17.46c2.2,0.08,4.53,0.46,5.29-0.25
							C635.64,422.59,633.36,412.01,633.08,409.13z"/>
						<path class="st65" d="M591.87,343.1c-0.3,0-0.56-0.22-0.61-0.52c-0.06-0.34,0.17-0.66,0.51-0.71
							c1.34-0.22,5.02-1.04,6.03-2.15c0.91-1,1.8-6.26,2.15-9.34c0.04-0.34,0.34-0.58,0.69-0.55c0.34,0.04,0.59,0.35,0.55,0.69
							c-0.1,0.86-1,8.41-2.47,10.03c-1.48,1.63-6.21,2.45-6.75,2.54C591.94,343.1,591.91,343.1,591.87,343.1z"/>
						<path class="st65" d="M627.23,343.1c-0.05,0-0.1-0.01-0.16-0.02c-0.2-0.05-4.92-1.27-6.27-1.99
							c-1.38-0.74-2.23-6.95-2.62-10.58c-0.04-0.34,0.21-0.65,0.55-0.68c0.34-0.03,0.65,0.21,0.68,0.55
							c0.44,4.21,1.33,9.09,1.98,9.63c0.99,0.52,4.65,1.53,5.97,1.87c0.33,0.09,0.53,0.42,0.45,0.76
							C627.76,342.91,627.51,343.1,627.23,343.1z"/>
					</g>
					<g>
						<g>
							<path class="st64" d="M595.21,422.96c0,0-3.48,5.41-5.38,6.25c-1.86,0.81-4.74,1.1-5.92,1.71c-1.18,0.62-1.68,3.44-1.68,3.44
								s19.15-0.47,20.21-0.79c1.07-0.32-0.64-10.88-0.7-10.76C601.69,422.93,596.81,423.73,595.21,422.96z"/>
							<path class="st66" d="M584.75,432.32c-0.3,0-0.57-0.22-0.61-0.53c-0.05-0.34,0.18-0.66,0.52-0.71
								c3.07-0.47,6.58-1.24,7.14-1.72c0.69-0.59,2.51-3.51,3.49-5.22c0.17-0.3,0.55-0.4,0.85-0.23c0.3,0.17,0.4,0.55,0.23,0.85
								c-0.27,0.47-2.67,4.62-3.76,5.55c-1.11,0.95-6.66,1.84-7.76,2C584.82,432.32,584.79,432.32,584.75,432.32z"/>
						</g>
						<g>
							<path class="st64" d="M635.07,423.02c0,0,3.6,5.33,5.52,6.12c1.87,0.77,4.77,0.99,5.96,1.58c1.19,0.59,1.76,3.4,1.76,3.4
								s-19.15-0.03-20.23-0.32c-1.07-0.29,0.39-10.89,0.45-10.77C628.59,423.14,633.49,423.83,635.07,423.02z"/>
							<path class="st66" d="M645.9,432.32c-0.03,0-0.06,0-0.09-0.01c-1.1-0.17-6.65-1.06-7.76-2c-1.09-0.92-3.49-5.08-3.76-5.55
								c-0.17-0.3-0.07-0.68,0.23-0.85c0.3-0.17,0.68-0.07,0.85,0.23c1.02,1.77,2.79,4.62,3.49,5.22c0.56,0.48,4.08,1.25,7.14,1.72
								c0.34,0.05,0.57,0.37,0.52,0.71C646.47,432.1,646.2,432.32,645.9,432.32z"/>
						</g>
					</g>
				</g>
				<g>
					<g>
						<g>
							<g>
								<path class="st71" d="M616.51,273.04c0.01-0.02,0.01-0.03,0.01-0.03L616.51,273.04z"/>
								<path class="st61" d="M632.67,276.1c-1.21-0.54-3.26-1.29-6.28-1.83c-5.28-0.94-9.34-2.82-9.34-2.82s-0.06,1.31-0.69,2.12
									c0,0-0.47,0.89-4.52,0.85c-5.06-0.05-5.09-3.87-5.09-3.87s-4.01,1.04-9.34,1.6c-5.33,0.56-7.78,1.97-7.78,1.97l-0.02,0.47
									c0,0,3.81,30.52,2.02,51.77c0,0,14.97,5.63,33.99,0.4c0,0,0.45-26.09,2.56-34.79c1.57-6.48,3.41-12.16,4.24-14.63
									C632.41,277.36,632.79,276.06,632.67,276.1z"/>
							</g>
						</g>
						<path d="M611.51,275.27c-5.39,0-5.7-4.24-5.7-4.28c-0.03-0.46,0.32-0.85,0.78-0.87c0.45-0.02,0.85,0.32,0.87,0.77
							c0.02,0.3,0.32,2.85,4.35,2.72c4.21-0.14,4.83-2.35,4.85-2.44c0.11-0.44,0.56-0.71,1-0.61c0.44,0.1,0.72,0.53,0.62,0.98
							c-0.03,0.14-0.84,3.55-6.41,3.73C611.74,275.27,611.63,275.27,611.51,275.27z"/>
					</g>
					<g>
						<g>
							<g>
								
									<rect x="594.11" y="283.44" transform="matrix(0.9994 0.0359 -0.0359 0.9994 11.0702 -21.6939)" class="st72" width="31.6" height="28.24"/>
								<polygon class="st73" points="626.21,284.02 619.99,281.5 599.52,280.73 594.63,282.88 								"/>
							</g>
							<g>
								
									<rect x="612.94" y="286.97" transform="matrix(0.9994 0.0359 -0.0359 0.9994 11.084 -21.9494)" class="st73" width="8.2" height="21.69"/>
								<path class="st73" d="M595.99,291.49c-0.34,0-0.62-0.28-0.62-0.62v-5.9c0-0.17,0.07-0.33,0.19-0.44
									c0.12-0.12,0.28-0.17,0.45-0.18l27.25,0.62c0.34,0.01,0.61,0.29,0.61,0.64c-0.01,0.34-0.33,0.6-0.63,0.61l-26.61-0.61v5.26
									C596.61,291.21,596.33,291.49,595.99,291.49z"/>
								<path class="st73" d="M623.17,310.9c-0.01,0-0.01,0-0.02,0l-27.89-0.93c-0.34-0.01-0.61-0.3-0.6-0.64
									c0.01-0.34,0.26-0.61,0.64-0.6l27.89,0.93c0.34,0.01,0.61,0.3,0.6,0.64C623.78,310.63,623.5,310.9,623.17,310.9z"/>
							</g>
						</g>
						<g>
							<g>
								<path class="st74" d="M589.46,274.2c0,0-3.29,2.04-5.16,7.84c-1.87,5.8-6.43,19.87-6.26,23.96c0.17,4.09,3.93,4,6.74,3.1
									s6.51-13.31,7.63-16.96S592.15,275.45,589.46,274.2z"/>
								<path class="st74" d="M592.09,294.61c0,0-11.52,3.52-13.71,8.13c-0.99,2.08-1.57,10.73,2.22,10.56
									c3.79-0.17,10.79-8.97,12.97-11.34C595.76,299.59,594.43,294.56,592.09,294.61z"/>
								<g>
									<path class="st75" d="M596.6,293.33l0.21-0.03c0,0-0.26,0.57-1.65,0.86c-1.38,0.29-3.1,1.39-3.1,1.39l5.3-0.42
										c0,0-0.23,0.69-0.75,0.79c-0.52,0.1-4.18,1.32-4.18,1.32l-0.72,1.12l5.5-1.28c0,0-0.39,0.79-1.25,1.06
										s-3.11,1.23-3.47,1.27s4.4-0.05,4.4-0.05s-0.17,0.54-0.92,0.75c-0.74,0.21-1.73,0.81-2.02,1.16
										c-0.3,0.35-2.46-1.86-2.46-1.86l-0.03-0.91l0.14-2.26l0.5-1.64C592.09,294.61,594.64,293.2,596.6,293.33z"/>
									<path class="st62" d="M591.47,295.78c0,0,0.49-2.15,0.72-2.47c0.23-0.32,2.12-0.76,2.54-0.9c0.42-0.14,2.2-0.04,2.16,0.43
										s-0.09,0.74-0.75,0.78s-2.4,0.55-2.63,0.71c-0.23,0.16-1.36,1.02-1.36,1.02s1.01-0.64,1.12-0.76s1.73-0.36,2.24-0.54
										c0.51-0.18,1.25-0.37,1.52-0.17s0.6,1.08,0.17,1.41c-0.43,0.34-2.76,0.86-3.34,0.96c-0.58,0.11-1.88,0.71-2.01,0.99
										c-0.13,0.28-0.26,0.89-0.26,0.89s0.25-0.77,0.43-0.96c0.18-0.19,1.83-0.64,2.21-0.82c0.21-0.11,1.86-0.31,2.58-0.49
										c0.62-0.16,0.8,0.86,0.2,1.46c-0.36,0.36-1.36,0.53-2.52,0.72s-1.86,1.15-1.86,1.15s0.51-0.18,0.78-0.24
										c0.26-0.06,1.02-0.61,1.54-0.68s1.07-0.17,1.44-0.15c0.72,0.05,0.8,1.1,0.3,1.47c-0.35,0.26-1.98,0.49-2.41,1.11
										c-0.43,0.62-0.57,1.29-0.7,1.27c-0.14-0.03-1.25-0.36-1.42-0.62c-0.17-0.26-0.12-1.09-0.29-1.21
										c-0.17-0.12-0.94-0.78-0.88-1.08c0.06-0.3,0.3-1.37,0.3-1.63C591.27,297.17,590.84,296.38,591.47,295.78z"/>
								</g>
							</g>
							<path d="M579.85,302.52c-0.16,0-0.31-0.06-0.43-0.18c-0.25-0.24-0.25-0.63-0.01-0.88c0.13-0.14,3.39-3.44,10.59-6.04
								c0.32-0.12,0.68,0.05,0.79,0.37s-0.05,0.68-0.37,0.79c-6.91,2.5-10.09,5.71-10.13,5.74
								C580.17,302.46,580.01,302.52,579.85,302.52z"/>
						</g>
						<g>
							<g>
								<path class="st74" d="M632.61,276.08c0,0,3.14,2.27,4.59,8.19c1.45,5.92,4.99,20.28,4.53,24.35
									c-0.46,4.07-4.21,3.71-6.95,2.61c-2.74-1.1-5.54-13.75-6.4-17.46C627.53,290.04,629.84,277.14,632.61,276.08z"/>
								<path class="st74" d="M628.52,296.25c0,0,11.24,4.33,13.09,9.09c0.83,2.15,0.8,10.81-2.97,10.37
									c-3.77-0.44-10.12-9.72-12.12-12.24S626.19,296.03,628.52,296.25z"/>
								<g>
									<path class="st75" d="M624.12,294.65l-0.2-0.05c0,0,0.22,0.59,1.58,0.98c1.36,0.39,3,1.6,3,1.6l-5.26-0.8
										c0,0,0.18,0.71,0.69,0.84c0.51,0.14,4.07,1.61,4.07,1.61l0.63,1.17l-5.39-1.67c0,0,0.34,0.81,1.17,1.15
										s3.02,1.45,3.37,1.52c0.36,0.07-4.39-0.36-4.39-0.36s0.13,0.55,0.86,0.81c0.73,0.26,1.66,0.93,1.93,1.31
										c0.27,0.37,2.59-1.68,2.59-1.68l0.1-0.9l0.02-2.26l-0.38-1.68C628.52,296.25,626.07,294.66,624.12,294.65z"/>
									<path class="st62" d="M629.06,297.46c0,0-0.33-2.18-0.54-2.52c-0.21-0.33-2.06-0.91-2.47-1.08
										c-0.41-0.17-2.19-0.2-2.19,0.28s0.04,0.75,0.69,0.83c0.65,0.09,2.35,0.72,2.57,0.9c0.22,0.18,1.28,1.12,1.28,1.12
										s-0.96-0.71-1.06-0.84c-0.1-0.13-1.7-0.48-2.2-0.7c-0.5-0.22-1.22-0.46-1.51-0.28c-0.28,0.17-0.68,1.03-0.27,1.4
										c0.41,0.37,2.69,1.05,3.26,1.2c0.57,0.15,1.83,0.84,1.93,1.13c0.11,0.29,0.19,0.91,0.19,0.91s-0.19-0.78-0.36-0.98
										c-0.16-0.2-1.78-0.77-2.15-0.98c-0.2-0.12-1.83-0.44-2.54-0.68c-0.61-0.21-0.86,0.8-0.31,1.44
										c0.34,0.39,1.32,0.63,2.46,0.9c1.15,0.27,1.77,1.28,1.77,1.28s-0.5-0.22-0.76-0.29c-0.26-0.08-0.98-0.68-1.49-0.79
										c-0.51-0.1-1.05-0.25-1.42-0.25c-0.72-0.01-0.87,1.04-0.4,1.44c0.33,0.28,1.94,0.63,2.33,1.28
										c0.39,0.65,0.47,1.33,0.61,1.31c0.14-0.02,1.27-0.27,1.46-0.52c0.19-0.25,0.2-1.08,0.38-1.19
										c0.18-0.11,0.99-0.71,0.96-1.01c-0.04-0.3-0.2-1.39-0.18-1.64S629.64,298.11,629.06,297.46z"/>
								</g>
							</g>
							<path d="M640.87,304.66c-0.2,0-0.4-0.1-0.52-0.28c-3.39-5.09-10-6.71-10.07-6.73c-0.33-0.08-0.54-0.41-0.46-0.75
								c0.08-0.33,0.42-0.54,0.75-0.46c0.29,0.07,7.16,1.75,10.82,7.25c0.19,0.29,0.11,0.67-0.17,0.86
								C641.11,304.63,640.99,304.66,640.87,304.66z"/>
						</g>
					</g>
				</g>
			</g>
		</g>
		<g>
			<g>
				<g>
					<g>
						<g>
							<circle class="st66" cx="474.63" cy="385.33" r="29"/>
						</g>
						<g>
							<circle class="st66" cx="473.5" cy="385.33" r="15.42"/>
						</g>
					</g>
				</g>
				<g>
					<g>
						<g>
							<circle class="st66" cx="290.57" cy="386.07" r="29"/>
						</g>
						<g>
							<circle class="st66" cx="289.45" cy="386.07" r="15.42"/>
						</g>
					</g>
				</g>
			</g>
			<g>
				<g>
					<g>
						<g>
							<rect x="421.81" y="359.38" class="st76" width="100.88" height="24.26"/>
							<path class="st77" d="M519.05,363.1h-94.56c-0.69,0-1.24-0.56-1.24-1.24c0-0.69,0.56-1.24,1.24-1.24h94.56
								c0.69,0,1.24,0.56,1.24,1.24C520.3,362.54,519.74,363.1,519.05,363.1z"/>
						</g>
						<g>
							<path class="st1" d="M425.62,369.07v7.04c0,2.07,1.43,3.74,3.2,3.74l0,0c1.77,0,3.2-1.67,3.2-3.74v-7.04
								c0-2.07-1.43-3.74-3.2-3.74l0,0C427.05,365.33,425.62,367.01,425.62,369.07z"/>
							<path class="st1" d="M512.65,369.07v7.04c0,2.07,1.43,3.74,3.2,3.74l0,0c1.77,0,3.2-1.67,3.2-3.74v-7.04
								c0-2.07-1.43-3.74-3.2-3.74l0,0C514.08,365.33,512.65,367.01,512.65,369.07z"/>
						</g>
					</g>
					<g>
						<g>
							<rect x="424.49" y="217.46" class="st74" width="94.56" height="141.93"/>
							<path class="st1" d="M515.85,306.59c-0.69,0-1.24-0.56-1.24-1.24v-84.19c0-0.69,0.56-1.24,1.24-1.24s1.24,0.56,1.24,1.24
								v84.19C517.09,306.04,516.53,306.59,515.85,306.59z"/>
							<path class="st1" d="M427.69,306.28c-0.69,0-1.24-0.56-1.24-1.24v-84.19c0-0.69,0.56-1.24,1.24-1.24
								c0.69,0,1.24,0.56,1.24,1.24v84.19C428.94,305.73,428.38,306.28,427.69,306.28z"/>
						</g>
						<g>
							<polyline class="st78" points="430.9,327.24 424.49,327.24 424.49,344.42 430.9,344.42 430.9,327.24 							"/>
							<polyline class="st78" points="519.05,327.24 512.65,327.24 512.65,344.42 519.05,344.42 519.05,327.24 							"/>
						</g>
					</g>
					<g>
						<g>
							<rect x="430.9" y="224.43" class="st71" width="81.75" height="126.46"/>
							<polygon class="st79" points="512.65,224.43 430.9,350.89 430.9,224.43 							"/>
						</g>
						<g>
							<rect x="430.9" y="266.73" class="st72" width="42.61" height="84.16"/>
							<rect x="456.94" y="305.35" class="st73" width="42.61" height="45.54"/>
						</g>
					</g>
				</g>
				<g>
					<g>
						<g>
							<g>
								<path class="st80" d="M286.98,229.99h-15.66c-4.93,0-9.52,2.93-12.18,7.77l-31.4,57.18l-38.5,21.92l-10.33,43.03h108.07
									V229.99z"/>
								<polygon class="st78" points="184.96,332.93 192.32,332.93 187.35,355.19 180.11,354.84 								"/>
								<path class="st81" d="M192.32,320.51c-0.43,0-0.84-0.22-1.07-0.61c-0.35-0.59-0.15-1.35,0.44-1.7l34.91-20.44
									c0.59-0.35,1.35-0.15,1.7,0.44c0.35,0.59,0.15,1.35-0.44,1.7l-34.91,20.44C192.75,320.45,192.53,320.51,192.32,320.51z"/>
							</g>
							<g>
								<path class="st82" d="M261.6,247.25l-28.04,50.35h53.43v-57.54l-15.6,0.7C267.41,240.94,263.76,243.36,261.6,247.25z"/>
								<path class="st1" d="M254.15,270.53c-0.39,0-0.78-0.19-1.02-0.54c-0.39-0.56-0.25-1.34,0.31-1.73l28.32-19.59
									c0.57-0.39,1.34-0.25,1.73,0.31c0.39,0.56,0.25,1.34-0.31,1.73l-28.32,19.59C254.64,270.46,254.39,270.53,254.15,270.53z"/>
								<path class="st1" d="M247.79,286.3c-0.39,0-0.78-0.19-1.02-0.54c-0.39-0.56-0.25-1.34,0.31-1.73l28.32-19.59
									c0.57-0.39,1.34-0.25,1.73,0.31c0.39,0.56,0.25,1.34-0.31,1.73l-28.32,19.59C248.28,286.23,248.03,286.3,247.79,286.3z"/>
								<path class="st1" d="M260.79,287.81c-0.39,0-0.78-0.19-1.02-0.54c-0.39-0.56-0.25-1.34,0.31-1.73l20.85-14.42
									c0.57-0.39,1.34-0.25,1.73,0.31c0.39,0.56,0.25,1.34-0.31,1.73l-20.85,14.42C261.28,287.73,261.04,287.81,260.79,287.81z"/>
							</g>
						</g>
						<g>
							<g>
								<g>
									<rect x="286.98" y="217.46" class="st61" width="137.51" height="141.93"/>
									<path class="st1" d="M292.3,296.19c-0.69,0-1.24-0.56-1.24-1.24v-73.22c0-0.68,0.55-1.24,1.23-1.24l63.44-0.57
										c0,0,0.01,0,0.01,0c0.68,0,1.24,0.55,1.24,1.23c0.01,0.69-0.55,1.25-1.23,1.25l-62.21,0.56v71.98
										C293.54,295.63,292.98,296.19,292.3,296.19z"/>
								</g>
								<polyline class="st78" points="424.49,327.24 418.08,327.24 418.08,344.42 424.49,344.42 424.49,327.24 								"/>
							</g>
							<g>
								<g>
									<g>
										<polygon class="st83" points="344.08,287.68 334.58,339.31 385.01,339.31 377.96,287.68 										"/>
										<path class="st83" d="M360.52,302.57c-7.11,0-12.89-7.97-12.89-17.78c0-9.8,5.78-17.78,12.89-17.78
											c7.11,0,12.89,7.97,12.89,17.78C373.41,294.59,367.63,302.57,360.52,302.57z M360.52,268.8c-6.12,0-11.1,7.17-11.1,15.99
											c0,8.82,4.98,15.99,11.1,15.99c6.12,0,11.1-7.17,11.1-15.99C371.62,275.98,366.64,268.8,360.52,268.8z"/>
									</g>
									<g>
										<polygon class="st84" points="324.04,300.38 316.88,339.31 354.91,339.31 349.59,300.38 										"/>
										<path class="st84" d="M336.44,311.6c-5.36,0-9.72-6.01-9.72-13.41c0-7.39,4.36-13.4,9.72-13.4c5.36,0,9.72,6.01,9.72,13.4
											C346.16,305.59,341.8,311.6,336.44,311.6z M336.44,286.14c-4.62,0-8.37,5.41-8.37,12.06c0,6.65,3.76,12.06,8.37,12.06
											c4.62,0,8.37-5.41,8.37-12.06C344.81,291.55,341.05,286.14,336.44,286.14z"/>
									</g>
								</g>
								<g>
									<path class="st1" d="M347.55,257.29c0.01-0.21,0.01-0.33,0.01-0.38c0-0.01,0-0.01,0-0.02c0-5.47-4.98-9.91-11.13-9.91
										c-6.14,0-11.13,4.44-11.13,9.91c0,0-0.01,0.14,0.01,0.42c0.03,0.54,0.11,1.06,0.22,1.58c1.25,5.99,5.48,12.58,8.29,16.46
										c1.24,1.72,3.95,1.73,5.21,0.02c5.95-8.08,7.75-13.68,8.29-16.46C347.45,258.38,347.53,257.84,347.55,257.29z"/>
									<circle class="st85" cx="336.44" cy="256.97" r="6.8"/>
								</g>
							</g>
						</g>
					</g>
					<g>
						<g>
							<rect x="174.4" y="359.38" class="st76" width="247.4" height="24.26"/>
							<path class="st77" d="M354.44,364.6h-99.15c-0.69,0-1.24-0.56-1.24-1.24s0.56-1.24,1.24-1.24h99.15
								c0.69,0,1.24,0.56,1.24,1.24S355.13,364.6,354.44,364.6z"/>
							<path class="st77" d="M201.86,363.38h-25.84c-0.69,0-1.24-0.56-1.24-1.24s0.56-1.24,1.24-1.24h25.84
								c0.69,0,1.24,0.56,1.24,1.24S202.55,363.38,201.86,363.38z"/>
						</g>
						<g>
							<path class="st86" d="M416.35,386.07c0,0-1.56-28.04-25.57-32.04c-24.01-4.01-37.08,16.42-37.67,32.04H416.35z"/>
							<g>
								<g>
									<circle class="st66" cx="385.11" cy="387.19" r="29"/>
									<circle class="st72" cx="383.98" cy="387.19" r="15.42"/>
								</g>
							</g>
						</g>
						<g>
							<path class="st86" d="M258.85,386.07c0,0-1.56-28.04-25.57-32.04c-24.01-4.01-37.08,16.42-37.67,32.04H258.85z"/>
							<g>
								<circle class="st66" cx="227.23" cy="386.07" r="29"/>
								<circle class="st72" cx="226.11" cy="386.07" r="15.42"/>
							</g>
						</g>
					</g>
				</g>
			</g>
		</g>
	</g>
</g>
</svg>
