<?xml version="1.0" encoding="utf-8"?>
<!-- Generator: Adobe Illustrator 27.0.0, SVG Export Plug-In . SVG Version: 6.00 Build 0)  -->
<svg version="1.1" id="Layer_1" xmlns="http://www.w3.org/2000/svg" xmlns:xlink="http://www.w3.org/1999/xlink" x="0px" y="0px"
	 viewBox="0 0 841.89 595.28" style="enable-background:new 0 0 841.89 595.28;" xml:space="preserve">
<style type="text/css">
	.st0{opacity:0.5;fill:#FF9200;}
	.st1{fill:#FFFFFF;}
	.st2{font-family:'Montserrat-Bold';}
	.st3{font-size:34.144px;}
	.st4{font-family:'Montserrat-Medium';}
	.st5{font-size:26.1189px;}
	.st6{fill:#FFFFFF;stroke:#000000;stroke-width:4.557;stroke-miterlimit:10;}
	.st7{fill:url(#SVGID_1_);}
	.st8{fill:url(#SVGID_00000168108173629263563680000001446070857304617867_);}
	.st9{fill:#ADD962;}
	.st10{fill:url(#SVGID_00000164510950604480554160000007058736608207453840_);}
	.st11{fill:url(#SVGID_00000098195659170082626250000012417517882709381525_);}
	.st12{fill:#4B77A2;}
	.st13{fill:url(#SVGID_00000039128585072410926070000010060287038314146952_);}
	.st14{fill:url(#SVGID_00000062893692676881186760000010698140194122802068_);}
	.st15{fill:url(#SVGID_00000030448103284354463700000007621438465094713780_);}
	.st16{fill:url(#SVGID_00000181052474684078460800000000401757595486628224_);}
	.st17{fill:#07085F;}
	.st18{fill:url(#SVGID_00000117672128580272074080000016829656222424816269_);}
	.st19{fill:url(#SVGID_00000050637381726359652390000015499545525306813574_);}
	.st20{fill:#E8FDFB;}
	.st21{fill:#333333;}
	.st22{fill:url(#SVGID_00000179618425191877513650000002044503926615597215_);}
	.st23{fill:url(#SVGID_00000125574080451103159430000012942627092080517035_);}
	.st24{fill:url(#SVGID_00000093888024740250696210000008729415525669491371_);}
	.st25{fill:url(#SVGID_00000119084905114379169810000006445359522189980575_);}
	.st26{fill:url(#SVGID_00000009562041977719909460000008160111379608446091_);}
	.st27{fill:url(#SVGID_00000137812957560013670380000013684245436881093264_);}
	.st28{fill:url(#SVGID_00000057869809679490224970000002849351080384776601_);}
	.st29{fill:url(#SVGID_00000105393741996498764380000012501478835251807157_);}
	.st30{fill:#FFB01C;}
	.st31{fill:url(#SVGID_00000132081364616042937180000001522487456307511479_);}
	.st32{fill:url(#SVGID_00000163773264240730424700000000758585732432020876_);}
	.st33{fill:url(#SVGID_00000061432138465105147220000015844053581739179170_);}
	.st34{fill:url(#SVGID_00000100356200533201789550000006856246389362495142_);}
	.st35{fill:#D6EDA8;}
	.st36{fill:url(#SVGID_00000079452035072298206110000006255782900404021649_);}
	.st37{fill:url(#SVGID_00000172408488333529794830000017689794372382892715_);}
	.st38{fill:url(#SVGID_00000088838510460699803770000014166428465919334549_);}
	.st39{fill:url(#SVGID_00000052088313783760990620000003466908966575537799_);}
	.st40{fill:url(#SVGID_00000111879693258453569850000005006746316147491242_);}
	.st41{fill:url(#SVGID_00000080183160917537249350000014723469030073722533_);}
	.st42{fill:url(#SVGID_00000065036822724679643410000011609887797500352914_);}
	.st43{fill:url(#SVGID_00000147191056509543306690000012487257998721565883_);}
	.st44{fill:url(#SVGID_00000085235612621382530630000006782855821611247252_);}
	.st45{fill:url(#SVGID_00000134226906163264312240000011610551163858375852_);}
	.st46{fill:url(#SVGID_00000155847199387895025600000012275219488551858588_);}
	.st47{opacity:0.3;fill:#D4EEF7;}
	.st48{fill:#D4EEF7;}
	.st49{opacity:0.2;}
	.st50{fill:#FF9200;}
	.st51{fill:none;stroke:#1E333A;stroke-width:0.7089;stroke-miterlimit:10;}
	.st52{fill:#1E333A;}
	.st53{fill:#FFFFFF;stroke:#1E333A;stroke-width:0.7089;stroke-linecap:round;stroke-linejoin:round;stroke-miterlimit:10;}
	.st54{fill:#1E333A;stroke:#1E333A;stroke-width:0.7089;stroke-linecap:round;stroke-linejoin:round;stroke-miterlimit:10;}
	.st55{fill:none;stroke:#1E333A;stroke-width:0.7089;stroke-linecap:round;stroke-linejoin:round;stroke-miterlimit:10;}
	.st56{fill:none;stroke:#1E333A;stroke-width:2.1267;stroke-linecap:round;stroke-linejoin:round;stroke-miterlimit:10;}
	.st57{fill:#8A8A8A;}
	.st58{fill:#39EA9D;stroke:#1E333A;stroke-width:0.7089;stroke-linecap:round;stroke-linejoin:round;stroke-miterlimit:10;}
	.st59{fill:#FF9200;stroke:#000000;stroke-width:0.6055;stroke-miterlimit:10;}
	.st60{fill:#E5E5E5;stroke:#1E333A;stroke-width:0.7089;stroke-linecap:round;stroke-linejoin:round;stroke-miterlimit:10;}
	.st61{fill:#23CECA;}
	.st62{fill:#9BEBE2;}
	.st63{fill:none;stroke:#D1E2E8;stroke-width:2.4843;stroke-linecap:round;stroke-linejoin:round;}
	.st64{fill:none;stroke:#D1E2E8;stroke-width:2.4843;stroke-linecap:round;stroke-linejoin:round;stroke-dasharray:8.1577,8.1577;}
	.st65{fill:#FF3500;}
	.st66{fill:#FFA790;}
	.st67{fill:#FF696F;}
	.st68{fill:#002E3F;}
	.st69{fill:#005E70;}
	.st70{fill:#004253;}
	.st71{fill:#005060;}
	.st72{fill:#005E6E;}
	.st73{fill:#E0DFF0;}
	.st74{fill:#B6B6E6;}
	.st75{fill:#00B29D;}
	.st76{fill:#006570;}
	.st77{fill:#007881;}
	.st78{fill:#DC3D07;}
	.st79{fill:#FF7F77;}
	.st80{fill:#414042;}
	.st81{fill:#008790;}
	.st82{fill:#FFF000;}
	.st83{fill:#009B8D;}
	.st84{fill:#BBBDBF;}
	.st85{fill:#005D6B;}
	.st86{fill:#B8FFF6;}
	.st87{fill:#00AEB1;}
	.st88{fill:#00C4C2;}
	.st89{fill:#241F20;}
	.st90{fill:#003E43;}
</style>
<g>
	<path class="st0" d="M725.85,501.36H174.69c-6.52,0-11.81-5.29-11.81-11.81V105.73c0-6.52,5.29-11.81,11.81-11.81h551.16
		c6.52,0,11.81,5.29,11.81,11.81v383.82C737.66,496.07,732.37,501.36,725.85,501.36z"/>
	<g>
		<text transform="matrix(1 0 0 1 331.6544 359.9161)"><tspan x="0" y="0" class="st2 st3">Most Flexible</tspan><tspan x="-86.67" y="31.34" class="st4 st5">Services that can be tailored to</tspan><tspan x="-78.86" y="62.69" class="st4 st5">every need from e-commerce</tspan><tspan x="-84.64" y="94.03" class="st4 st5">sellers to corporate businesses</tspan></text>
		<g id="v3nqR1_00000061435645753506273440000002145483129419522460_">
			<g>
				<path class="st1" d="M383.32,204.35c0.06,1.1,0.12,1.76,0.12,2.43c0.01,3.45-0.02,6.9,0.01,10.35c0.03,3.2,1,4.15,4.24,4.16
					c5.66,0.02,11.32-0.14,16.97,0.05c4.33,0.15,8.74,0.27,12.94,1.21c18.57,4.18,31.44,15.23,38.41,33
					c2.85,7.27,3.22,14.9,3.07,22.59c-0.06,3.22,0.94,4.69,3.04,4.76c2.16,0.07,3.17-1.44,3.17-4.78c0-14.63-0.03-29.25,0.01-43.88
					c0.04-15.37,10.02-27.03,25.26-28.78c6.54-0.75,13.22-0.25,19.84-0.3c0.11,0,0.22,0.15,0.49,0.36c0,6.22,0,12.56,0,18.9
					c0,1.65,0.16,3.22,1.92,3.99c1.67,0.73,2.89-0.16,4.08-1.19c12.4-10.76,24.8-21.52,37.2-32.28c2.92-2.53,2.87-4.11-0.11-6.69
					c-5.94-5.15-11.88-10.31-17.82-15.46c-6.51-5.65-13.02-11.31-19.54-16.95c-1.08-0.94-2.23-1.65-3.75-0.99
					c-1.57,0.68-1.98,2-1.98,3.54c-0.01,1.72-0.01,3.45-0.01,5.17c0,3.84,0,7.69,0,11.82c-15.63-0.17-31.2-1.19-45.48,7.34
					c0-10.22,0-19.9,0-29.8c0.84,0,1.58,0,2.32,0c5.38,0,10.76-0.02,16.14,0.01c1.56,0.01,2.92-0.3,3.61-1.84
					c0.69-1.54,0.03-2.78-1-3.94c-11.11-12.46-22.21-24.93-33.33-37.39c-2-2.24-3.74-2.22-5.76,0c-1.91,2.09-3.76,4.22-5.65,6.33
					c-9.18,10.3-18.35,20.61-27.54,30.9c-1.07,1.2-1.85,2.46-1.13,4.1c0.73,1.65,2.2,1.86,3.81,1.85
					c5.31-0.03,10.62-0.01,15.94-0.01c0.74,0,1.48,0,2.44,0c0,4.49-0.03,8.75,0.01,13.01c0.02,2.36,1.12,3.63,3.03,3.64
					c1.9,0.02,3.12-1.25,3.15-3.57c0.07-5.17,0.07-10.35,0-15.52c-0.03-2.62-1.23-3.74-3.88-3.76c-4.21-0.04-8.42-0.01-12.63-0.02
					c-0.57,0-1.14-0.08-2.01-0.15c9.24-10.37,18.25-20.48,27.33-30.68c9.18,10.31,18.16,20.38,27.47,30.84c-4.94,0-9.39,0-13.84,0
					c-3.94,0-4.84,0.92-4.85,4.9c0,11.04-0.02,22.08,0.03,33.11c0.01,1.38-0.4,2.26-1.51,3.1c-5.5,4.17-9.99,9.28-13.7,15.08
					c-0.71,1.12-1.36,2.27-2.04,3.41c-0.12-0.05-0.24-0.09-0.35-0.14c0-0.75,0-1.49,0-2.24c0-7.8,0.01-15.59-0.01-23.39
					c0-0.89-0.05-1.81-0.32-2.65c-0.44-1.43-1.58-2.06-3.04-1.96c-1.47,0.1-2.45,0.92-2.73,2.38c-0.15,0.8-0.12,1.65-0.12,2.47
					c-0.01,12.97,0,25.94,0,38.91c0,0.77,0,1.55,0,2.56c-0.86-0.36-1.31-0.52-1.73-0.74c-7.09-3.61-14.59-5.84-22.55-6.17
					c-6.34-0.26-12.69-0.2-19.03-0.28c-0.73-0.01-1.45-0.06-2.29-0.1c0-5.77,0-11.29,0-16.8c0-1.54-0.32-3.14-1.98-3.46
					c-1.1-0.21-2.7,0.09-3.52,0.8c-12.84,10.99-25.6,22.08-38.35,33.17c-2.06,1.79-2.02,3.6,0.02,5.44
					c2.51,2.26,5.09,4.45,7.65,6.66c1.36,1.17,2.66,2.42,4.11,3.47c1.39,1.02,2.9,0.94,4.1-0.37c1.21-1.32,1.1-2.77-0.02-4.11
					c-0.44-0.52-0.99-0.96-1.51-1.41c-2.64-2.3-5.29-4.6-8.01-6.97C362.52,222.39,372.76,213.51,383.32,204.35z M389.66,245.06
					c6.87,0,13.41-0.2,19.93,0.09c2.75,0.12,5.63,0.88,8.16,2.01c11.55,5.15,17.4,14.21,17.49,26.84
					c0.09,13.72,0.02,27.45,0.03,41.17c0,3.24,0.96,4.2,4.17,4.2c7.17,0.01,14.34,0.01,21.52,0c3.39,0,4.31-0.91,4.32-4.27
					c0.01-7.03,0.01-14.07,0-21.1c0-0.69,0.01-1.38-0.07-2.07c-0.18-1.7-1.26-2.65-2.86-2.73c-1.61-0.08-2.76,0.8-3.08,2.46
					c-0.14,0.74-0.18,1.5-0.18,2.26c-0.01,5.65,0,11.31-0.01,16.96c0,0.72-0.06,1.45-0.1,2.14c-5.94,0-11.63,0-17.4,0
					c-0.04-0.68-0.09-1.22-0.09-1.76c-0.01-12.41,0.03-24.83-0.01-37.24c-0.07-17.68-11.27-31.89-28.54-34.6
					c-8.63-1.35-17.6-0.64-26.41-0.73c-1.89-0.02-2.99,1.3-3.04,3.26c-0.05,2-0.03,4-0.03,6c0,3.35,0,6.7,0,10.56
					c-2-1.72-3.61-3.09-5.2-4.46c-2.45-2.12-4.88-4.27-7.36-6.35c-1.17-0.98-2.67-1.3-3.75-0.17c-0.74,0.77-1.19,2.13-1.16,3.22
					c0.02,0.77,0.94,1.63,1.64,2.24c5.02,4.42,10.08,8.79,15.14,13.17c1.43,1.24,2.75,2.99,5.01,1.98c2.36-1.05,1.89-3.28,1.9-5.24
					C389.67,257,389.66,251.07,389.66,245.06z"/>
				<path d="M383.32,204.35c-10.55,9.16-20.8,18.04-31.19,27.05c2.72,2.37,5.37,4.67,8.01,6.97c0.52,0.45,1.07,0.89,1.51,1.41
					c1.12,1.34,1.23,2.79,0.02,4.11c-1.2,1.31-2.71,1.39-4.1,0.37c-1.44-1.06-2.75-2.3-4.11-3.47c-2.56-2.21-5.14-4.4-7.65-6.66
					c-2.04-1.84-2.07-3.65-0.02-5.44c12.75-11.1,25.51-22.18,38.35-33.17c0.83-0.71,2.42-1,3.52-0.8c1.65,0.31,1.98,1.92,1.98,3.46
					c0.01,5.52,0,11.03,0,16.8c0.84,0.04,1.56,0.09,2.29,0.1c6.34,0.09,12.69,0.02,19.03,0.28c7.96,0.33,15.46,2.56,22.55,6.17
					c0.42,0.21,0.87,0.37,1.73,0.74c0-1.01,0-1.78,0-2.56c0-12.97,0-25.94,0-38.91c0-0.83-0.04-1.67,0.12-2.47
					c0.28-1.46,1.26-2.28,2.73-2.38c1.46-0.1,2.6,0.53,3.04,1.96c0.26,0.84,0.31,1.76,0.32,2.65c0.02,7.8,0.01,15.59,0.01,23.39
					c0,0.75,0,1.49,0,2.24c0.12,0.05,0.24,0.09,0.35,0.14c0.68-1.14,1.33-2.3,2.04-3.41c3.71-5.8,8.21-10.91,13.7-15.08
					c1.11-0.84,1.52-1.73,1.51-3.1c-0.05-11.04-0.03-22.08-0.03-33.11c0-3.99,0.91-4.9,4.85-4.9c4.45,0,8.9,0,13.84,0
					c-9.31-10.45-18.28-20.53-27.47-30.84c-9.08,10.19-18.09,20.3-27.33,30.68c0.87,0.07,1.44,0.15,2.01,0.15
					c4.21,0.01,8.42-0.02,12.63,0.02c2.64,0.02,3.85,1.14,3.88,3.76c0.07,5.17,0.06,10.35,0,15.52c-0.03,2.32-1.25,3.59-3.15,3.57
					c-1.91-0.02-3.01-1.28-3.03-3.64c-0.04-4.26-0.01-8.52-0.01-13.01c-0.97,0-1.7,0-2.44,0c-5.31,0-10.62-0.02-15.94,0.01
					c-1.61,0.01-3.08-0.19-3.81-1.85c-0.73-1.64,0.05-2.89,1.13-4.1c9.19-10.29,18.36-20.6,27.54-30.9
					c1.88-2.11,3.74-4.24,5.65-6.33c2.02-2.22,3.76-2.23,5.76,0c11.12,12.45,22.21,24.93,33.33,37.39c1.03,1.16,1.69,2.4,1,3.94
					c-0.69,1.54-2.05,1.85-3.61,1.84c-5.38-0.03-10.76-0.01-16.14-0.01c-0.74,0-1.48,0-2.32,0c0,9.91,0,19.58,0,29.8
					c14.28-8.53,29.84-7.52,45.48-7.34c0-4.13,0-7.97,0-11.82c0-1.72,0-3.45,0.01-5.17c0.01-1.54,0.41-2.86,1.98-3.54
					c1.52-0.66,2.67,0.05,3.75,0.99c6.52,5.65,13.03,11.3,19.54,16.95c5.94,5.15,11.88,10.31,17.82,15.46
					c2.98,2.58,3.03,4.16,0.11,6.69c-12.4,10.76-24.8,21.52-37.2,32.28c-1.19,1.04-2.41,1.92-4.08,1.19
					c-1.77-0.77-1.93-2.34-1.92-3.99c0.01-6.34,0-12.68,0-18.9c-0.27-0.2-0.38-0.36-0.49-0.36c-6.62,0.06-13.3-0.45-19.84,0.3
					c-15.24,1.75-25.22,13.41-25.26,28.78c-0.04,14.63-0.01,29.25-0.01,43.88c0,3.34-1,4.84-3.17,4.78
					c-2.09-0.06-3.1-1.54-3.04-4.76c0.15-7.69-0.22-15.32-3.07-22.59c-6.97-17.77-19.83-28.82-38.41-33
					c-4.19-0.94-8.61-1.06-12.94-1.21c-5.65-0.2-11.31-0.04-16.97-0.05c-3.24-0.01-4.21-0.96-4.24-4.16c-0.03-3.45,0-6.9-0.01-10.35
					C383.43,206.12,383.37,205.45,383.32,204.35z M459.29,246.02c0-5.37-0.28-10.69,0.05-15.97c0.97-15.56,14.43-29.49,29.99-30.71
					c8.03-0.63,16.12-0.37,24.19-0.43c2.44-0.02,3.52,1.23,3.54,3.84c0.05,4.62,0.01,9.24,0.02,13.87c0,0.57,0.08,1.13,0.16,2.06
					c10.56-9.16,20.81-18.06,31.15-27.03c-10.37-8.99-20.62-17.88-31.19-27.05c-0.05,1.07-0.12,1.74-0.12,2.4
					c-0.01,3.52,0.02,7.04-0.02,10.55c-0.03,2.96-1.05,3.98-3.99,3.99c-5.73,0.02-11.46-0.14-17.18,0.06
					c-4.33,0.15-8.72,0.32-12.94,1.2c-21.33,4.44-36.84,20.53-40.83,41.93c-0.26,1.39,0,2.25,1.16,3.15
					c1.95,1.52,3.91,3.12,5.5,4.99C452.34,237.05,455.65,241.42,459.29,246.02z"/>
				<path d="M389.66,245.06c0,6.01,0.02,11.94-0.01,17.86c-0.01,1.95,0.46,4.18-1.9,5.24c-2.26,1.01-3.57-0.74-5.01-1.98
					c-5.06-4.37-10.12-8.75-15.14-13.17c-0.7-0.62-1.62-1.48-1.64-2.24c-0.02-1.08,0.42-2.45,1.16-3.22
					c1.08-1.13,2.58-0.81,3.75,0.17c2.48,2.08,4.91,4.23,7.36,6.35c1.6,1.38,3.2,2.74,5.2,4.46c0-3.86,0-7.21,0-10.56
					c0-2-0.01-4,0.03-6c0.04-1.96,1.15-3.28,3.04-3.26c8.82,0.09,17.78-0.63,26.41,0.73c17.27,2.71,28.47,16.92,28.54,34.6
					c0.05,12.41,0.01,24.83,0.01,37.24c0,0.54,0.06,1.08,0.09,1.76c5.77,0,11.45,0,17.4,0c0.03-0.69,0.1-1.42,0.1-2.14
					c0.01-5.65,0-11.31,0.01-16.96c0-0.75,0.04-1.52,0.18-2.26c0.32-1.67,1.47-2.54,3.08-2.46c1.6,0.08,2.68,1.03,2.86,2.73
					c0.07,0.68,0.07,1.38,0.07,2.07c0,7.03,0.01,14.07,0,21.1c-0.01,3.36-0.93,4.26-4.32,4.27c-7.17,0.01-14.34,0.01-21.52,0
					c-3.21-0.01-4.17-0.97-4.17-4.2c-0.01-13.72,0.07-27.45-0.03-41.17c-0.09-12.63-5.94-21.7-17.49-26.84
					c-2.53-1.13-5.41-1.88-8.16-2.01C403.07,244.87,396.52,245.06,389.66,245.06z"/>
				<path class="st1" d="M459.29,246.02c-3.64-4.6-6.95-8.97-10.49-13.15c-1.59-1.88-3.55-3.47-5.5-4.99
					c-1.16-0.9-1.41-1.77-1.16-3.15c3.98-21.4,19.5-37.49,40.83-41.93c4.22-0.88,8.61-1.05,12.94-1.2
					c5.72-0.2,11.45-0.03,17.18-0.06c2.94-0.01,3.96-1.03,3.99-3.99c0.04-3.52,0.01-7.04,0.02-10.55c0-0.66,0.06-1.32,0.12-2.4
					c10.57,9.16,20.82,18.05,31.19,27.05c-10.34,8.98-20.59,17.87-31.15,27.03c-0.07-0.92-0.16-1.49-0.16-2.06
					c-0.01-4.62,0.02-9.24-0.02-13.87c-0.03-2.62-1.11-3.86-3.54-3.84c-8.07,0.06-16.16-0.2-24.19,0.43
					c-15.56,1.22-29.02,15.16-29.99,30.71C459.02,235.33,459.29,240.65,459.29,246.02z"/>
			</g>
		</g>
	</g>
</g>
</svg>
