<?xml version="1.0" encoding="utf-8"?>
<!-- Generator: Adobe Illustrator 27.0.0, SVG Export Plug-In . SVG Version: 6.00 Build 0)  -->
<svg version="1.1" id="Layer_1" xmlns="http://www.w3.org/2000/svg" xmlns:xlink="http://www.w3.org/1999/xlink" x="0px" y="0px"
	 viewBox="0 0 841.89 595.28" style="enable-background:new 0 0 841.89 595.28;" xml:space="preserve">
<style type="text/css">
	.st0{opacity:0.5;fill:#FF9200;}
	.st1{fill:#FFFFFF;}
	.st2{fill:#FFFFFF;stroke:#000000;stroke-width:4.557;stroke-miterlimit:10;}
	.st3{fill:url(#SVGID_1_);}
	.st4{fill:url(#SVGID_00000179621021530078854980000004468156142823638698_);}
	.st5{fill:#ADD962;}
	.st6{fill:url(#SVGID_00000026885398651918573920000002418207101497885867_);}
	.st7{fill:url(#SVGID_00000167363618606240012360000004147152960886405802_);}
	.st8{fill:#4B77A2;}
	.st9{fill:url(#SVGID_00000049911880055798310060000003150770663643079352_);}
	.st10{fill:url(#SVGID_00000067225019168396779140000015328656619117579183_);}
	.st11{fill:url(#SVGID_00000173882221497132940250000014603451581345340862_);}
	.st12{fill:url(#SVGID_00000112619011690805177440000017033341903262462848_);}
	.st13{fill:#07085F;}
	.st14{fill:url(#SVGID_00000162338707010395933270000005763684980028798374_);}
	.st15{fill:url(#SVGID_00000066502400331095181930000006285063121083041956_);}
	.st16{fill:#E8FDFB;}
	.st17{fill:#333333;}
	.st18{fill:url(#SVGID_00000144307493217116472710000001220854577844256156_);}
	.st19{fill:url(#SVGID_00000147916315154382931040000017905376130106193552_);}
	.st20{fill:url(#SVGID_00000100372761145201404680000001235764888599914383_);}
	.st21{fill:url(#SVGID_00000041293610275653512050000006953607862068897186_);}
	.st22{fill:url(#SVGID_00000097480153147448069270000009430814877738542525_);}
	.st23{fill:url(#SVGID_00000031915121267243435000000013493130808200466345_);}
	.st24{fill:url(#SVGID_00000120530094316321314740000008444046947354513593_);}
	.st25{fill:url(#SVGID_00000060715247036002515170000004641276114791036832_);}
	.st26{fill:#FFB01C;}
	.st27{fill:url(#SVGID_00000017486834771455739380000002494925798585206679_);}
	.st28{fill:url(#SVGID_00000155115538172847065560000005128551033336488065_);}
	.st29{fill:url(#SVGID_00000140712651812867338870000012608146518898790017_);}
	.st30{fill:url(#SVGID_00000074416855071710632910000000921239897270855582_);}
	.st31{fill:#D6EDA8;}
	.st32{fill:url(#SVGID_00000090977590425000481640000001126636382592996748_);}
	.st33{fill:url(#SVGID_00000176005956733492833380000004196911892169187717_);}
	.st34{fill:url(#SVGID_00000026861918260247869970000016353782793860172448_);}
	.st35{fill:url(#SVGID_00000123437500180016266740000004063562006992552321_);}
	.st36{fill:url(#SVGID_00000163059209080182350080000010520450116363989695_);}
	.st37{fill:url(#SVGID_00000132052786151313550200000011422870754091885960_);}
	.st38{fill:url(#SVGID_00000109746243997045378340000015020819035282786185_);}
	.st39{fill:url(#SVGID_00000048465114808717157110000006633201593431669684_);}
	.st40{fill:url(#SVGID_00000102502862453871112860000015949303323578620329_);}
	.st41{fill:url(#SVGID_00000137112557514883556790000005138117910183280520_);}
	.st42{fill:url(#SVGID_00000176029270195020634030000017637520182305670571_);}
	.st43{opacity:0.3;fill:#D4EEF7;}
	.st44{fill:#D4EEF7;}
	.st45{opacity:0.2;}
	.st46{fill:#FF9200;}
	.st47{fill:none;stroke:#1E333A;stroke-width:0.7089;stroke-miterlimit:10;}
	.st48{fill:#1E333A;}
	.st49{fill:#FFFFFF;stroke:#1E333A;stroke-width:0.7089;stroke-linecap:round;stroke-linejoin:round;stroke-miterlimit:10;}
	.st50{fill:#1E333A;stroke:#1E333A;stroke-width:0.7089;stroke-linecap:round;stroke-linejoin:round;stroke-miterlimit:10;}
	.st51{fill:none;stroke:#1E333A;stroke-width:0.7089;stroke-linecap:round;stroke-linejoin:round;stroke-miterlimit:10;}
	.st52{fill:none;stroke:#1E333A;stroke-width:2.1267;stroke-linecap:round;stroke-linejoin:round;stroke-miterlimit:10;}
	.st53{fill:#8A8A8A;}
	.st54{fill:#39EA9D;stroke:#1E333A;stroke-width:0.7089;stroke-linecap:round;stroke-linejoin:round;stroke-miterlimit:10;}
	.st55{fill:#FF9200;stroke:#000000;stroke-width:0.6055;stroke-miterlimit:10;}
	.st56{fill:#E5E5E5;stroke:#1E333A;stroke-width:0.7089;stroke-linecap:round;stroke-linejoin:round;stroke-miterlimit:10;}
	.st57{fill:#23CECA;}
	.st58{fill:#9BEBE2;}
	.st59{fill:none;stroke:#D1E2E8;stroke-width:2.4843;stroke-linecap:round;stroke-linejoin:round;}
	.st60{fill:none;stroke:#D1E2E8;stroke-width:2.4843;stroke-linecap:round;stroke-linejoin:round;stroke-dasharray:8.1577,8.1577;}
	.st61{fill:#FF3500;}
	.st62{fill:#FFA790;}
	.st63{fill:#FF696F;}
	.st64{fill:#002E3F;}
	.st65{fill:#005E70;}
	.st66{fill:#004253;}
	.st67{fill:#005060;}
	.st68{fill:#005E6E;}
	.st69{fill:#E0DFF0;}
	.st70{fill:#B6B6E6;}
	.st71{fill:#00B29D;}
	.st72{fill:#006570;}
	.st73{fill:#007881;}
	.st74{fill:#DC3D07;}
	.st75{fill:#FF7F77;}
	.st76{fill:#414042;}
	.st77{fill:#008790;}
	.st78{fill:#FFF000;}
	.st79{fill:#009B8D;}
	.st80{fill:#BBBDBF;}
	.st81{fill:#005D6B;}
	.st82{fill:#B8FFF6;}
	.st83{fill:#00AEB1;}
	.st84{fill:#00C4C2;}
	.st85{fill:#241F20;}
	.st86{fill:#003E43;}
</style>
<g>
	<g>
		<linearGradient id="SVGID_1_" gradientUnits="userSpaceOnUse" x1="206.8826" y1="414.5031" x2="588.123" y2="414.5031">
			<stop  offset="0" style="stop-color:#00CF9B"/>
			<stop  offset="1" style="stop-color:#007C5A"/>
		</linearGradient>
		<path class="st3" d="M586.63,418.31H208.37c-0.82,0-1.49-0.67-1.49-1.49v-4.64c0-0.82,0.67-1.49,1.49-1.49h378.26
			c0.82,0,1.49,0.67,1.49,1.49v4.64C588.12,417.65,587.46,418.31,586.63,418.31z"/>
		
			<linearGradient id="SVGID_00000178162757928896592090000008340029355699863721_" gradientUnits="userSpaceOnUse" x1="564.0378" y1="198.8901" x2="633.3738" y2="198.8901">
			<stop  offset="0" style="stop-color:#C7CC39"/>
			<stop  offset="0.5065" style="stop-color:#529D48"/>
			<stop  offset="1" style="stop-color:#00804B"/>
		</linearGradient>
		<path style="fill:url(#SVGID_00000178162757928896592090000008340029355699863721_);" d="M623.77,140.58
			c8.89,6.82-3.83,16.6-7.36,19.08c1.17,4.04,1.93,7.82,2.39,11.3c2.77-4.64,1.87-10.13,4.47-12.41c2.92-2.55,7.66-3.03,6.99,4.52
			c-0.53,5.98-8.15,8.47-11.3,9.24c0.69,6.02,0.52,11.04,0.12,14.69c3.95-4.8,3.58-11.22,6.82-13.44c3.55-2.43,8.84-2.34,7.12,5.89
			c-1.42,6.81-10.86,8.41-14.09,8.77c-0.44,3.33-1.01,5.27-1.07,5.48c-1.14,3.94-2.44,7.64-3.86,11.14c3.57-4.14,4.3-9.6,7.51-11.2
			c3.86-1.91,9.08-1.08,6.22,6.83c-2.26,6.26-11.12,6.78-14.73,6.72c-3.13,7.21-6.76,13.45-10.55,18.81
			c4.46-2.37,9.08-9.07,13.92-9.76c3.18-0.46,4.76,1.23,5.53,2.74c0.66,1.29,0.68,2.79,0.1,4.11c-3.3,7.5-16.36,4.88-20.27,3.92
			c-4.73,6.53-9.66,11.71-14.09,15.68c2.32-1.21,5.81-3.04,7.58-4.08c2.79-1.64,7.41-2.37,10.12-0.84c0.11,0.06,0.22,0.13,0.32,0.2
			c1.97,1.3,2.59,3.89,1.64,6.05c-3.7,8.46-18.26,1.71-21.36,0.16c-0.03,0.03-0.06,0.05-0.09,0.08c-11.4,9.72-20.9,13.34-21.3,13.49
			l-0.55-1.48c0.09-0.03,9.14-3.49,19.91-12.43c-4.62-14.1,1.38-21.31,5.07-20.78c3.81,0.54,7.26,5.27,2.8,10.18
			c-2.59,2.84-4.65,6.44-5.93,8.95c4.5-3.95,9.58-9.19,14.46-15.9c-12.04-15.7-1.66-22.25,2.55-19.84
			c4.26,2.43,3.98,6.07,1.09,10.83c-1.92,3.16-2.69,6.34-3,8.13c3.73-5.24,7.32-11.35,10.42-18.42c-3.37-1.04-11.8-4.31-11.98-11.04
			c-0.23-8.41,5-7.55,8.06-4.53c2.81,2.78,1.27,9.09,4.37,14.54c1.68-3.94,3.21-8.17,4.52-12.7c0.02-0.07,1.18-3.98,1.42-10.5
			c-3.51-0.62-12.21-2.81-13.23-9.43c-1.29-8.31,4-8.12,7.42-5.51c3.05,2.33,2.45,8.48,5.85,13.42c0.08-5.54-0.53-12.72-2.86-20.9
			c-3.63-0.67-12.02-2.9-13.02-9.39c-1.29-8.31,4-8.12,7.42-5.51c3.09,2.37,2.43,8.65,6,13.63l0.16-0.05
			c-0.05-2.27-0.16-7.09-0.34-9.4c-0.23-3.08,1.14-7.27,3.69-8.82C621.42,139.24,623.77,140.58,623.77,140.58z"/>
		<path class="st5" d="M472.05,79.75c17.32-1.43,12.92,23.07,11.44,29.6c5.55,3.42,10.37,6.98,14.53,10.48
			c-1.66-8.22-8.42-13.59-7.8-18.92c0.7-5.98,5.65-11.47,12.75-2.1c5.63,7.43-0.54,18.23-3.35,22.4c7.08,6.2,12.1,12.14,15.46,16.76
			c-0.47-9.64-7.59-16.63-6.18-22.56c1.54-6.5,7.72-11.91,14.33-0.65c5.46,9.31-3.7,20.99-7.04,24.76c2.97,4.28,4.34,7.11,4.48,7.42
			c2.79,5.71,5.17,11.33,7.18,16.82c-0.21-8.48-5.07-15.52-3.04-20.7c2.44-6.22,9.31-10.72,14.28,1.36
			c3.93,9.55-5.71,19.39-9.91,23.08c3.93,11.55,6.25,22.51,7.49,32.61c2.65-7.38,0.98-19.89,5.81-25.74
			c3.17-3.84,6.75-3.55,9.21-2.62c2.1,0.8,3.69,2.49,4.4,4.62c4.03,12.05-13.71,22.68-19.21,25.64c1.38,12.44,1.11,23.52,0.17,32.71
			c1.41-3.81,3.5-9.56,4.46-12.6c1.5-4.79,6.05-10.45,10.75-11.51c0.2-0.04,0.39-0.08,0.58-0.11c3.62-0.57,7.03,1.77,8.19,5.24
			c4.57,13.58-19.2,21.01-24.38,22.45c-0.01,0.06-0.02,0.13-0.02,0.19c-2.96,23.06-10.11,37.13-10.41,37.72l-2.17-1.12
			c0.07-0.14,6.87-13.54,9.91-35.05c-20.02-11.38-20.64-25.92-15.85-29.16c4.94-3.35,13.85-1.52,13.83,8.78
			c-0.01,5.97,1.37,12.25,2.52,16.47c1.05-9.23,1.42-20.55,0.04-33.35c-30.2-5.49-25.12-23.83-17.77-25.46
			c7.44-1.65,10.91,2.82,12.54,11.31c1.09,5.64,3.52,10.1,5.04,12.47c-1.18-9.91-3.43-20.68-7.24-32.03
			c-4.95,2.32-18.06,7.35-25.28-0.19c-9.03-9.43-2.14-13.89,4.53-13.6c6.13,0.26,10.94,9.12,20.19,12.15
			c-2.18-6.28-4.83-12.73-8.05-19.31c-0.05-0.11-2.8-5.8-9.32-13.55c-4.67,2.94-16.95,9.5-25.04,2.96
			c-10.15-8.21-3.88-13.51,2.78-14.07c5.94-0.5,11.66,7.19,20.73,9.32c-5.69-6.45-13.87-14.06-25.09-21.03
			c-4.87,3.02-16.84,9.19-24.76,2.79c-10.15-8.21-3.88-13.51,2.78-14.07c6.02-0.51,11.81,7.41,21.11,9.41l0.13-0.22
			c-2.42-2.56-7.58-7.98-10.19-10.45c-3.47-3.29-6.27-9.54-4.96-13.98C467.95,80.66,472.05,79.75,472.05,79.75z"/>
		<g>
			
				<rect x="206.44" y="181.11" transform="matrix(-0.9388 0.3446 -0.3446 -0.9388 584.618 383.9086)" class="st5" width="103.52" height="125.58"/>
			
				<linearGradient id="SVGID_00000066503558533584625580000003657082909103699898_" gradientUnits="userSpaceOnUse" x1="236.5575" y1="234.9884" x2="328.418" y2="234.9884">
				<stop  offset="0" style="stop-color:#C7CC39"/>
				<stop  offset="0.5065" style="stop-color:#529D48"/>
				<stop  offset="1" style="stop-color:#00804B"/>
			</linearGradient>
			<polygon style="fill:url(#SVGID_00000066503558533584625580000003657082909103699898_);" points="279.83,302.85 328.42,285.02 
				285.15,167.13 236.56,184.96 			"/>
			<g>
				
					<linearGradient id="SVGID_00000150085110952120775380000006048232004410342307_" gradientUnits="userSpaceOnUse" x1="204.8886" y1="177.8972" x2="271.9796" y2="177.8972">
					<stop  offset="0" style="stop-color:#FF9300"/>
					<stop  offset="1" style="stop-color:#F84B00"/>
				</linearGradient>
				<path style="fill:url(#SVGID_00000150085110952120775380000006048232004410342307_);" d="M270.77,183.92L270.77,183.92
					c1.05-0.46,1.5-1.69,1-2.72c-1.68-3.38-5.66-10.72-11.73-17.5c-10.93-12.23-23.32-16.59-35.83-12.62
					c-6.94,2.2-12.09,6.51-15.33,12.8c-7.32,14.22-2.7,34.39-0.93,40.8c0.3,1.1,1.46,1.72,2.54,1.37l0.01,0
					c1.02-0.33,1.6-1.39,1.32-2.43c-1.61-5.95-5.97-25.11,0.63-37.92c2.73-5.3,7.1-8.94,12.98-10.81
					c11.05-3.51,21.69,0.35,31.64,11.48c5.71,6.39,9.54,13.44,11.12,16.61C268.66,183.93,269.8,184.34,270.77,183.92z"/>
			</g>
		</g>
		<path class="st8" d="M564.81,296.38c-7.73,2.78-13.49,6.85-17.75,11.61c1.53,3.13,3.29,6.9,3.29,6.9l-6.02-3.48
			c-14.04,19.71-6.93,47.73-6.93,47.73c17.1-5.82,26.1-14.26,30.43-23.08c-1.76-1.78-4.4-4.39-4.4-4.39l5.65,1.49
			c1.69-4.47,2.28-8.97,2.22-13.22c-2.94-0.76-6.26-1.7-6.26-1.7l6.01-2.39C569.84,304.82,564.81,296.38,564.81,296.38z"/>
		<g>
			
				<linearGradient id="SVGID_00000162347849555640592870000005465511393491049116_" gradientUnits="userSpaceOnUse" x1="545.8317" y1="330.073" x2="656.6406" y2="458.5501">
				<stop  offset="0" style="stop-color:#00CF9B"/>
				<stop  offset="1" style="stop-color:#007C5A"/>
			</linearGradient>
			<path style="fill:url(#SVGID_00000162347849555640592870000005465511393491049116_);" d="M622.33,308.42
				c-17.13-2.39-31.85-0.44-44.46,4.26c-0.21,7.34-0.62,16.08-0.62,16.08l-7.82-12.38c-45.47,23-59.66,82.21-59.66,82.21
				c37.57,5.89,62.63-1.03,79.34-13.24c-1.53-5.03-3.9-12.5-3.9-12.5l9.08,8.32c7.52-6.68,13.04-14.5,17.08-22.48
				c-4.74-4.3-10.02-9.29-10.02-9.29l13.54,1.43C623.43,329.08,622.33,308.42,622.33,308.42z"/>
			
				<linearGradient id="SVGID_00000091004617537780548180000005954292977710742184_" gradientUnits="userSpaceOnUse" x1="509.7615" y1="354.575" x2="622.373" y2="354.575">
				<stop  offset="0" style="stop-color:#00CF9B"/>
				<stop  offset="1" style="stop-color:#007C5A"/>
			</linearGradient>
			<path style="fill:url(#SVGID_00000091004617537780548180000005954292977710742184_);" d="M589.1,385.35
				c-1.53-5.03-3.9-12.5-3.9-12.5l9.08,8.32c7.52-6.68,13.04-14.5,17.08-22.48c-4.74-4.3-10.02-9.29-10.02-9.29l13.54,1.43
				c8.55-21.77,7.44-42.42,7.44-42.42c-55.68,22.17-112.56,90.17-112.56,90.17C547.34,404.49,572.39,397.56,589.1,385.35z"/>
		</g>
		<g>
			
				<linearGradient id="SVGID_00000155868485512129901040000001618477561152311959_" gradientUnits="userSpaceOnUse" x1="536.4627" y1="338.1534" x2="647.272" y2="466.6311">
				<stop  offset="0" style="stop-color:#00CF9B"/>
				<stop  offset="1" style="stop-color:#007C5A"/>
			</linearGradient>
			<path style="fill:url(#SVGID_00000155868485512129901040000001618477561152311959_);" d="M625.07,385.36
				c-7.89-8.34-16.33-13.43-24.81-16.22c-3.15,3.72-6.99,8.08-6.99,8.08l1.08-9.66c-33.1-6.93-65,17.88-65,17.88
				c17.03,18.63,32.89,25.43,46.61,26.03c1.29-3.24,3.16-8.09,3.16-8.09l1.26,8.08c6.67-0.35,12.77-2.11,18.17-4.57
				c-0.68-4.19-1.34-8.97-1.34-8.97l6.42,6.35C617.09,396.53,625.07,385.36,625.07,385.36z"/>
			
				<linearGradient id="SVGID_00000052816279623977049340000010477789904944597438_" gradientUnits="userSpaceOnUse" x1="529.3519" y1="395.848" x2="625.0731" y2="395.848">
				<stop  offset="0" style="stop-color:#00CF9B"/>
				<stop  offset="1" style="stop-color:#007C5A"/>
			</linearGradient>
			<path style="fill:url(#SVGID_00000052816279623977049340000010477789904944597438_);" d="M575.96,411.46
				c1.29-3.24,3.16-8.09,3.16-8.09l1.26,8.08c6.67-0.35,12.77-2.11,18.17-4.57c-0.68-4.19-1.34-8.97-1.34-8.97l6.42,6.35
				c13.45-7.74,21.44-18.9,21.44-18.9c-38.05-11.59-95.72,0.07-95.72,0.07C546.38,404.07,562.24,410.87,575.96,411.46z"/>
		</g>
		<path class="st13" d="M567.83,336.06c-1.76-1.78-4.4-4.39-4.4-4.39l5.65,1.49c1.69-4.47,2.28-8.97,2.22-13.22
			c-2.94-0.76-6.26-1.7-6.26-1.7l6.01-2.39c-1.21-11.04-6.24-19.47-6.24-19.47C546.3,318,537.4,359.14,537.4,359.14
			C554.5,353.32,563.5,344.88,567.83,336.06z"/>
		<g>
			
				<linearGradient id="SVGID_00000107562064919157490660000004305800641007410581_" gradientUnits="userSpaceOnUse" x1="151.4434" y1="275.6606" x2="262.7664" y2="275.6606">
				<stop  offset="0" style="stop-color:#00CF9B"/>
				<stop  offset="1" style="stop-color:#007C5A"/>
			</linearGradient>
			<path style="fill:url(#SVGID_00000107562064919157490660000004305800641007410581_);" d="M261.55,294.45l-55.53-76.37
				c-2.07-2.85-6.06-3.48-8.9-1.41l-43.04,31.3c-2.85,2.07-3.48,6.06-1.41,8.9l55.53,76.37c2.07,2.85,6.06,3.48,8.9,1.41l43.04-31.3
				C262.99,301.28,263.62,297.3,261.55,294.45z"/>
			
				<linearGradient id="SVGID_00000083061527131353364120000012120185286370002842_" gradientUnits="userSpaceOnUse" x1="160.6891" y1="281.5553" x2="237.3073" y2="281.5553">
				<stop  offset="0" style="stop-color:#00523D"/>
				<stop  offset="1" style="stop-color:#003321"/>
			</linearGradient>
			<polygon style="fill:url(#SVGID_00000083061527131353364120000012120185286370002842_);" points="237.31,319.96 174.28,233.27 
				160.69,243.15 223.72,329.84 			"/>
			<path class="st16" d="M213.26,256.55l-21.57-29.67c-0.27-0.38-0.8-0.46-1.18-0.19l-0.2,0.15c-0.38,0.27-0.46,0.8-0.19,1.18
				l21.57,29.67c0.27,0.38,0.8,0.46,1.18,0.19l0.2-0.15C213.45,257.45,213.54,256.92,213.26,256.55z"/>
			<path class="st16" d="M213.35,248.54l-17.8-24.48c-0.27-0.38-0.8-0.46-1.18-0.19l-0.2,0.15c-0.38,0.27-0.46,0.8-0.19,1.18
				l17.8,24.48c0.27,0.38,0.8,0.46,1.18,0.19l0.2-0.15C213.54,249.45,213.62,248.92,213.35,248.54z"/>
			<path class="st16" d="M220.99,250.93l-21.57-29.67c-0.27-0.38-0.8-0.46-1.18-0.19l-0.2,0.15c-0.38,0.27-0.46,0.8-0.19,1.18
				l21.57,29.67c0.27,0.38,0.8,0.46,1.18,0.19l0.2-0.15C221.18,251.83,221.26,251.3,220.99,250.93z"/>
			<path class="st17" d="M250.9,292.06l-6.78-9.33c-1.21-1.66-3.53-2.03-5.19-0.82l-3.29,2.39c-1.66,1.21-2.03,3.53-0.82,5.19
				l6.78,9.33c1.21,1.66,3.53,2.03,5.19,0.82l3.29-2.39C251.74,296.04,252.11,293.72,250.9,292.06z"/>
		</g>
		<g>
			
				<linearGradient id="SVGID_00000074414951064944898560000003792332031913756060_" gradientUnits="userSpaceOnUse" x1="563.6904" y1="215.6967" x2="552.4022" y2="293.732">
				<stop  offset="0" style="stop-color:#00CF9B"/>
				<stop  offset="1" style="stop-color:#007C5A"/>
			</linearGradient>
			<path style="fill:url(#SVGID_00000074414951064944898560000003792332031913756060_);" d="M559.59,229.19l-62.01,71.21
				c-2.31,2.65-2.03,6.68,0.62,8.99l40.13,34.95c2.65,2.31,6.68,2.03,8.99-0.62l62.01-71.21c2.31-2.65,2.03-6.68-0.62-8.99
				l-40.13-34.95C565.93,226.26,561.9,226.54,559.59,229.19z"/>
			
				<linearGradient id="SVGID_00000012447720075386183440000013580764647678706854_" gradientUnits="userSpaceOnUse" x1="519.486" y1="293.0429" x2="602.5402" y2="293.0429">
				<stop  offset="0" style="stop-color:#00523D"/>
				<stop  offset="1" style="stop-color:#003321"/>
			</linearGradient>
			<polygon style="fill:url(#SVGID_00000012447720075386183440000013580764647678706854_);" points="589.87,247.11 519.49,327.94 
				532.15,338.97 602.54,258.15 			"/>
			<path class="st17" d="M533.45,284.74l-24.09,27.66c-0.31,0.35-0.27,0.89,0.08,1.19l0.19,0.16c0.35,0.31,0.89,0.27,1.19-0.08
				l24.09-27.66c0.31-0.35,0.27-0.89-0.08-1.19l-0.19-0.16C534.29,284.35,533.75,284.38,533.45,284.74z"/>
			<path class="st17" d="M525.63,286.44l-19.87,22.82c-0.31,0.35-0.27,0.89,0.08,1.19l0.19,0.16c0.35,0.31,0.89,0.27,1.19-0.08
				l19.87-22.82c0.31-0.35,0.27-0.89-0.08-1.19l-0.19-0.16C526.47,286.05,525.93,286.09,525.63,286.44z"/>
			<path class="st17" d="M526.24,278.46l-24.09,27.66c-0.31,0.35-0.27,0.89,0.08,1.19l0.19,0.16c0.35,0.31,0.89,0.27,1.19-0.08
				l24.09-27.66c0.31-0.35,0.27-0.89-0.08-1.19l-0.19-0.16C527.08,278.07,526.55,278.11,526.24,278.46z"/>
			
				<linearGradient id="SVGID_00000063619971970468686700000010871175346428328126_" gradientUnits="userSpaceOnUse" x1="564.8707" y1="215.8675" x2="553.5826" y2="293.9027">
				<stop  offset="0" style="stop-color:#00CF9B"/>
				<stop  offset="1" style="stop-color:#007C5A"/>
			</linearGradient>
			<path style="fill:url(#SVGID_00000063619971970468686700000010871175346428328126_);" d="M559.64,240.1l-7.58,8.7
				c-1.35,1.55-1.19,3.89,0.36,5.24l3.07,2.67c1.55,1.35,3.89,1.19,5.24-0.36l7.57-8.7c1.35-1.55,1.19-3.89-0.36-5.24l-3.07-2.67
				C563.34,238.39,560.99,238.56,559.64,240.1z"/>
		</g>
		<g>
			
				<linearGradient id="SVGID_00000178194748318748520850000000353517508135211164_" gradientUnits="userSpaceOnUse" x1="222.547" y1="299.7803" x2="263.4969" y2="299.7803">
				<stop  offset="0" style="stop-color:#FF9300"/>
				<stop  offset="1" style="stop-color:#F84B00"/>
			</linearGradient>
			<path style="fill:url(#SVGID_00000178194748318748520850000000353517508135211164_);" d="M231.16,262.53
				c8.93,3.56,15.49,8.56,20.29,14.3c-1.92,3.6-4.13,7.93-4.13,7.93l7.18-3.82c15.61,23.62,6.16,56.1,6.16,56.1
				c-19.76-7.5-29.94-17.74-34.65-28.23c2.12-2.01,5.32-4.96,5.32-4.96l-6.67,1.52c-1.79-5.3-2.3-10.59-2.06-15.55
				c3.47-0.77,7.39-1.73,7.39-1.73l-6.93-3.04C224.94,272.19,231.16,262.53,231.16,262.53z"/>
			
				<linearGradient id="SVGID_00000052077946030121847420000007120826672942795940_" gradientUnits="userSpaceOnUse" x1="189.6689" y1="250.7503" x2="236.7846" y2="295.5756">
				<stop  offset="0" style="stop-color:#FF9300"/>
				<stop  offset="1" style="stop-color:#F84B00"/>
			</linearGradient>
			<path style="fill:url(#SVGID_00000052077946030121847420000007120826672942795940_);" d="M226.01,308.8
				c2.12-2.01,5.32-4.96,5.32-4.96l-6.67,1.52c-1.79-5.3-2.3-10.59-2.06-15.55c3.47-0.77,7.39-1.73,7.39-1.73l-6.93-3.04
				c1.87-12.86,8.09-22.52,8.09-22.52c20.77,26.03,29.5,74.51,29.5,74.51C240.9,329.53,230.72,319.29,226.01,308.8z"/>
		</g>
		<g>
			<path class="st5" d="M154.53,283.12c20.01-3.03,37.27-0.94,52.08,4.38c0.34,8.59,0.94,18.81,0.94,18.81l8.99-14.59
				c53.51,26.3,70.91,95.39,70.91,95.39c-43.89,7.4-73.3-0.37-93.01-14.42c1.72-5.91,4.39-14.67,4.39-14.67l-10.51,9.86
				c-8.89-7.72-15.45-16.79-20.29-26.07c5.49-5.09,11.6-11.01,11.6-11.01l-15.82,1.86C153.51,307.3,154.53,283.12,154.53,283.12z"/>
			
				<linearGradient id="SVGID_00000176020426091427480180000007170970756538392709_" gradientUnits="userSpaceOnUse" x1="154.4995" y1="336.5414" x2="287.4564" y2="336.5414">
				<stop  offset="0" style="stop-color:#C7CC39"/>
				<stop  offset="0.5065" style="stop-color:#529D48"/>
				<stop  offset="1" style="stop-color:#00804B"/>
			</linearGradient>
			<path style="fill:url(#SVGID_00000176020426091427480180000007170970756538392709_);" d="M194.44,372.69
				c1.72-5.91,4.39-14.67,4.39-14.67l-10.51,9.86c-8.89-7.72-15.45-16.79-20.29-26.07c5.49-5.09,11.6-11.01,11.6-11.01l-15.82,1.86
				c-10.3-25.35-9.28-49.54-9.28-49.54c65.45,25.19,132.93,103.99,132.93,103.99C243.57,394.51,214.16,386.74,194.44,372.69z"/>
		</g>
		<g>
			
				<linearGradient id="SVGID_00000171691796552517621140000018012748697023484289_" gradientUnits="userSpaceOnUse" x1="226.1418" y1="364.142" x2="215.6716" y2="472.5517">
				<stop  offset="0" style="stop-color:#00CF9B"/>
				<stop  offset="1" style="stop-color:#007C5A"/>
			</linearGradient>
			<path style="fill:url(#SVGID_00000171691796552517621140000018012748697023484289_);" d="M168.87,375.44
				c10.58-8.28,21.23-12.7,31.54-14.45c3,4.85,6.68,10.56,6.68,10.56l0.44-11.37c39.51-2.25,72.1,32.01,72.1,32.01
				c-22.95,18.59-42.49,23.69-58.47,22c-0.93-3.98-2.25-9.91-2.25-9.91l-2.86,9.13c-7.66-1.56-14.41-4.66-20.23-8.45
				c1.52-4.73,3.11-10.15,3.11-10.15l-8.54,6.23C176.16,389.75,168.87,375.44,168.87,375.44z"/>
			
				<linearGradient id="SVGID_00000119078138980166070210000010502997676016604092_" gradientUnits="userSpaceOnUse" x1="168.8662" y1="394.3575" x2="279.6165" y2="394.3575">
				<stop  offset="0" style="stop-color:#00CF9B"/>
				<stop  offset="1" style="stop-color:#007C5A"/>
			</linearGradient>
			<path style="fill:url(#SVGID_00000119078138980166070210000010502997676016604092_);" d="M221.15,414.2
				c-0.93-3.98-2.25-9.91-2.25-9.91l-2.86,9.13c-7.66-1.56-14.41-4.66-20.23-8.45c1.52-4.73,3.11-10.15,3.11-10.15l-8.54,6.23
				c-14.22-11.3-21.52-25.61-21.52-25.61c46.05-6.78,110.75,16.76,110.75,16.76C256.66,410.79,237.13,415.89,221.15,414.2z"/>
		</g>
		<path class="st26" d="M352.04,167.14c0,0,0.65,6.44,5.74,6.89c-5.09,0.45-5.74,6.89-5.74,6.89s-0.65-6.44-5.74-6.89
			C351.39,173.58,352.04,167.14,352.04,167.14z"/>
		<path class="st5" d="M344.45,65.78c0,0,0.33,3.27,2.91,3.5c-2.58,0.23-2.91,3.5-2.91,3.5s-0.33-3.27-2.91-3.5
			C344.12,69.05,344.45,65.78,344.45,65.78z"/>
		
			<linearGradient id="SVGID_00000148624601293633781980000004813234379377870499_" gradientUnits="userSpaceOnUse" x1="302.1219" y1="-56.9338" x2="208.7631" y2="61.2917">
			<stop  offset="0" style="stop-color:#FF9300"/>
			<stop  offset="1" style="stop-color:#F84B00"/>
		</linearGradient>
		<path style="fill:url(#SVGID_00000148624601293633781980000004813234379377870499_);" d="M177.64,93.76c0,0,0.66,6.5,5.79,6.95
			c-5.13,0.45-5.79,6.95-5.79,6.95s-0.66-6.5-5.79-6.95C176.98,100.26,177.64,93.76,177.64,93.76z"/>
		<path class="st5" d="M252.49,117.55c0,0,0.71,7.02,6.25,7.5c-5.54,0.49-6.25,7.5-6.25,7.5s-0.71-7.02-6.25-7.5
			C251.78,124.57,252.49,117.55,252.49,117.55z"/>
		
			<linearGradient id="SVGID_00000072988709984186605060000002343635278596984458_" gradientUnits="userSpaceOnUse" x1="527.4199" y1="120.9774" x2="434.0611" y2="239.203">
			<stop  offset="0" style="stop-color:#FF9300"/>
			<stop  offset="1" style="stop-color:#F84B00"/>
		</linearGradient>
		<path style="fill:url(#SVGID_00000072988709984186605060000002343635278596984458_);" d="M552.35,81.9c0,0,0.71,7.02,6.25,7.5
			c-5.54,0.49-6.25,7.5-6.25,7.5s-0.71-7.02-6.25-7.5C551.64,88.92,552.35,81.9,552.35,81.9z"/>
		
			<linearGradient id="SVGID_00000058582918615058539360000012629198997773637523_" gradientUnits="userSpaceOnUse" x1="461.5383" y1="68.9529" x2="368.1796" y2="187.1783">
			<stop  offset="0" style="stop-color:#FF9300"/>
			<stop  offset="1" style="stop-color:#F84B00"/>
		</linearGradient>
		<path style="fill:url(#SVGID_00000058582918615058539360000012629198997773637523_);" d="M418.19,119.57c0,0,0.41,4.01,3.57,4.28
			c-3.16,0.28-3.57,4.28-3.57,4.28s-0.41-4.01-3.57-4.28C417.78,123.57,418.19,119.57,418.19,119.57z"/>
		<g>
			
				<linearGradient id="SVGID_00000129890344711304873720000008774951579692220579_" gradientUnits="userSpaceOnUse" x1="260.5074" y1="307.1574" x2="545.417" y2="307.1574">
				<stop  offset="0" style="stop-color:#00523D"/>
				<stop  offset="1" style="stop-color:#003321"/>
			</linearGradient>
			<path style="fill:url(#SVGID_00000129890344711304873720000008774951579692220579_);" d="M504.71,411.31H301.21
				c-22.48,0-40.7-18.22-40.7-40.7v-126.9c0-22.48,18.22-40.7,40.7-40.7h203.51c22.48,0,40.7,18.22,40.7,40.7v126.9
				C545.42,393.09,527.19,411.31,504.71,411.31z"/>
			<g>
				<path class="st31" d="M525.13,403.18H281.15c-7.32,0-13.25-5.93-13.25-13.25V224.49c0-7.32,5.93-13.25,13.25-13.25h243.98
					V403.18z"/>
				<rect x="278.31" y="236.68" class="st1" width="234.73" height="163.2"/>
				
					<linearGradient id="SVGID_00000076591839223512107700000011956894258430081196_" gradientUnits="userSpaceOnUse" x1="278.3092" y1="231.3651" x2="513.0411" y2="231.3651">
					<stop  offset="0" style="stop-color:#FF9300"/>
					<stop  offset="1" style="stop-color:#F84B00"/>
				</linearGradient>
				<path style="fill:url(#SVGID_00000076591839223512107700000011956894258430081196_);" d="M513.04,241.16v-12.09
					c0-4.14-3.36-7.5-7.5-7.5H285.81c-4.14,0-7.5,3.36-7.5,7.5v12.09H513.04z"/>
				<path class="st1" d="M501.11,236.12h-97.32c-1.03,0-1.86-0.83-1.86-1.86v-5.8c0-1.03,0.83-1.86,1.86-1.86h97.32
					c1.03,0,1.86,0.83,1.86,1.86v5.8C502.97,235.29,502.13,236.12,501.11,236.12z"/>
				<path class="st1" d="M297.67,230.83c0.34,2.7-1.93,4.98-4.64,4.64c-1.84-0.23-3.33-1.72-3.56-3.56
					c-0.34-2.7,1.93-4.98,4.64-4.64C295.95,227.5,297.44,228.99,297.67,230.83z"/>
				<path class="st1" d="M315.73,230.83c0.34,2.7-1.93,4.98-4.64,4.64c-1.84-0.23-3.33-1.72-3.56-3.56
					c-0.34-2.7,1.93-4.98,4.64-4.64C314.01,227.5,315.5,228.99,315.73,230.83z"/>
				<path class="st1" d="M333.79,230.83c0.34,2.7-1.93,4.98-4.64,4.64c-1.84-0.23-3.33-1.72-3.56-3.56
					c-0.34-2.7,1.93-4.98,4.64-4.64C332.07,227.5,333.55,228.99,333.79,230.83z"/>
				<g>
					
						<linearGradient id="SVGID_00000180341885500115256850000014072832020343693231_" gradientUnits="userSpaceOnUse" x1="419.6798" y1="250.7382" x2="349.9945" y2="388.6611">
						<stop  offset="0" style="stop-color:#C7CC39"/>
						<stop  offset="0.5065" style="stop-color:#529D48"/>
						<stop  offset="1" style="stop-color:#00804B"/>
					</linearGradient>
					<path style="fill:url(#SVGID_00000180341885500115256850000014072832020343693231_);" d="M428.85,330.55H362.5
						c-5.19,0-9.4-4.21-9.4-9.4v-45.81c0-5.19,4.21-9.4,9.4-9.4h66.35c5.19,0,9.4,4.21,9.4,9.4v45.81
						C438.25,326.35,434.04,330.55,428.85,330.55z"/>
					<g>
						<g>
							<g>
								
									<linearGradient id="SVGID_00000083790896554928658740000013724595229746680764_" gradientUnits="userSpaceOnUse" x1="381.7115" y1="316.3694" x2="389.3503" y2="316.3694">
									<stop  offset="0" style="stop-color:#00523D"/>
									<stop  offset="1" style="stop-color:#003321"/>
								</linearGradient>
								<path style="fill:url(#SVGID_00000083790896554928658740000013724595229746680764_);" d="M385.53,320.19
									c-2.11,0-3.82-1.71-3.82-3.82c0-2.11,1.71-3.82,3.82-3.82c2.11,0,3.82,1.71,3.82,3.82
									C389.35,318.48,387.64,320.19,385.53,320.19z M385.53,313.72c-1.46,0-2.65,1.19-2.65,2.65c0,1.46,1.19,2.65,2.65,2.65
									c1.46,0,2.65-1.19,2.65-2.65C388.19,314.91,386.99,313.72,385.53,313.72z"/>
							</g>
							<g>
								
									<linearGradient id="SVGID_00000163073876146324003540000003001814629173944478_" gradientUnits="userSpaceOnUse" x1="397.0959" y1="316.3694" x2="404.7346" y2="316.3694">
									<stop  offset="0" style="stop-color:#00523D"/>
									<stop  offset="1" style="stop-color:#003321"/>
								</linearGradient>
								<path style="fill:url(#SVGID_00000163073876146324003540000003001814629173944478_);" d="M400.92,320.19
									c-2.11,0-3.82-1.71-3.82-3.82c0-2.11,1.71-3.82,3.82-3.82c2.11,0,3.82,1.71,3.82,3.82
									C404.73,318.48,403.02,320.19,400.92,320.19z M400.92,313.72c-1.46,0-2.65,1.19-2.65,2.65c0,1.46,1.19,2.65,2.65,2.65
									c1.46,0,2.65-1.19,2.65-2.65C403.57,314.91,402.38,313.72,400.92,313.72z"/>
							</g>
							
								<linearGradient id="SVGID_00000103245043401815901630000007788502709927649444_" gradientUnits="userSpaceOnUse" x1="367.7713" y1="294.4002" x2="423.5792" y2="294.4002">
								<stop  offset="0" style="stop-color:#00523D"/>
								<stop  offset="1" style="stop-color:#003321"/>
							</linearGradient>
							<path style="fill:url(#SVGID_00000103245043401815901630000007788502709927649444_);" d="M423.56,276.7L423.56,276.7
								c-0.08-0.27-0.39-0.44-0.7-0.37l-10.61,2.31c-0.22,0.05-0.4,0.21-0.44,0.41l-1.08,5.41c-0.05,0.24-0.29,0.42-0.57,0.42
								h-41.81c-0.4,0-0.68,0.35-0.55,0.68l8.92,21.75c0.08,0.2,0.3,0.34,0.55,0.34h28.12c0.36,0,0.64,0.28,0.57,0.59l-0.59,2.84
								c-0.05,0.24-0.29,0.42-0.57,0.42h-23.7c-0.32,0-0.58,0.23-0.58,0.51l0,0c0,0.28,0.26,0.51,0.58,0.51h24.68
								c0.28,0,0.53-0.18,0.57-0.42l5.34-26.58l0.13-0.63h0l1-5c0.04-0.2,0.21-0.36,0.44-0.41l9.86-2.15
								C423.45,277.24,423.64,276.97,423.56,276.7z M373.02,293.21h7.04c0.28,0,0.52,0.17,0.57,0.41l1.3,5.57
								c0.07,0.31-0.2,0.61-0.57,0.61h-6.06c-0.25,0-0.47-0.13-0.55-0.34l-2.29-5.57C372.33,293.56,372.61,293.21,373.02,293.21z
								 M382.44,293.21h7.2c0.32,0,0.58,0.23,0.58,0.51v5.57c0,0.28-0.26,0.51-0.58,0.51h-5.89c-0.28,0-0.52-0.17-0.57-0.41
								l-1.3-5.57C381.79,293.51,382.07,293.21,382.44,293.21z M391.38,291.69v-5.3c0-0.28,0.26-0.51,0.58-0.51h7.2
								c0.35,0,0.62,0.26,0.58,0.56l-0.66,5.3c-0.03,0.26-0.28,0.45-0.58,0.45h-6.54C391.64,292.2,391.38,291.97,391.38,291.69z
								 M398.83,293.77l-0.69,5.57c-0.03,0.26-0.28,0.45-0.58,0.45h-5.6c-0.32,0-0.58-0.23-0.58-0.51v-5.57
								c0-0.28,0.26-0.51,0.58-0.51h6.29C398.6,293.21,398.87,293.47,398.83,293.77z M389.64,292.2h-7.67
								c-0.28,0-0.52-0.17-0.57-0.41l-1.24-5.3c-0.07-0.31,0.2-0.61,0.57-0.61h8.91c0.32,0,0.58,0.23,0.58,0.51v5.3
								C390.22,291.97,389.96,292.2,389.64,292.2z M390.22,301.32v4.79c0,0.28-0.26,0.51-0.58,0.51h-4.3
								c-0.28,0-0.52-0.17-0.57-0.41l-1.12-4.79c-0.07-0.31,0.2-0.61,0.57-0.61h5.42C389.96,300.81,390.22,301.04,390.22,301.32z
								 M391.97,300.81h5.35c0.35,0,0.62,0.26,0.58,0.56l-0.59,4.79c-0.03,0.26-0.28,0.45-0.58,0.45h-4.75
								c-0.32,0-0.58-0.23-0.58-0.51v-4.79C391.38,301.04,391.64,300.81,391.97,300.81z M399.66,300.81h7.06
								c0.36,0,0.64,0.28,0.57,0.6l-0.97,4.79c-0.05,0.24-0.29,0.42-0.57,0.42h-6.68c-0.35,0-0.62-0.26-0.58-0.56l0.59-4.79
								C399.11,301.01,399.36,300.81,399.66,300.81z M399.33,299.24l0.69-5.57c0.03-0.26,0.28-0.45,0.58-0.45h7.66
								c0.36,0,0.64,0.28,0.57,0.6l-1.13,5.57c-0.05,0.24-0.29,0.42-0.57,0.42h-7.22C399.56,299.8,399.29,299.54,399.33,299.24z
								 M408.67,292.2h-7.82c-0.35,0-0.62-0.26-0.58-0.56l0.66-5.3c0.03-0.26,0.28-0.45,0.58-0.45h8.24c0.36,0,0.64,0.28,0.57,0.6
								l-1.08,5.3C409.2,292.02,408.95,292.2,408.67,292.2z M378.92,286.29l1.24,5.3c0.07,0.31-0.2,0.61-0.57,0.61h-7.4
								c-0.25,0-0.47-0.13-0.55-0.34l-2.18-5.3c-0.14-0.33,0.15-0.68,0.55-0.68h8.34C378.62,285.88,378.86,286.05,378.92,286.29z
								 M376.13,300.81h5.7c0.28,0,0.52,0.17,0.57,0.41l1.12,4.79c0.07,0.31-0.2,0.61-0.57,0.61h-4.86c-0.25,0-0.47-0.13-0.55-0.34
								l-1.96-4.79C375.45,301.16,375.73,300.81,376.13,300.81z"/>
						</g>
					</g>
				</g>
				<g>
					
						<linearGradient id="SVGID_00000085939111656701043740000003418349560669529528_" gradientUnits="userSpaceOnUse" x1="363.1015" y1="383.42" x2="428.2488" y2="383.42">
						<stop  offset="0" style="stop-color:#FF9300"/>
						<stop  offset="1" style="stop-color:#F84B00"/>
					</linearGradient>
					<path style="fill:url(#SVGID_00000085939111656701043740000003418349560669529528_);" d="M425.84,389.58h-60.34
						c-1.33,0-2.41-1.08-2.41-2.41v-7.5c0-1.33,1.08-2.41,2.41-2.41h60.34c1.33,0,2.41,1.08,2.41,2.41v7.5
						C428.25,388.5,427.17,389.58,425.84,389.58z"/>
				</g>
				<g>
					
						<linearGradient id="SVGID_00000130644332008883499240000003113360956108498856_" gradientUnits="userSpaceOnUse" x1="446.4429" y1="260.9873" x2="372.9335" y2="406.4789">
						<stop  offset="0" style="stop-color:#C7CC39"/>
						<stop  offset="0.5065" style="stop-color:#529D48"/>
						<stop  offset="1" style="stop-color:#00804B"/>
					</linearGradient>
					
						<rect x="352.91" y="360.12" style="fill:url(#SVGID_00000130644332008883499240000003113360956108498856_);" width="85.53" height="2.69"/>
					
						<linearGradient id="SVGID_00000008134894770681264460000016005096883342237347_" gradientUnits="userSpaceOnUse" x1="448.9522" y1="262.255" x2="375.4429" y2="407.7465">
						<stop  offset="0" style="stop-color:#C7CC39"/>
						<stop  offset="0.5065" style="stop-color:#529D48"/>
						<stop  offset="1" style="stop-color:#00804B"/>
					</linearGradient>
					
						<rect x="352.91" y="366.36" style="fill:url(#SVGID_00000008134894770681264460000016005096883342237347_);" width="85.53" height="2.69"/>
					
						<linearGradient id="SVGID_00000160151607776267973100000007510050745094040217_" gradientUnits="userSpaceOnUse" x1="443.9335" y1="259.7195" x2="370.4241" y2="405.2112">
						<stop  offset="0" style="stop-color:#C7CC39"/>
						<stop  offset="0.5065" style="stop-color:#529D48"/>
						<stop  offset="1" style="stop-color:#00804B"/>
					</linearGradient>
					
						<rect x="352.91" y="353.89" style="fill:url(#SVGID_00000160151607776267973100000007510050745094040217_);" width="85.53" height="2.69"/>
					
						<linearGradient id="SVGID_00000064331750962653999630000006860481998806717063_" gradientUnits="userSpaceOnUse" x1="441.4241" y1="258.4519" x2="367.9147" y2="403.9435">
						<stop  offset="0" style="stop-color:#C7CC39"/>
						<stop  offset="0.5065" style="stop-color:#529D48"/>
						<stop  offset="1" style="stop-color:#00804B"/>
					</linearGradient>
					
						<rect x="352.91" y="347.65" style="fill:url(#SVGID_00000064331750962653999630000006860481998806717063_);" width="85.53" height="2.69"/>
					
						<linearGradient id="SVGID_00000137115214245225291160000012550907508364679860_" gradientUnits="userSpaceOnUse" x1="438.9148" y1="257.1838" x2="365.4054" y2="402.6754">
						<stop  offset="0" style="stop-color:#C7CC39"/>
						<stop  offset="0.5065" style="stop-color:#529D48"/>
						<stop  offset="1" style="stop-color:#00804B"/>
					</linearGradient>
					
						<rect x="352.91" y="341.42" style="fill:url(#SVGID_00000137115214245225291160000012550907508364679860_);" width="85.53" height="2.69"/>
				</g>
			</g>
			<path class="st43" d="M542.8,306.57c0.35,4.45-3.34,8.14-7.79,7.79c-3.5-0.28-6.34-3.11-6.62-6.61
				c-0.35-4.45,3.34-8.14,7.79-7.79C539.69,300.23,542.52,303.07,542.8,306.57z"/>
			<g>
				<path class="st44" d="M537.75,310.17h-4.31c-0.47,0-0.86-0.38-0.86-0.86V305c0-0.47,0.38-0.86,0.86-0.86h4.31
					c0.47,0,0.86,0.38,0.86,0.86v4.31C538.61,309.78,538.23,310.17,537.75,310.17z M533.45,304.38c-0.34,0-0.62,0.28-0.62,0.62v4.31
					c0,0.34,0.28,0.62,0.62,0.62h4.31c0.34,0,0.62-0.28,0.62-0.62V305c0-0.34-0.28-0.62-0.62-0.62H533.45z"/>
			</g>
		</g>
		<g>
			<path class="st16" d="M275.7,152.22c1.34-5.84,6.57-10.19,12.81-10.19c1.15,0,2.26,0.15,3.32,0.42
				c3.08-6.59,9.77-11.16,17.53-11.16c2.01,0,3.94,0.31,5.76,0.87c4.18-6.92,11.76-11.54,20.43-11.54c10.31,0,19.1,6.55,22.42,15.71
				c2.36-1.31,5.07-2.06,7.96-2.06c9.04,0,16.37,7.33,16.37,16.37c0,0.54-0.03,1.07-0.08,1.59H275.7z"/>
		</g>
		<g>
			<path class="st16" d="M209.14,106.15c0.77-3.37,3.79-5.89,7.4-5.89c0.66,0,1.3,0.09,1.92,0.24c1.78-3.81,5.65-6.45,10.13-6.45
				c1.16,0,2.28,0.18,3.33,0.5c2.41-3.99,6.8-6.67,11.8-6.67c5.96,0,11.03,3.78,12.95,9.07c1.36-0.76,2.93-1.19,4.6-1.19
				c5.22,0,9.45,4.23,9.45,9.45c0,0.31-0.02,0.62-0.05,0.92H209.14z"/>
		</g>
		<g>
			<g>
				<path class="st16" d="M440.04,91.03c-0.77-3.37-3.79-5.89-7.4-5.89c-0.66,0-1.3,0.09-1.92,0.24c-1.78-3.81-5.64-6.45-10.13-6.45
					c-1.16,0-2.28,0.18-3.33,0.5c-2.41-3.99-6.8-6.67-11.8-6.67c-5.96,0-11.03,3.78-12.95,9.07c-1.36-0.76-2.93-1.19-4.6-1.19
					c-5.22,0-9.45,4.23-9.45,9.45c0,0.31,0.02,0.62,0.05,0.92H440.04z"/>
			</g>
		</g>
	</g>
</g>
</svg>
