<?xml version="1.0" encoding="utf-8"?>
<!-- Generator: Adobe Illustrator 27.0.0, SVG Export Plug-In . SVG Version: 6.00 Build 0)  -->
<svg version="1.1" id="Layer_1" xmlns="http://www.w3.org/2000/svg" xmlns:xlink="http://www.w3.org/1999/xlink" x="0px" y="0px"
	 viewBox="0 0 841.89 595.28" style="enable-background:new 0 0 841.89 595.28;" xml:space="preserve">
<style type="text/css">
	.st0{opacity:0.5;fill:#FF9200;}
	.st1{fill:#FFFFFF;}
	.st2{fill:#FFFFFF;stroke:#000000;stroke-width:4.557;stroke-miterlimit:10;}
	.st3{fill:url(#SVGID_1_);}
	.st4{fill:url(#SVGID_00000043458714837150594150000010666020244431951493_);}
	.st5{fill:#ADD962;}
	.st6{fill:url(#SVGID_00000060718924047127565080000006166318298501399460_);}
	.st7{fill:url(#SVGID_00000067945434143175853670000007161884969126347418_);}
	.st8{fill:#4B77A2;}
	.st9{fill:url(#SVGID_00000078723503368591726570000014476149761953835142_);}
	.st10{fill:url(#SVGID_00000025428687982829320650000014937836326616765106_);}
	.st11{fill:url(#SVGID_00000101067399380195890510000017521463450838596274_);}
	.st12{fill:url(#SVGID_00000043440665202506675930000017947941375042078859_);}
	.st13{fill:#07085F;}
	.st14{fill:url(#SVGID_00000040557541685278715300000001622877671717375649_);}
	.st15{fill:url(#SVGID_00000044899032989018593240000001145402726063724465_);}
	.st16{fill:#E8FDFB;}
	.st17{fill:#333333;}
	.st18{fill:url(#SVGID_00000086655857848447015000000017397165746849734533_);}
	.st19{fill:url(#SVGID_00000032627900030610761200000006306849561301158023_);}
	.st20{fill:url(#SVGID_00000011008844575668536030000011744467585055823771_);}
	.st21{fill:url(#SVGID_00000070089715844860551820000005713092634104489357_);}
	.st22{fill:url(#SVGID_00000005953050062636937200000010257766255842514048_);}
	.st23{fill:url(#SVGID_00000096059616715382480930000016906781187466644904_);}
	.st24{fill:url(#SVGID_00000131345612182711825370000005599247828695807149_);}
	.st25{fill:url(#SVGID_00000168810091257461500490000015078895546485484715_);}
	.st26{fill:#FFB01C;}
	.st27{fill:url(#SVGID_00000116947262733318688990000010736564137696931466_);}
	.st28{fill:url(#SVGID_00000013157003862674298170000010803674773400800646_);}
	.st29{fill:url(#SVGID_00000166657539996913369400000015251695513341646986_);}
	.st30{fill:url(#SVGID_00000088099243323053069360000006213607587498034593_);}
	.st31{fill:#D6EDA8;}
	.st32{fill:url(#SVGID_00000132768086451388417090000015506638389738451615_);}
	.st33{fill:url(#SVGID_00000043417484844420874070000009026910266885837735_);}
	.st34{fill:url(#SVGID_00000143590248932103819350000005542676229449264305_);}
	.st35{fill:url(#SVGID_00000078729989487375713620000012404756156117700743_);}
	.st36{fill:url(#SVGID_00000099662075307053443600000008709481590762808202_);}
	.st37{fill:url(#SVGID_00000060031594843442527790000010252590589490617239_);}
	.st38{fill:url(#SVGID_00000166668774706953751930000008827954465749945519_);}
	.st39{fill:url(#SVGID_00000037661263549008958450000014366100069245750922_);}
	.st40{fill:url(#SVGID_00000089550395125569790160000015331035853043286657_);}
	.st41{fill:url(#SVGID_00000072972292680593343410000000296820992464320162_);}
	.st42{fill:url(#SVGID_00000035528800347583496690000004082846067427636153_);}
	.st43{opacity:0.3;fill:#D4EEF7;}
	.st44{fill:#D4EEF7;}
	.st45{opacity:0.2;}
	.st46{fill:#FF9200;}
	.st47{fill:none;stroke:#1E333A;stroke-width:0.7089;stroke-miterlimit:10;}
	.st48{fill:#1E333A;}
	.st49{fill:#FFFFFF;stroke:#1E333A;stroke-width:0.7089;stroke-linecap:round;stroke-linejoin:round;stroke-miterlimit:10;}
	.st50{fill:#1E333A;stroke:#1E333A;stroke-width:0.7089;stroke-linecap:round;stroke-linejoin:round;stroke-miterlimit:10;}
	.st51{fill:none;stroke:#1E333A;stroke-width:0.7089;stroke-linecap:round;stroke-linejoin:round;stroke-miterlimit:10;}
	.st52{fill:none;stroke:#1E333A;stroke-width:2.1267;stroke-linecap:round;stroke-linejoin:round;stroke-miterlimit:10;}
	.st53{fill:#8A8A8A;}
	.st54{fill:#39EA9D;stroke:#1E333A;stroke-width:0.7089;stroke-linecap:round;stroke-linejoin:round;stroke-miterlimit:10;}
	.st55{fill:#FF9200;stroke:#000000;stroke-width:0.6055;stroke-miterlimit:10;}
	.st56{fill:#E5E5E5;stroke:#1E333A;stroke-width:0.7089;stroke-linecap:round;stroke-linejoin:round;stroke-miterlimit:10;}
	.st57{fill:#23CECA;}
	.st58{fill:#9BEBE2;}
	.st59{fill:none;stroke:#D1E2E8;stroke-width:2.4843;stroke-linecap:round;stroke-linejoin:round;}
	.st60{fill:none;stroke:#D1E2E8;stroke-width:2.4843;stroke-linecap:round;stroke-linejoin:round;stroke-dasharray:8.1577,8.1577;}
	.st61{fill:#FF3500;}
	.st62{fill:#FFA790;}
	.st63{fill:#FF696F;}
	.st64{fill:#002E3F;}
	.st65{fill:#005E70;}
	.st66{fill:#004253;}
	.st67{fill:#005060;}
	.st68{fill:#005E6E;}
	.st69{fill:#E0DFF0;}
	.st70{fill:#B6B6E6;}
	.st71{fill:#00B29D;}
	.st72{fill:#006570;}
	.st73{fill:#007881;}
	.st74{fill:#DC3D07;}
	.st75{fill:#FF7F77;}
	.st76{fill:#414042;}
	.st77{fill:#008790;}
	.st78{fill:#FFF000;}
	.st79{fill:#009B8D;}
	.st80{fill:#BBBDBF;}
	.st81{fill:#005D6B;}
	.st82{fill:#B8FFF6;}
	.st83{fill:#00AEB1;}
	.st84{fill:#00C4C2;}
	.st85{fill:#241F20;}
	.st86{fill:#003E43;}
</style>
<g>
	<g>
		<g class="st45">
			<path class="st46" d="M352.88,190.45c69.1-34.02,140.17-78.51,220.44-60.3c24.89,5.64,47.54,19.76,62.85,40.27
				c40.94,54.86,37.61,138.89,15.37,200.64c-2.9,8.06-6.53,15.87-11.19,23.07c-22.58,34.85-60.62,36.49-97.31,26.41
				c-31.05-8.53-58.56-17.3-90.64-8.63c-17.77,4.8-34.98,11.4-52.69,16.42c-24.1,6.84-48.95,11.48-74.04,11.95
				c-66.4,1.25-142.25-32.63-148.13-106.78c-0.38-4.81-0.45-9.64-0.23-14.45c1.33-29.6,11.11-59.25,38.23-74.62
				c27.26-15.45,59.61-21.56,88.77-32.52C320.88,205.68,336.97,198.28,352.88,190.45z"/>
		</g>
		<line class="st47" x1="678.39" y1="422.87" x2="163.5" y2="422.87"/>
		<g>
			<path class="st48" d="M175.06,354.56c2.3,1,7.91,0.88,7.92,0.88c0.06,0-1.21-3.68-1.31-3.9c-1.23-2.58-5.13-6.84-8.3-6.41
				c-2.28,0.31-3.56,2.6-3.04,4.75C170.85,352.07,173.11,353.7,175.06,354.56z"/>
			<path class="st48" d="M177,370.83c2.38,0.35,7.4-1.11,7.79-1.22c0.79,2.81,1.83,5.62,3.04,8.41c0.69,1.6,1.43,3.18,2.2,4.76
				c-0.46-0.67-0.87-1.27-0.94-1.34c-1.87-2.16-6.75-5.24-9.7-3.99c-2.12,0.9-2.74,3.44-1.68,5.38c1.09,1.98,3.69,2.96,5.81,3.27
				c2.14,0.31,6.44-0.84,7.58-1.16c0.3,0.6,0.59,1.21,0.9,1.81c1.45,2.89,2.91,5.77,4.26,8.64c0.48,1.01,0.91,2.02,1.34,3.03
				c-0.41-0.59-0.75-1.09-0.82-1.16c-1.87-2.16-6.75-5.24-9.7-3.99c-2.12,0.9-2.74,3.44-1.68,5.38c1.09,1.98,3.69,2.96,5.81,3.27
				c2.05,0.3,6.02-0.73,7.37-1.11c0.41,1.05,0.83,2.1,1.18,3.13c0.23,0.71,0.49,1.38,0.68,2.11c0.2,0.72,0.4,1.43,0.59,2.13
				c0.33,1.37,0.68,2.78,0.96,4.12c0.21,0.93,0.39,1.82,0.57,2.72c-0.46-1.01-1.41-2.97-1.5-3.13c-1.52-2.42-5.88-6.2-8.98-5.41
				c-2.23,0.57-3.23,2.99-2.47,5.06c0.78,2.12,3.2,3.48,5.24,4.11c2.25,0.69,7.22,0.06,7.84-0.02c0.3,1.49,0.57,2.94,0.81,4.31
				c0.18,1.01,0.34,1.99,0.49,2.93H206c-0.19-1.04-0.39-2.13-0.62-3.28c-0.3-1.51-0.64-3.12-1.02-4.77c0.37-0.15,2.5-1.01,4.38-2.06
				c1.64,1.77,5.84,3.85,6.38,4.11c-0.57,1.4-1.14,2.77-1.7,4.04c-0.29,0.68-0.58,1.31-0.86,1.95h2.11c0.17-0.4,0.33-0.79,0.5-1.21
				c0.59-1.42,1.18-2.96,1.78-4.54c0.6,0.13,5.53,1.13,7.82,0.61c2.08-0.47,4.6-1.65,5.54-3.71c0.91-2.01,0.1-4.5-2.09-5.23
				c-3.03-1.02-7.66,2.43-9.36,4.73c-0.1,0.14-1.02,1.73-1.59,2.74c0.24-0.65,0.48-1.27,0.72-1.94c0.48-1.32,0.93-2.65,1.41-4.08
				c0.21-0.7,0.42-1.41,0.63-2.12c0.23-0.7,0.38-1.47,0.57-2.22c0.41-1.73,0.75-3.51,1.04-5.3c1.16,0.42,5.29,1.86,7.42,1.71
				c2.13-0.15,4.8-0.93,6.03-2.82c1.21-1.85,0.78-4.43-1.27-5.49c-2.84-1.47-7.94,1.24-9.97,3.25c-0.13,0.13-1.42,1.74-2.11,2.63
				c0.17-1.08,0.34-2.16,0.48-3.26c0.39-3.17,0.69-6.4,1.01-9.61c0.1-0.98,0.2-1.97,0.31-2.95c0.41,0.15,5.28,1.97,7.68,1.8
				c2.13-0.15,4.8-0.93,6.03-2.82c1.21-1.85,0.78-4.43-1.27-5.49c-2.84-1.47-7.94,1.24-9.97,3.25c-0.15,0.15-2.01,2.47-2.45,3.08
				c0.23-2.16,0.48-4.31,0.81-6.43c0.45-2.91,1.06-5.75,1.84-8.45c0.19,0.07,5.27,1.99,7.72,1.82c2.13-0.15,4.8-0.93,6.03-2.83
				c1.21-1.85,0.78-4.43-1.27-5.49c-2.84-1.47-7.94,1.24-9.97,3.25c-0.16,0.16-2.15,2.65-2.48,3.13c0.05-0.16,0.08-0.33,0.13-0.49
				c0.88-2.87,2.09-5.55,3.35-8c0.73-1.42,1.5-2.74,2.29-4.01c0.91,0.45,5.08,2.48,7.31,2.57c2.13,0.09,4.87-0.4,6.31-2.15
				c1.4-1.71,1.26-4.32-0.66-5.6c-2.67-1.77-8.03,0.36-10.27,2.14c-0.12,0.1-1.25,1.22-2.06,2.05c0.36-0.57,0.72-1.16,1.08-1.69
				c1.34-2.02,2.69-3.78,3.9-5.33c0.69-0.88,1.34-1.66,1.95-2.38c1.12-0.02,5.65-0.16,7.63-1.09c1.93-0.91,4.14-2.6,4.61-4.81
				c0.46-2.16-0.87-4.42-3.17-4.66c-3.18-0.34-6.96,4.02-8.13,6.63c-0.1,0.23-1.27,3.93-1.21,3.93c0,0,0.05,0,0.07,0
				c-0.6,0.68-1.24,1.42-1.92,2.25c-1.24,1.53-2.64,3.27-4.02,5.26c-1.39,1.99-2.85,4.19-4.17,6.65c-1.33,2.46-2.61,5.12-3.56,8.02
				c-0.01,0.03-0.02,0.07-0.03,0.1c0.02-0.94-0.02-3.56-0.05-3.76c-0.37-2.83-2.74-8.09-5.89-8.68c-2.27-0.42-4.19,1.36-4.37,3.56
				c-0.18,2.25,1.45,4.51,3.04,5.93c1.8,1.6,6.78,3.16,7.18,3.28c-0.89,2.78-1.57,5.7-2.11,8.69c-0.31,1.71-0.56,3.45-0.79,5.19
				c-0.01-0.81-0.03-1.54-0.04-1.64c-0.37-2.83-2.74-8.09-5.89-8.68c-2.27-0.42-4.19,1.36-4.37,3.56c-0.18,2.25,1.45,4.51,3.04,5.93
				c1.62,1.44,5.84,2.85,6.96,3.21c-0.08,0.67-0.17,1.34-0.25,2.01c-0.38,3.21-0.75,6.42-1.21,9.55c-0.16,1.1-0.36,2.19-0.56,3.27
				c-0.01-0.72-0.03-1.33-0.04-1.42c-0.37-2.83-2.74-8.09-5.89-8.68c-2.27-0.42-4.19,1.36-4.37,3.56c-0.18,2.25,1.45,4.51,3.04,5.93
				c1.54,1.38,5.43,2.71,6.76,3.14c-0.23,1.1-0.47,2.21-0.74,3.27c-0.21,0.72-0.35,1.42-0.6,2.13c-0.23,0.71-0.45,1.41-0.68,2.1
				c-0.48,1.32-0.97,2.69-1.47,3.97c-0.34,0.89-0.68,1.73-1.03,2.58c0.17-1.1,0.47-3.25,0.47-3.44c0.04-1.9-0.63-4.98-1.97-7.15
				c0.01-0.28-0.01-0.56-0.05-0.84c-0.35-2.18-2.4-3.81-4.63-3.21c-3.09,0.82-5.05,6.25-5.2,9.11c-0.01,0.17,0.1,2.01,0.19,3.16
				c-0.16-0.67-0.3-1.33-0.47-2.02c-0.32-1.37-0.69-2.72-1.07-4.18c-0.21-0.7-0.42-1.4-0.64-2.12c-0.2-0.71-0.5-1.44-0.75-2.16
				c-0.61-1.67-1.31-3.34-2.06-5c1.2-0.29,5.43-1.37,7.13-2.67c1.69-1.3,3.49-3.43,3.47-5.68c-0.02-2.21-1.8-4.13-4.09-3.88
				c-3.18,0.35-5.94,5.41-6.52,8.21c-0.04,0.17-0.22,2.23-0.31,3.36c-0.45-0.99-0.9-1.99-1.4-2.98c-1.42-2.86-2.95-5.72-4.46-8.57
				c-0.46-0.87-0.92-1.75-1.37-2.63c0.43-0.1,5.49-1.27,7.4-2.73c1.69-1.3,3.49-3.43,3.47-5.68c-0.02-2.21-1.8-4.13-4.09-3.88
				c-3.18,0.35-5.94,5.41-6.52,8.21c-0.04,0.21-0.31,3.17-0.34,3.92c-1-1.93-1.98-3.86-2.87-5.8c-1.23-2.68-2.29-5.38-3.12-8.07
				c0.2-0.05,5.49-1.25,7.44-2.74c1.69-1.3,3.49-3.42,3.47-5.68c-0.02-2.21-1.8-4.13-4.09-3.88c-3.18,0.35-5.94,5.41-6.52,8.21
				c-0.05,0.22-0.33,3.4-0.34,3.98c-0.05-0.16-0.12-0.32-0.17-0.48c-0.85-2.88-1.32-5.78-1.62-8.52c-0.18-1.59-0.26-3.12-0.31-4.61
				c1.01-0.12,5.61-0.74,7.51-1.89c1.83-1.11,3.85-3.02,4.08-5.27c0.23-2.2-1.33-4.3-3.64-4.3c-3.2-0.01-6.5,4.73-7.38,7.45
				c-0.05,0.15-0.37,1.7-0.59,2.84c-0.01-0.67-0.03-1.37-0.03-2.01c0-2.42,0.16-4.64,0.31-6.6c0.1-1.11,0.2-2.12,0.31-3.06
				c0.93-0.64,4.63-3.25,5.77-5.12c1.11-1.82,2.02-4.45,1.19-6.55c-0.81-2.06-3.17-3.2-5.21-2.14c-2.84,1.47-3.59,7.19-3.12,10.01
				c0.04,0.24,1.11,3.98,1.16,3.95c0,0,0.05-0.03,0.06-0.04c-0.13,0.9-0.25,1.87-0.36,2.93c-0.2,1.96-0.4,4.18-0.45,6.61
				c-0.06,2.43-0.06,5.07,0.19,7.85c0.25,2.79,0.65,5.71,1.45,8.66c0.01,0.03,0.02,0.07,0.03,0.1c-0.5-0.79-1.99-2.96-2.12-3.11
				c-1.87-2.16-6.75-5.24-9.7-3.99c-2.12,0.9-2.74,3.44-1.68,5.38C172.28,369.54,174.89,370.52,177,370.83z"/>
			<path class="st48" d="M231.88,355.79c0.05,0.03,1.02-3.73,1.06-3.98c0.39-2.83-0.51-8.53-3.39-9.92c-2.08-1-4.4,0.2-5.15,2.28
				c-0.77,2.12,0.21,4.73,1.37,6.52C227.12,352.8,231.88,355.79,231.88,355.79z"/>
		</g>
		
			<rect x="623.22" y="159.24" transform="matrix(0.7071 -0.7071 0.7071 0.7071 67.7473 492.6111)" class="st47" width="10.57" height="10.57"/>
		
			<rect x="339.59" y="388.41" transform="matrix(0.7071 -0.7071 0.7071 0.7071 -176.6216 357.3575)" class="st47" width="6.94" height="6.94"/>
		
			<rect x="603.86" y="216.04" transform="matrix(0.7071 -0.7071 0.7071 0.7071 22.6658 493.7383)" class="st47" width="6.94" height="6.94"/>
		
			<rect x="336.39" y="137.07" transform="matrix(0.7071 -0.7071 0.7071 0.7071 0.1683 281.4823)" class="st47" width="6.94" height="6.94"/>
		
			<rect x="199.43" y="297.82" transform="matrix(0.7071 -0.7071 0.7071 0.7071 -154.3695 233.5321)" class="st47" width="10.57" height="10.57"/>
		<g>
			<g>
				<path class="st47" d="M552.62,169.05v-3.02c-2.23-0.09-3.89-0.8-5-2.14c-1.1-1.34-1.7-3.34-1.78-6l4.58-0.78
					c0.04,1.08,0.16,1.98,0.34,2.71c0.18,0.73,0.46,1.27,0.83,1.62c0.37,0.36,0.84,0.54,1.43,0.54c0.67,0,1.13-0.22,1.38-0.65
					c0.25-0.43,0.37-0.93,0.37-1.49c0-1.1-0.25-2.03-0.76-2.77c-0.51-0.75-1.21-1.5-2.09-2.25l-2.76-2.37
					c-0.63-0.58-1.19-1.18-1.69-1.78c-0.5-0.61-0.89-1.3-1.18-2.08c-0.29-0.78-0.44-1.7-0.44-2.76c0-2.03,0.58-3.62,1.74-4.75
					c1.16-1.14,2.71-1.78,4.66-1.93v-2.89h1.56v2.89c1.17,0.07,2.13,0.33,2.87,0.8c0.75,0.47,1.31,1.05,1.7,1.75
					c0.39,0.7,0.67,1.47,0.84,2.3c0.17,0.83,0.28,1.64,0.32,2.42l-4.64,0.68c-0.02-0.8-0.09-1.51-0.19-2.13
					c-0.11-0.62-0.3-1.1-0.58-1.44c-0.28-0.35-0.71-0.51-1.3-0.49c-0.61,0.02-1.07,0.26-1.38,0.71c-0.31,0.45-0.47,0.96-0.47,1.52
					c0,1,0.24,1.8,0.71,2.4c0.48,0.61,1.02,1.19,1.62,1.75l2.69,2.34c0.71,0.65,1.37,1.35,1.98,2.11c0.61,0.76,1.09,1.6,1.46,2.51
					c0.37,0.92,0.55,1.97,0.55,3.16c0,1.15-0.23,2.19-0.7,3.13c-0.47,0.94-1.14,1.7-2.01,2.29c-0.88,0.58-1.91,0.93-3.1,1.04v3.05
					H552.62z"/>
			</g>
			
				<ellipse transform="matrix(0.9868 -0.1619 0.1619 0.9868 -17.4219 91.5359)" class="st47" cx="552.82" cy="152.64" rx="24.67" ry="24.67"/>
			
				<ellipse transform="matrix(0.3759 -0.9266 0.9266 0.3759 203.543 607.522)" class="st47" cx="552.82" cy="152.64" rx="20.73" ry="20.73"/>
		</g>
		<g>
			<g>
				<path class="st47" d="M199.14,201.21v-3.02c-2.23-0.09-3.89-0.8-5-2.14c-1.1-1.34-1.7-3.34-1.78-6l4.58-0.78
					c0.04,1.08,0.16,1.98,0.34,2.71c0.18,0.73,0.46,1.27,0.83,1.62c0.37,0.36,0.84,0.54,1.43,0.54c0.67,0,1.13-0.22,1.38-0.65
					c0.25-0.43,0.37-0.93,0.37-1.49c0-1.1-0.25-2.03-0.76-2.77c-0.51-0.75-1.21-1.5-2.09-2.25l-2.76-2.37
					c-0.63-0.58-1.19-1.18-1.69-1.78c-0.5-0.61-0.89-1.3-1.18-2.08c-0.29-0.78-0.44-1.7-0.44-2.76c0-2.03,0.58-3.62,1.74-4.75
					c1.16-1.14,2.71-1.78,4.66-1.93v-2.89h1.56v2.89c1.17,0.07,2.13,0.33,2.87,0.8c0.75,0.47,1.31,1.05,1.7,1.75
					c0.39,0.7,0.67,1.47,0.84,2.3c0.17,0.83,0.28,1.64,0.32,2.42l-4.64,0.68c-0.02-0.8-0.09-1.51-0.19-2.13
					c-0.11-0.62-0.3-1.1-0.58-1.44c-0.28-0.35-0.71-0.51-1.3-0.49c-0.61,0.02-1.07,0.26-1.38,0.71c-0.31,0.45-0.47,0.96-0.47,1.52
					c0,1,0.24,1.8,0.71,2.4c0.48,0.61,1.02,1.19,1.62,1.75l2.69,2.34c0.71,0.65,1.37,1.35,1.98,2.11c0.61,0.76,1.09,1.6,1.46,2.51
					c0.37,0.92,0.55,1.97,0.55,3.16c0,1.15-0.23,2.19-0.7,3.13c-0.47,0.94-1.14,1.7-2.01,2.29c-0.88,0.58-1.91,0.93-3.1,1.04v3.05
					H199.14z"/>
			</g>
			
				<ellipse transform="matrix(0.9871 -0.1602 0.1602 0.9871 -27.0296 34.3174)" class="st47" cx="199.34" cy="184.81" rx="24.67" ry="24.67"/>
			
				<ellipse transform="matrix(0.3827 -0.9239 0.9239 0.3827 -47.6869 298.255)" class="st47" cx="199.34" cy="184.81" rx="20.73" ry="20.73"/>
		</g>
		<g>
			<g>
				<path class="st47" d="M288.33,412.5v-3.02c-2.23-0.09-3.89-0.8-5-2.14c-1.1-1.34-1.7-3.34-1.78-6l4.58-0.78
					c0.04,1.08,0.16,1.98,0.34,2.71c0.18,0.73,0.46,1.27,0.83,1.62c0.37,0.36,0.84,0.54,1.43,0.54c0.67,0,1.13-0.22,1.38-0.65
					c0.25-0.43,0.37-0.93,0.37-1.49c0-1.1-0.25-2.03-0.76-2.77c-0.51-0.75-1.21-1.5-2.09-2.25l-2.76-2.37
					c-0.63-0.58-1.19-1.18-1.69-1.78c-0.5-0.61-0.89-1.3-1.18-2.08c-0.29-0.78-0.44-1.7-0.44-2.76c0-2.03,0.58-3.62,1.74-4.75
					c1.16-1.14,2.71-1.78,4.66-1.93v-2.89h1.56v2.89c1.17,0.07,2.13,0.33,2.87,0.8c0.75,0.47,1.31,1.05,1.7,1.75
					c0.39,0.7,0.67,1.47,0.84,2.3c0.17,0.83,0.28,1.64,0.32,2.42l-4.64,0.68c-0.02-0.8-0.09-1.51-0.19-2.13
					c-0.11-0.62-0.3-1.1-0.58-1.44c-0.28-0.35-0.71-0.51-1.3-0.49c-0.61,0.02-1.07,0.26-1.38,0.71c-0.31,0.45-0.47,0.96-0.47,1.52
					c0,1,0.24,1.8,0.71,2.4c0.48,0.61,1.02,1.19,1.62,1.75l2.69,2.34c0.71,0.65,1.37,1.35,1.98,2.11c0.61,0.76,1.09,1.6,1.46,2.51
					c0.37,0.92,0.55,1.97,0.55,3.16c0,1.15-0.23,2.19-0.7,3.13c-0.47,0.94-1.14,1.7-2.01,2.29c-0.88,0.58-1.91,0.93-3.1,1.04v3.05
					H288.33z"/>
			</g>
			
				<ellipse transform="matrix(0.9871 -0.1602 0.1602 0.9871 -59.7218 51.3331)" class="st47" cx="288.54" cy="396.1" rx="24.67" ry="24.67"/>
			
				<ellipse transform="matrix(0.3827 -0.9239 0.9239 0.3827 -187.8265 511.0897)" class="st47" cx="288.54" cy="396.1" rx="20.73" ry="20.73"/>
		</g>
		<g>
			<g>
				<polygon class="st49" points="455.76,418.4 375.92,418.4 387.9,374.33 443.78,374.33 				"/>
				<polygon class="st50" points="450.33,398.44 443.78,374.33 387.9,374.33 381.35,398.44 				"/>
				<rect x="355.16" y="418.4" class="st49" width="121.35" height="4.47"/>
			</g>
			<rect x="243.26" y="159.85" class="st49" width="345.17" height="219.11"/>
			<polyline class="st49" points="348.22,370.6 254.32,370.6 254.32,168.2 577.36,168.2 577.36,370.6 356.33,370.6 			"/>
		</g>
		<g>
			<g>
				<g>
					<line class="st51" x1="427.94" y1="242.13" x2="425.61" y2="266.81"/>
					<line class="st51" x1="422.32" y1="242.13" x2="420.92" y2="266.81"/>
					<line class="st51" x1="416.71" y1="242.13" x2="416.22" y2="266.81"/>
					<line class="st51" x1="411.09" y1="242.13" x2="411.53" y2="266.81"/>
					<line class="st51" x1="405.48" y1="242.13" x2="406.83" y2="266.81"/>
					<line class="st51" x1="399.86" y1="242.13" x2="402.14" y2="266.81"/>
					<line class="st51" x1="394.25" y1="242.13" x2="397.44" y2="266.81"/>
				</g>
				<line class="st51" x1="432.68" y1="247.35" x2="389.12" y2="247.35"/>
				<line class="st51" x1="432" y1="252.68" x2="389.99" y2="252.68"/>
				<line class="st51" x1="431.52" y1="258" x2="390.67" y2="258"/>
				<line class="st51" x1="431.13" y1="263.33" x2="391.83" y2="263.33"/>
			</g>
			<polyline class="st52" points="440.04,226.25 435.1,229.74 430.36,267.49 392.51,267.49 387.86,241.93 432.78,241.93 			"/>
			<g>
				<path class="st50" d="M428.69,282.59c0-1.71,1.39-3.1,3.1-3.1c1.71,0,3.1,1.39,3.1,3.1c0,1.71-1.39,3.1-3.1,3.1
					C430.08,285.69,428.69,284.3,428.69,282.59z"/>
				<path class="st53" d="M432.29,278.62v3.78h-1.45c0,0,0.58-1.65-0.39-2.03c-0.97-0.39-2.52-1.36-2.71-1.94L432.29,278.62z"/>
			</g>
			<g>
				<path class="st50" d="M395.3,282.59c0-1.71,1.39-3.1,3.1-3.1c1.71,0,3.1,1.39,3.1,3.1c0,1.71-1.39,3.1-3.1,3.1
					C396.68,285.69,395.3,284.3,395.3,282.59z"/>
				<path class="st53" d="M398.89,278.62v3.78h-1.45c0,0,0.58-1.65-0.39-2.03c-0.97-0.39-2.52-1.36-2.71-1.94L398.89,278.62z"/>
			</g>
			<path class="st52" d="M430.36,267.49l3.86,6.19c0.49,0.79,0.56,1.78,0.18,2.62l0,0c-0.45,1-1.45,1.64-2.54,1.64h-38.57"/>
		</g>
		<g>
			<rect x="260.76" y="221.14" class="st49" width="45.43" height="63.81"/>
			<g>
				<polygon class="st46" points="306.19,239.35 299.65,231.68 285.58,256.15 276.3,250.24 260.76,284.95 306.19,284.95 				"/>
				<path class="st46" d="M276.58,233.08c0,2.64-2.14,4.78-4.78,4.78c-2.64,0-4.78-2.14-4.78-4.78c0-2.64,2.14-4.78,4.78-4.78
					C274.44,228.3,276.58,230.44,276.58,233.08z"/>
			</g>
		</g>
		<g>
			<rect x="260.76" y="292.65" class="st49" width="45.43" height="63.81"/>
			<g>
				<polygon class="st46" points="306.19,310.87 299.65,303.19 285.58,327.67 276.3,321.76 260.76,356.47 306.19,356.47 				"/>
				<path class="st46" d="M276.58,304.6c0,2.64-2.14,4.78-4.78,4.78c-2.64,0-4.78-2.14-4.78-4.78c0-2.64,2.14-4.78,4.78-4.78
					C274.44,299.82,276.58,301.96,276.58,304.6z"/>
			</g>
		</g>
		<g>
			<rect x="526.57" y="221.14" class="st49" width="45.43" height="63.81"/>
			<g>
				<polygon class="st46" points="572,239.35 565.46,231.68 551.39,256.15 542.11,250.24 526.57,284.95 572,284.95 				"/>
				<path class="st46" d="M542.39,233.08c0,2.64-2.14,4.78-4.78,4.78s-4.78-2.14-4.78-4.78c0-2.64,2.14-4.78,4.78-4.78
					S542.39,230.44,542.39,233.08z"/>
			</g>
		</g>
		<g>
			<rect x="526.57" y="292.65" class="st49" width="45.43" height="63.81"/>
			<g>
				<polygon class="st54" points="572,310.87 565.46,303.19 551.39,327.67 542.11,321.76 526.57,356.47 572,356.47 				"/>
				<path class="st54" d="M542.39,304.6c0,2.64-2.14,4.78-4.78,4.78s-4.78-2.14-4.78-4.78c0-2.64,2.14-4.78,4.78-4.78
					S542.39,301.96,542.39,304.6z"/>
			</g>
		</g>
		<g>
			<g>
				<path class="st49" d="M655.02,360.24c0,0-0.61,5.22,0.15,7.37c0.77,2.15,5.68,16.9,6.45,29.96s1.54,25.05,1.08,25.67
					c-0.46,0.61-3.23,0.31-3.23,0.31h-9.22c0,0-0.77-0.61-0.31-1.38s4.92-4.15,5.53-5.22c0.61-1.08,1.38-2.61,1.38-3.07
					s-1.08-11.69-4.76-19.06c-3.69-7.37-8.45-25.51-8.91-32.11L655.02,360.24z"/>
				<path class="st55" d="M649.95,422.17c0.26-0.44,1.82-1.72,3.23-2.95v1.56h9.66c0.03,1.43-0.01,2.3-0.13,2.46
					c-0.46,0.61-3.23,0.31-3.23,0.31h-9.22C650.25,423.55,649.48,422.94,649.95,422.17z"/>
			</g>
			<g>
				<path class="st49" d="M645.18,361c0,0-2.15,15.37-0.61,19.98c1.54,4.61,0.92,12.91-1.23,21.66c-2.15,8.76-3.84,14.29-3.84,14.75
					c0,0.46,0,4.61-0.46,5.38c-0.46,0.77-13.98,0.61-14.9,0.61c-0.92,0-1.84-0.92-1.08-1.84c0.77-0.92,4.92-1.93,7.68-3.23
					c2.61-1.23,2.77-1.54,2.77-1.54s1.54-17.98,0.92-25.97c-0.61-7.99-4.01-24.58-3.39-30.12L645.18,361z"/>
				<path class="st55" d="M624.13,423.39c-0.92,0-1.84-0.92-1.08-1.84c0.62-0.74,3.43-1.54,5.95-2.5l0.51,1.12l9.95-0.75
					c-0.05,1.34-0.16,2.91-0.43,3.36C638.58,423.54,625.06,423.39,624.13,423.39z"/>
			</g>
			<path class="st50" d="M653.76,308.89c0,0,5.25,11.4,5.71,18.32c0.46,6.91-2.46,14.44-2.46,14.44l1.84,19.82
				c0,0-6.15,3.84-16.44,3.69c-10.29-0.15-15.36-1.84-15.36-1.84s-1.23-24.12,2-35.8c3.23-11.68,2.08-18.05,2.08-18.05
				S645.44,310.08,653.76,308.89z"/>
			<path class="st55" d="M634.25,264.78c0,0,1.5,4.97,2.08,7.74c0.58,2.77-0.92,8.08-2.89,11.78c-1.96,3.7-4.16,7.62-3.12,10.97
				c1.04,3.35,1.5,4.62,1.5,4.62s-0.81,8.2-0.69,9.58c0.12,1.39,6,2.77,11.89,2.19c5.89-0.58,10.28-1.73,10.74-2.77
				c0.46-1.04,0-6.81,0.81-9.82c0.81-3,1.04-16.97-0.81-19.98c-1.85-3-6.12-7.74-6.12-7.74l-3.46-9.12L634.25,264.78z"/>
			<path class="st49" d="M649.38,273.36c-1.39-0.3-3.88-0.57-6.47,0.43c-2.26,0.86-5.17,3.1-7.23,4.85
				c0.66-2.35,0.96-4.61,0.65-6.12c-0.58-2.77-2.08-7.74-2.08-7.74l9.93-2.54l3.46,9.12C647.64,271.36,648.39,272.18,649.38,273.36z
				"/>
			<g>
				<path class="st49" d="M629.67,245.88c0,0-1.38,3.7-1.88,5.28c-0.49,1.58-1.22,3.13-2.16,3.28c-0.94,0.15-1.82,0.88-1.24,2.09
					c0.58,1.21,2.19,2.64,2.19,2.64s0.84,5.99,1.47,6.75c0.63,0.75,3.53,0.67,5.31,0.26c1.78-0.42,5.2-1.03,5.2-1.03
					s1.11-12.07,0.42-14.57c-0.7-2.5-3.72-6.14-4.61-6.57C633.48,243.57,629.67,245.88,629.67,245.88z"/>
				<path class="st48" d="M628.98,253.36c-0.06,0.64,0.13,1.17,0.41,1.2c0.29,0.03,0.56-0.47,0.62-1.1c0.06-0.64-0.13-1.17-0.41-1.2
					C629.32,252.23,629.04,252.72,628.98,253.36z"/>
				<path class="st51" d="M631.91,251.77c0,0-1.67-2.01-2.89-1.31"/>
				<path class="st51" d="M630.99,259.23c0,0-1.37,1.03-2.99,1"/>
			</g>
			<path class="st50" d="M657.31,262.48c-1.3-8.91-2.21-15.11-4.83-18.44c-1.47-2.23-3.36-3.71-5.44-4.21
				c-4.65-1.12-10.31-0.14-10.31-0.14s-3.26-3.66-7.34-0.91c-4.08,2.75-2.59,6.72-0.73,7.93c1.86,1.22,4.44,2.15,4.44,2.15
				l0.66-3.42c0,0,3.14,6.2,3.42,6.93l-4.42,28.52c0,0,9.08-6.23,10.93-4.78c1.85,1.45,3.64,2.73,3.64,4.26
				c0,1.53-0.26,12.79-0.26,12.79h10.48C657.57,293.17,658.85,272.97,657.31,262.48z"/>
			<path class="st50" d="M590.24,265.83c0.11-0.42,0.56-0.64,0.96-0.46l4.52,2.02l-4.84-4.58c-0.27-0.25-0.31-0.67-0.1-0.97
				c0.23-0.32,0.67-0.41,1-0.2l5.27,3.3l-3.06-3.75c-0.29-0.35-0.17-0.87,0.23-1.08c0.25-0.13,0.56-0.09,0.77,0.09l6.08,5.14
				l-0.57-2.24c-0.13-0.5,0.21-1,0.72-1.08c0.4-0.06,0.78,0.16,0.93,0.54c0.39,0.98,1.13,2.82,1.42,3.43
				c0.4,0.84,0.96,2.73,0.91,3.42c-0.05,0.69-0.05,2.31-0.05,2.31l11.4,8.94l0.88-1.04l3.07,2.92l-0.09,1.14l2.79,2.13
				c0,0,18.77-9.53,21.21-9.7c2.44-0.17,5.84,4.13,4.37,8.42c-1.47,4.29-26.29,11.07-27.11,11.12
				c-0.81,0.06-18.72-20.86-18.72-20.86s-3.04-1.15-4.37-1.94c-1.12-0.66-5.64-2.47-7.08-3.03c-0.25-0.1-0.38-0.38-0.29-0.63
				c0.08-0.25,0.35-0.4,0.6-0.34l3.75,0.89l-4.35-3.19C590.27,266.39,590.17,266.1,590.24,265.83z"/>
			<g>
				<path class="st46" d="M508.58,242.17h101.27c5.43,0,9.83,4.4,9.83,9.83v161.8c0,5.43-4.4,9.83-9.83,9.83H508.58
					c-5.43,0-9.83-4.4-9.83-9.83V252C498.75,246.57,503.15,242.17,508.58,242.17z"/>
				<g>
					<rect x="556.2" y="394.86" class="st49" width="7.83" height="15.38"/>
					<rect x="556.2" y="374.96" class="st49" width="7.83" height="15.38"/>
					<rect x="556.2" y="355.06" class="st49" width="7.83" height="15.38"/>
					<rect x="556.2" y="335.16" class="st49" width="7.83" height="15.38"/>
					<rect x="556.2" y="315.26" class="st49" width="7.83" height="15.38"/>
					<rect x="556.2" y="295.36" class="st49" width="7.83" height="15.38"/>
					<rect x="556.2" y="275.46" class="st49" width="7.83" height="15.38"/>
					<rect x="556.2" y="255.56" class="st49" width="7.83" height="15.38"/>
				</g>
				<circle class="st49" cx="598.72" cy="264.59" r="8.48"/>
				<circle class="st49" cx="598.72" cy="282.64" r="8.48"/>
				
					<ellipse transform="matrix(0.9958 -0.0915 0.0915 0.9958 -25.0237 56.0333)" class="st49" cx="598.72" cy="300.98" rx="8.48" ry="8.48"/>
				<path class="st50" d="M505.72,242.17c-3.85,0-6.97,3.12-6.97,6.97v167.52c0,3.85,3.12,6.97,6.97,6.97h25.44V383.3l-25.16-32.55
					V242.17H505.72z"/>
				<line class="st51" x1="594.89" y1="396.6" x2="594.89" y2="316.28"/>
				<line class="st51" x1="594.89" y1="410.38" x2="594.89" y2="403.46"/>
				<line class="st51" x1="602.82" y1="325.08" x2="602.82" y2="316.28"/>
				<line class="st51" x1="602.82" y1="410.38" x2="602.82" y2="332.52"/>
				<g>
					<path class="st49" d="M540.36,379.83v25.63c0,2.52-2.04,4.55-4.55,4.55h-15.78c-2.52,0-4.55-2.04-4.55-4.55v-25.63
						c0-2.52,2.04-4.55,4.55-4.55h15.78C538.32,375.27,540.36,377.31,540.36,379.83z"/>
					
						<rect x="524.73" y="389.45" transform="matrix(6.123234e-17 -1 1 6.123234e-17 135.2729 920.5555)" class="st49" width="6.38" height="6.38"/>
					<g>
						<polyline class="st51" points="526.32,396.01 526.32,405.48 524.05,405.48 524.05,409.62 						"/>
						<polyline class="st51" points="531.91,409.62 531.91,405.22 529.64,405.22 529.64,396.01 						"/>
						<line class="st51" x1="527.91" y1="396.25" x2="527.91" y2="409.76"/>
					</g>
					<g>
						<polyline class="st51" points="526.32,389.37 526.32,379.9 524.05,379.9 524.05,375.76 						"/>
						<polyline class="st51" points="531.91,375.76 531.91,380.16 529.64,380.16 529.64,389.37 						"/>
						<line class="st51" x1="527.91" y1="389.13" x2="527.91" y2="375.62"/>
					</g>
					<line class="st51" x1="515.93" y1="392.64" x2="524.79" y2="392.64"/>
					<line class="st51" x1="531.18" y1="392.64" x2="539.8" y2="392.64"/>
				</g>
			</g>
			<g>
				<path class="st49" d="M622.1,287.88c0,0,18.04-11.1,20.46-11.44c2.42-0.35,6.12,3.7,4.97,8.08
					c-1.15,4.39-25.43,13.18-26.24,13.29c-0.81,0.12-20.48-19.04-20.48-19.04s-3.12-0.92-4.5-1.62c-1.16-0.58-5.8-2.05-7.28-2.51
					c-0.26-0.08-0.4-0.35-0.34-0.61l0,0c0.06-0.26,0.32-0.42,0.58-0.38l3.81,0.62l-4.57-2.87c-0.24-0.15-0.36-0.43-0.31-0.71l0,0
					c0.08-0.42,0.52-0.67,0.92-0.53l4.66,1.68l-5.16-4.21c-0.29-0.23-0.36-0.64-0.17-0.96l0,0c0.2-0.34,0.64-0.46,0.98-0.27l5.5,2.9
					l-3.32-3.52c-0.31-0.33-0.24-0.86,0.15-1.09l0,0c0.24-0.15,0.55-0.13,0.78,0.03l6.43,4.69l-0.73-2.2
					c-0.16-0.49,0.14-1.02,0.64-1.12l0,0c0.39-0.08,0.79,0.11,0.96,0.47c0.46,0.95,1.33,2.73,1.67,3.32
					c0.46,0.81,1.15,2.66,1.15,3.35c0,0.69,0.12,2.31,0.12,2.31L622.1,287.88z"/>
				<path class="st55" d="M611.87,289.37l0.23-0.38l3.63-5l6.38,3.89c0,0,18.04-11.1,20.46-11.44c2.43-0.35,6.12,3.7,4.97,8.08
					c-1.15,4.39-25.43,13.18-26.24,13.29C620.9,297.87,617.98,294.95,611.87,289.37z"/>
				<polygon class="st55" points="617.93,285.31 612.86,291.45 609.94,289.15 615.01,282.85 				"/>
			</g>
		</g>
		<g>
			<path class="st50" d="M564,165.94h-0.13h-24.53h-0.13h-24.53h-0.13h-24.53h-0.13h-24.53h-0.13H440.7h-0.13h-24.53h-0.13h-24.53
				h-0.13h-24.53h-0.13h-24.53h-0.13H317.4h-0.13h-24.53h-0.13h-24.53h-0.13h-24.66v23.64v0.13v11.24c0,6.85,5.55,12.4,12.4,12.4h0
				c6.41,0,11.69-4.87,12.33-11.12c0.64,6.24,5.92,11.12,12.33,11.12h0c6.41,0,11.69-4.87,12.33-11.12
				c0.64,6.24,5.92,11.12,12.33,11.12c6.41,0,11.69-4.87,12.33-11.12c0.64,6.24,5.92,11.12,12.33,11.12h0
				c6.41,0,11.69-4.87,12.33-11.12c0.64,6.24,5.92,11.12,12.33,11.12h0c6.41,0,11.69-4.87,12.33-11.12
				c0.64,6.24,5.92,11.12,12.33,11.12c6.41,0,11.69-4.87,12.33-11.12c0.64,6.24,5.92,11.12,12.33,11.12l0,0
				c6.41,0,11.69-4.87,12.33-11.12c0.64,6.24,5.92,11.12,12.33,11.12c6.41,0,11.69-4.87,12.33-11.12
				c0.64,6.24,5.92,11.12,12.33,11.12c6.41,0,11.69-4.87,12.33-11.12c0.64,6.24,5.92,11.12,12.33,11.12h0
				c6.41,0,11.69-4.87,12.33-11.12c0.64,6.24,5.92,11.12,12.33,11.12c6.41,0,11.69-4.87,12.33-11.12
				c0.64,6.24,5.92,11.12,12.33,11.12h0c6.41,0,11.69-4.87,12.33-11.12c0.64,6.24,5.92,11.12,12.33,11.12l0,0
				c6.41,0,11.69-4.87,12.33-11.12c0.64,6.24,5.92,11.12,12.33,11.12c6.85,0,12.4-5.55,12.4-12.4V189.7v-0.13v-23.64H564z"/>
			<g>
				<g>
					<rect x="243.28" y="159.6" class="st46" width="24.79" height="23.76"/>
					<rect x="267.94" y="159.6" class="st56" width="24.79" height="23.76"/>
					<rect x="292.6" y="159.6" class="st46" width="24.79" height="23.76"/>
					<rect x="317.26" y="159.6" class="st56" width="24.79" height="23.76"/>
					<rect x="341.92" y="159.6" class="st46" width="24.79" height="23.76"/>
					<rect x="366.58" y="159.6" class="st56" width="24.79" height="23.76"/>
					<rect x="391.25" y="159.6" class="st46" width="24.79" height="23.76"/>
					<rect x="415.91" y="159.6" class="st56" width="24.79" height="23.76"/>
					<rect x="440.57" y="159.6" class="st46" width="24.79" height="23.76"/>
					<rect x="465.23" y="159.6" class="st56" width="24.79" height="23.76"/>
					<rect x="489.89" y="159.6" class="st46" width="24.79" height="23.76"/>
					<rect x="514.55" y="159.6" class="st56" width="24.79" height="23.76"/>
					<rect x="539.21" y="159.6" class="st46" width="24.79" height="23.76"/>
					<rect x="563.87" y="159.6" class="st56" width="24.79" height="23.76"/>
				</g>
				<g>
					<path class="st46" d="M255.68,207L255.68,207c-6.85,0-12.4-5.55-12.4-12.4v-11.37h24.79v11.37
						C268.07,201.45,262.52,207,255.68,207z"/>
					<path class="st49" d="M287.62,207h-14.56c-2.83,0-5.12-2.29-5.12-5.12v-18.64h24.79v18.64C292.73,204.71,290.44,207,287.62,207
						z"/>
					<path class="st46" d="M305,207L305,207c-6.85,0-12.4-5.55-12.4-12.4v-11.37h24.79v11.37C317.4,201.45,311.85,207,305,207z"/>
					<path class="st49" d="M336.94,207h-14.56c-2.83,0-5.12-2.29-5.12-5.12v-18.64h24.79v18.64C342.06,204.71,339.76,207,336.94,207
						z"/>
					<path class="st46" d="M361.6,207h-14.56c-2.83,0-5.12-2.29-5.12-5.12v-18.64h24.79v18.64C366.72,204.71,364.43,207,361.6,207z"
						/>
					<path class="st49" d="M378.98,207L378.98,207c-6.85,0-12.4-5.55-12.4-12.4v-11.37h24.79v11.37
						C391.38,201.45,385.83,207,378.98,207z"/>
					<path class="st46" d="M403.64,207L403.64,207c-6.85,0-12.4-5.55-12.4-12.4v-11.37h24.79v11.37
						C416.04,201.45,410.49,207,403.64,207z"/>
					<path class="st49" d="M428.3,207L428.3,207c-6.85,0-12.4-5.55-12.4-12.4v-11.37h24.79v11.37C440.7,201.45,435.15,207,428.3,207
						z"/>
					<path class="st46" d="M452.96,207L452.96,207c-6.85,0-12.4-5.55-12.4-12.4v-11.37h24.79v11.37
						C465.36,201.45,459.81,207,452.96,207z"/>
					<path class="st49" d="M484.9,207h-14.56c-2.83,0-5.12-2.29-5.12-5.12v-18.64h24.79v18.64C490.02,204.71,487.73,207,484.9,207z"
						/>
					<path class="st46" d="M509.56,207h-14.56c-2.83,0-5.12-2.29-5.12-5.12v-18.64h24.79v18.64C514.68,204.71,512.39,207,509.56,207
						z"/>
					<path class="st49" d="M526.94,207L526.94,207c-6.85,0-12.4-5.55-12.4-12.4v-11.37h24.79v11.37
						C539.34,201.45,533.79,207,526.94,207z"/>
					<path class="st46" d="M551.61,207L551.61,207c-6.85,0-12.4-5.55-12.4-12.4v-11.37H564v11.37C564,201.45,558.45,207,551.61,207z
						"/>
					<path class="st49" d="M576.27,207L576.27,207c-6.85,0-12.4-5.55-12.4-12.4v-11.37h24.79v11.37
						C588.66,201.45,583.11,207,576.27,207z"/>
				</g>
			</g>
		</g>
		<g>
			
				<ellipse transform="matrix(0.9732 -0.2298 0.2298 0.9732 -51.6814 61.4883)" class="st50" cx="238.21" cy="252.68" rx="30.04" ry="30.04"/>
			<circle class="st46" cx="236.6" cy="250.28" r="30.04"/>
			<g>
				<path class="st48" d="M236.63,240.21c-3.92,0.03-7.72,0.97-11.18,3.07c-1.41,0.86-2.7,1.93-4,2.95
					c-0.76,0.59-1.54,0.88-2.49,0.6c-1.4-0.42-2.07-2.11-1.29-3.34c0.26-0.42,0.62-0.79,0.99-1.11c4.35-3.84,9.39-6.13,15.17-6.72
					c7.93-0.8,14.82,1.62,20.8,6.81c0.6,0.52,1.13,1.09,1.19,1.95c0.07,0.99-0.31,1.75-1.15,2.25c-0.86,0.5-1.73,0.39-2.53-0.15
					c-0.47-0.32-0.88-0.73-1.32-1.09c-3.95-3.26-8.49-5-13.61-5.18C237.07,240.23,236.91,240.22,236.63,240.21z"/>
				<path class="st48" d="M248.32,252.86c-0.73,0.01-1.31-0.3-1.83-0.78c-2.08-1.93-4.48-3.28-7.28-3.74
					c-4.32-0.71-8.27,0.23-11.68,3.07c-0.4,0.33-0.78,0.68-1.2,0.99c-1.01,0.73-2.35,0.58-3.15-0.34c-0.78-0.9-0.78-2.23,0.07-3.12
					c1.89-1.99,4.17-3.41,6.74-4.35c4.97-1.83,9.88-1.6,14.69,0.61c1.97,0.9,3.72,2.13,5.25,3.66c0.72,0.72,0.9,1.74,0.5,2.62
					C250.02,252.38,249.3,252.83,248.32,252.86z"/>
				<path class="st48" d="M236.55,251.24c3.2,0.07,5.94,1.2,8.15,3.56c0.87,0.93,0.92,2.32,0.1,3.2c-0.88,0.95-2.23,1.01-3.28,0.21
					c-0.83-0.63-1.65-1.37-2.6-1.75c-2.47-1-4.73-0.44-6.69,1.32c-0.7,0.63-1.41,1.12-2.44,0.95c-1.72-0.3-2.52-2.31-1.43-3.67
					c1.06-1.33,2.41-2.26,3.97-2.91C233.68,251.57,235.08,251.25,236.55,251.24z"/>
				<path class="st48" d="M236.65,265.06c-1.64-0.01-2.87-1.22-2.86-2.83c0-1.51,1.3-2.82,2.8-2.81c1.64,0.01,2.87,1.26,2.85,2.91
					C239.42,263.83,238.16,265.07,236.65,265.06z"/>
			</g>
		</g>
		<g>
			<path class="st48" d="M451.87,322.31h-72.06c-3.79,0-6.86-3.07-6.86-6.86v-19.51c0-3.79,3.07-6.86,6.86-6.86h72.06
				c3.79,0,6.86,3.07,6.86,6.86v19.51C458.73,319.24,455.66,322.31,451.87,322.31z"/>
		</g>
		<g>
			<path class="st46" d="M396.96,315.29v-19.44h4.92c0.85,0,1.63,0.07,2.35,0.22c0.72,0.14,1.36,0.4,1.91,0.77
				c0.55,0.37,0.98,0.88,1.27,1.52c0.3,0.65,0.44,1.49,0.44,2.53c0,0.78-0.11,1.45-0.34,2c-0.22,0.55-0.54,0.99-0.96,1.31
				c-0.42,0.32-0.93,0.54-1.54,0.65c0.75,0.11,1.38,0.37,1.9,0.77c0.51,0.4,0.9,0.93,1.15,1.58c0.26,0.66,0.38,1.45,0.38,2.38
				c0,0.98-0.12,1.82-0.37,2.54c-0.25,0.72-0.61,1.31-1.09,1.78c-0.48,0.46-1.07,0.81-1.78,1.04c-0.7,0.23-1.52,0.35-2.45,0.35
				H396.96z M400.92,303.7h0.98c0.69,0,1.21-0.1,1.56-0.3c0.35-0.2,0.6-0.5,0.73-0.91c0.14-0.41,0.2-0.91,0.2-1.5
				c0-0.59-0.1-1.07-0.3-1.43c-0.2-0.36-0.5-0.62-0.91-0.78c-0.41-0.16-0.92-0.24-1.55-0.24h-0.72V303.7z M400.92,312.51h1.1
				c0.99,0,1.68-0.25,2.05-0.74c0.38-0.5,0.56-1.24,0.56-2.23c0-0.77-0.09-1.38-0.26-1.84c-0.18-0.46-0.46-0.79-0.85-1.01
				c-0.39-0.22-0.92-0.32-1.57-0.32h-1.03V312.51z"/>
			<path class="st46" d="M416.21,315.55c-1.47,0-2.62-0.25-3.43-0.76c-0.82-0.5-1.39-1.23-1.72-2.18c-0.33-0.95-0.49-2.11-0.49-3.47
				v-13.3h3.91v13.85c0,0.48,0.04,0.95,0.11,1.42c0.07,0.46,0.23,0.84,0.48,1.13c0.25,0.29,0.63,0.43,1.14,0.43
				c0.53,0,0.92-0.14,1.16-0.43c0.25-0.29,0.4-0.66,0.47-1.13c0.06-0.46,0.1-0.94,0.1-1.42v-13.85h3.91v13.3
				c0,1.36-0.16,2.52-0.49,3.47c-0.33,0.95-0.9,1.68-1.72,2.18C418.83,315.3,417.68,315.55,416.21,315.55z"/>
			<path class="st46" d="M427.16,315.29v-7.7l-3.79-11.74h3.72l2.09,6.84l1.94-6.84h3.6l-3.74,11.74v7.7H427.16z"/>
		</g>
		<g>
			<path class="st48" d="M343.31,343.24l37.06-31.4c1.25-1.06,0.39-3.09-1.24-2.93l-48.21,4.76c-1.61,0.16-2.07,2.28-0.68,3.09
				l9.99,5.85l-32.16,13.62l3.24,7.66l31.84-13.49l-2.55,11.19C340.26,343.16,342.09,344.28,343.31,343.24z"/>
			<path class="st49" d="M343.85,340.04l37.06-31.4c1.25-1.06,0.39-3.09-1.24-2.93l-48.21,4.76c-1.61,0.16-2.07,2.28-0.68,3.09
				l9.99,5.85l-32.16,13.62l3.24,7.66l31.84-13.49l-2.55,11.19C340.79,339.96,342.62,341.08,343.85,340.04z"/>
		</g>
	</g>
</g>
</svg>
